M48
; DRILL file KiCad 10.0.3 date 2026-07-30T11:46:43
; FORMAT={-:-/ absolute / metric / decimal}
; #@! TF.CreationDate,2026-07-30T11:46:43-07:00
; #@! TF.GenerationSoftware,Kicad,Pcbnew,10.0.3
; #@! TF.FileFunction,MixedPlating,1,2
FMAT,2
METRIC
; #@! TA.AperFunction,Plated,PTH,ViaDrill
T1C0.300
; #@! TA.AperFunction,Plated,PTH,ComponentDrill
T2C0.800
; #@! TA.AperFunction,Plated,PTH,ComponentDrill
T3C1.000
; #@! TA.AperFunction,Plated,PTH,ComponentDrill
T4C1.200
; #@! TA.AperFunction,Plated,PTH,ComponentDrill
T5C1.800
; #@! TA.AperFunction,NonPlated,NPTH,ComponentDrill
T6C1.800
; #@! TA.AperFunction,NonPlated,NPTH,ComponentDrill
T7C3.200
%
G90
G05
T1
X64.0Y-64.0
X65.0Y-63.0
X67.0Y-103.0
X67.0Y-104.0
X68.0Y-94.0
X68.0Y-95.0
X69.0Y-97.0
X70.0Y-45.0
X79.0Y-91.0
X79.0Y-92.0
X79.0Y-93.0
X81.0Y-87.0
X81.0Y-90.0
X81.061Y-75.933
X84.0Y-110.0
X86.0Y-96.0
X90.0Y-70.0
X91.0Y-90.0
X92.0Y-81.0
X96.0Y-64.0
X96.0Y-87.0
X98.0Y-102.0
X98.0Y-108.0
X101.0Y-89.0
X103.0Y-77.0
X103.0Y-90.0
X107.0Y-92.0
X119.0Y-89.0
X119.0Y-90.0
X119.0Y-135.0
X121.0Y-140.0
X125.0Y-69.0
X125.0Y-71.0
X128.0Y-89.0
X130.0Y-93.473
X131.0Y-105.0
X133.0Y-104.0
X136.0Y-90.0
X136.0Y-135.0
X137.0Y-102.0
X138.0Y-92.0
X138.0Y-104.0
X138.0Y-110.0
X139.0Y-58.0
X140.0Y-57.0
X140.0Y-94.0
X142.0Y-95.0
X145.0Y-96.0
X150.0Y-91.0
X153.0Y-132.0
X159.0Y-81.0
X160.0Y-101.0
X161.0Y-81.0
X162.0Y-118.035
X164.0Y-76.0
X165.0Y-32.0
X165.0Y-55.0
X165.0Y-55.0
X166.0Y-31.0
X167.0Y-30.0
X167.17Y-33.17
X168.0Y-29.0
X168.0Y-96.0
X168.241Y-103.293
X169.0Y-28.0
X169.0Y-116.0
X170.0Y-40.0
X170.0Y-116.0
X171.0Y-100.0
X171.0Y-104.0
X171.0Y-106.0
X171.0Y-116.0
X172.0Y-99.0
X172.0Y-101.0
X172.0Y-116.0
X173.0Y-43.0
X173.0Y-98.0
X173.0Y-104.779
X173.0Y-116.0
X173.473Y-110.0
X174.0Y-34.0
X174.0Y-104.0
X175.0Y-33.0
X175.0Y-99.0
X175.0Y-104.0
X176.0Y-104.0
X177.0Y-104.0
X178.0Y-110.0
X179.0Y-100.0
X180.0Y-136.0
X186.215Y-57.215
X187.0Y-58.0
X191.0Y-136.0
X192.0Y-34.9
X192.97Y-48.97
X195.0Y-45.0
X195.0Y-117.0
X196.0Y-85.0
X198.0Y-43.94
X203.0Y-85.0
X203.0Y-87.0
X203.0Y-88.0
X203.0Y-89.0
X203.0Y-90.0
X203.0Y-91.0
X203.0Y-92.0
X205.0Y-42.0
X205.0Y-84.0
X207.976Y-109.019
X208.546Y-108.568
X209.0Y-108.0
X209.169Y-107.0
X211.0Y-127.0
X211.0Y-130.0
X211.0Y-132.0
X211.0Y-140.0
X211.846Y-105.0
X212.0Y-116.0
X213.0Y-36.0
X214.0Y-110.0
X215.0Y-36.0
X216.0Y-48.0
X218.0Y-86.0
X220.0Y-87.0
X221.0Y-88.0
X222.0Y-112.0
X223.0Y-89.0
X225.0Y-90.0
X226.0Y-91.0
X227.0Y-92.0
T2
X58.06Y-99.0
X60.6Y-99.0
X63.14Y-99.0
X65.68Y-99.0
X68.22Y-99.0
X68.22Y-114.24
X70.76Y-99.0
X70.76Y-114.24
X73.3Y-99.0
X73.3Y-114.24
X75.84Y-99.0
X75.84Y-114.24
X78.38Y-99.0
X78.38Y-114.24
X80.92Y-99.0
X80.92Y-114.24
X83.46Y-99.0
X83.46Y-114.24
X86.0Y-99.0
X86.0Y-114.24
X88.54Y-99.0
X91.08Y-99.0
X93.62Y-99.0
X96.16Y-99.0
X107.36Y-98.999
X109.9Y-98.999
X112.44Y-98.999
X114.98Y-98.999
X117.52Y-98.999
X120.06Y-98.999
X122.6Y-98.999
X125.14Y-98.999
X127.68Y-98.999
X130.22Y-98.999
X132.19Y-33.333
X132.76Y-98.999
X134.73Y-33.333
X135.3Y-98.999
X137.27Y-33.333
X137.84Y-98.999
X139.81Y-33.333
X140.38Y-98.999
X142.92Y-98.999
X145.46Y-98.999
X148.0Y-98.999
X150.54Y-98.999
X153.08Y-98.999
X155.62Y-98.999
X164.51Y-98.999
X164.51Y-101.539
X164.51Y-104.079
X164.51Y-106.619
X164.51Y-109.159
X164.51Y-111.699
X164.51Y-114.239
X167.05Y-98.999
X167.05Y-101.539
X167.05Y-104.079
X167.05Y-106.619
X167.05Y-109.159
X167.05Y-111.699
X167.05Y-114.239
X167.347Y-39.318
X167.347Y-41.858
X167.347Y-44.398
X167.347Y-46.938
X167.347Y-49.478
X190.73Y-125.825
X193.27Y-125.825
X200.41Y-125.92
X200.41Y-128.46
X200.41Y-131.0
X200.41Y-136.08
X202.66Y-24.04
X202.66Y-26.58
X202.66Y-29.12
X202.66Y-31.66
X202.66Y-34.2
X202.66Y-36.74
X202.66Y-39.28
X202.66Y-41.82
X202.66Y-44.36
X202.66Y-46.9
X202.66Y-49.44
X202.66Y-51.98
X202.66Y-54.52
X202.66Y-57.06
X202.66Y-59.6
X202.66Y-62.14
X202.66Y-64.68
X202.66Y-67.22
X202.66Y-69.76
X202.66Y-72.3
X202.66Y-74.84
X202.66Y-77.38
X202.66Y-79.92
X202.66Y-82.46
X202.95Y-125.92
X202.95Y-128.46
X202.95Y-133.54
X202.95Y-136.08
X206.76Y-114.49
X206.76Y-117.03
X206.76Y-119.57
X206.76Y-122.11
X206.76Y-124.65
X206.76Y-127.19
X206.76Y-129.73
X206.76Y-132.27
X206.76Y-134.81
X206.76Y-137.35
X206.76Y-139.89
X206.76Y-142.43
X206.76Y-144.97
X206.76Y-147.51
X217.9Y-24.0
X217.9Y-26.54
X217.9Y-29.08
X217.9Y-31.62
X217.9Y-34.16
X217.9Y-36.7
X217.9Y-39.24
X217.9Y-41.78
X217.9Y-44.32
X217.9Y-46.86
X217.9Y-49.4
X217.9Y-51.94
X217.9Y-54.48
X217.9Y-57.02
X217.9Y-59.56
X217.9Y-62.1
X217.9Y-64.64
X217.9Y-67.18
X217.9Y-69.72
X217.9Y-72.26
X217.9Y-74.8
X217.9Y-77.34
X217.9Y-79.88
X217.9Y-82.42
X222.0Y-114.49
X222.0Y-117.03
X222.0Y-119.57
X222.0Y-122.11
X222.0Y-124.65
X222.0Y-127.19
X222.0Y-129.73
X222.0Y-132.27
X222.0Y-134.81
X222.0Y-137.35
X222.0Y-139.89
X222.0Y-142.43
X222.0Y-144.97
X222.0Y-147.51
X226.46Y-81.095
X229.0Y-81.095
T3
X75.975Y-60.05
X75.975Y-84.698
X78.475Y-60.05
X78.475Y-84.698
X80.975Y-60.05
X80.975Y-84.698
X93.7Y-41.634
X93.7Y-60.05
X93.7Y-84.698
X96.2Y-41.634
X96.2Y-60.05
X96.2Y-84.698
X98.7Y-41.634
X98.7Y-60.05
X98.7Y-84.698
X109.317Y-91.85
X111.817Y-91.85
X114.317Y-91.85
X125.44Y-91.85
X127.94Y-91.85
X130.44Y-91.85
X141.563Y-91.85
X144.063Y-91.85
X146.563Y-91.85
X148.865Y-74.948
X151.365Y-74.948
X153.865Y-74.948
X156.167Y-91.85
X158.667Y-91.85
X161.167Y-91.85
X171.4Y-75.05
X173.9Y-75.05
X176.4Y-75.05
X185.5Y-95.9
X185.5Y-112.2
X187.5Y-75.05
X188.0Y-95.9
X188.0Y-112.2
X190.0Y-75.05
X190.5Y-95.9
X190.5Y-112.2
X192.5Y-75.05
X225.5Y-75.05
X228.0Y-75.05
X230.5Y-75.05
T4
X54.5Y-33.693
X54.5Y-38.693
X54.5Y-52.252
X54.5Y-57.252
X54.5Y-76.9
X54.5Y-81.9
X54.5Y-124.898
X54.5Y-129.898
X54.5Y-141.0
X54.5Y-146.0
X67.0Y-33.693
X67.0Y-38.693
X67.0Y-52.252
X67.0Y-57.252
X67.0Y-76.9
X67.0Y-81.9
X67.0Y-124.898
X67.0Y-129.898
X67.0Y-141.0
X67.0Y-146.0
X72.225Y-33.693
X72.225Y-38.693
X75.289Y-141.0
X75.289Y-146.0
X84.161Y-124.898
X84.161Y-129.898
X84.725Y-33.693
X84.725Y-38.693
X87.789Y-141.0
X87.789Y-146.0
X93.032Y-141.0
X93.032Y-146.0
X96.661Y-124.898
X96.661Y-129.898
X101.904Y-124.898
X101.904Y-129.898
X105.532Y-141.0
X105.532Y-146.0
X110.776Y-141.0
X110.776Y-146.0
X113.628Y-67.15
X113.628Y-72.15
X114.404Y-124.898
X114.404Y-129.898
X119.648Y-124.898
X119.648Y-129.898
X123.276Y-141.0
X123.276Y-146.0
X126.128Y-67.15
X126.128Y-72.15
X128.519Y-141.0
X128.519Y-146.0
X129.751Y-67.15
X129.751Y-72.15
X132.148Y-124.898
X132.148Y-129.898
X137.391Y-124.898
X137.391Y-129.898
X141.019Y-141.0
X141.019Y-146.0
X142.251Y-67.15
X142.251Y-72.15
X146.263Y-141.0
X146.263Y-146.0
X149.891Y-124.898
X149.891Y-129.898
X155.135Y-124.898
X155.135Y-129.898
X158.763Y-141.0
X158.763Y-146.0
X164.006Y-141.0
X164.006Y-146.0
X167.635Y-124.898
X167.635Y-129.898
X172.878Y-124.898
X172.878Y-129.898
X176.506Y-141.0
X176.506Y-146.0
X181.75Y-141.0
X181.75Y-146.0
X185.378Y-124.898
X185.378Y-129.898
X194.25Y-141.0
X194.25Y-146.0
X197.75Y-96.252
X197.75Y-101.252
X210.25Y-96.252
X210.25Y-101.252
T6
X60.75Y-31.693
X60.75Y-40.693
X60.75Y-50.252
X60.75Y-59.252
X60.75Y-74.9
X60.75Y-83.9
X60.75Y-122.898
X60.75Y-131.898
X60.75Y-139.0
X60.75Y-148.0
X78.475Y-31.693
X78.475Y-40.693
X81.539Y-139.0
X81.539Y-148.0
X90.411Y-122.898
X90.411Y-131.898
X99.282Y-139.0
X99.282Y-148.0
X108.154Y-122.898
X108.154Y-131.898
X117.026Y-139.0
X117.026Y-148.0
X119.878Y-65.15
X119.878Y-74.15
X125.898Y-122.898
X125.898Y-131.898
X134.769Y-139.0
X134.769Y-148.0
X136.001Y-65.15
X136.001Y-74.15
X143.641Y-122.898
X143.641Y-131.898
X152.513Y-139.0
X152.513Y-148.0
X161.385Y-122.898
X161.385Y-131.898
X170.256Y-139.0
X170.256Y-148.0
X179.128Y-122.898
X179.128Y-131.898
X188.0Y-139.0
X188.0Y-148.0
X204.0Y-94.252
X204.0Y-103.252
T7
X58.0Y-92.0
X76.0Y-127.0
X155.0Y-35.0
X190.0Y-119.0
X232.0Y-90.0
T3
X228.208Y-30.06G85X228.808Y-30.06
G05
X228.208Y-36.06G85X228.808Y-36.06
G05
X233.208Y-33.36G85X233.208Y-32.76
G05
T5
X74.075Y-53.2G85X74.075Y-52.9
G05
X74.075Y-77.848G85X74.075Y-77.548
G05
X82.875Y-53.2G85X82.875Y-52.9
G05
X82.875Y-77.848G85X82.875Y-77.548
G05
X91.8Y-34.784G85X91.8Y-34.484
G05
X91.8Y-53.2G85X91.8Y-52.9
G05
X91.8Y-77.848G85X91.8Y-77.548
G05
X100.6Y-34.784G85X100.6Y-34.484
G05
X100.6Y-53.2G85X100.6Y-52.9
G05
X100.6Y-77.848G85X100.6Y-77.548
G05
X107.417Y-85.0G85X107.417Y-84.7
G05
X116.217Y-85.0G85X116.217Y-84.7
G05
X123.54Y-85.0G85X123.54Y-84.7
G05
X132.34Y-85.0G85X132.34Y-84.7
G05
X139.663Y-85.0G85X139.663Y-84.7
G05
X146.965Y-68.098G85X146.965Y-67.798
G05
X148.463Y-85.0G85X148.463Y-84.7
G05
X154.267Y-85.0G85X154.267Y-84.7
G05
X155.765Y-68.098G85X155.765Y-67.798
G05
X163.067Y-85.0G85X163.067Y-84.7
G05
X169.5Y-68.2G85X169.5Y-67.9
G05
X178.3Y-68.2G85X178.3Y-67.9
G05
X183.6Y-89.05G85X183.6Y-88.75
G05
X183.6Y-105.35G85X183.6Y-105.05
G05
X185.6Y-68.2G85X185.6Y-67.9
G05
X192.4Y-89.05G85X192.4Y-88.75
G05
X192.4Y-105.35G85X192.4Y-105.05
G05
X194.4Y-68.2G85X194.4Y-67.9
G05
X223.6Y-68.2G85X223.6Y-67.9
G05
X232.4Y-68.2G85X232.4Y-67.9
G05
M30
