G04 #@! TF.GenerationSoftware,KiCad,Pcbnew,10.0.3*
G04 #@! TF.CreationDate,2026-07-30T11:49:40-07:00*
G04 #@! TF.ProjectId,726-DSSI,3732362d-4453-4534-992e-6b696361645f,rev?*
G04 #@! TF.SameCoordinates,Original*
G04 #@! TF.FileFunction,Soldermask,Top*
G04 #@! TF.FilePolarity,Negative*
%FSLAX46Y46*%
G04 Gerber Fmt 4.6, Leading zero omitted, Abs format (unit mm)*
G04 Created by KiCad (PCBNEW 10.0.3) date 2026-07-30 11:49:40*
%MOMM*%
%LPD*%
G01*
G04 APERTURE LIST*
G04 Aperture macros list*
%AMRoundRect*
0 Rectangle with rounded corners*
0 $1 Rounding radius*
0 $2 $3 $4 $5 $6 $7 $8 $9 X,Y pos of 4 corners*
0 Add a 4 corners polygon primitive as box body*
4,1,4,$2,$3,$4,$5,$6,$7,$8,$9,$2,$3,0*
0 Add four circle primitives for the rounded corners*
1,1,$1+$1,$2,$3*
1,1,$1+$1,$4,$5*
1,1,$1+$1,$6,$7*
1,1,$1+$1,$8,$9*
0 Add four rect primitives between the rounded corners*
20,1,$1+$1,$2,$3,$4,$5,0*
20,1,$1+$1,$4,$5,$6,$7,0*
20,1,$1+$1,$6,$7,$8,$9,0*
20,1,$1+$1,$8,$9,$2,$3,0*%
G04 Aperture macros list end*
%ADD10C,1.799996*%
%ADD11C,1.707896*%
%ADD12R,1.800000X1.800000*%
%ADD13C,1.800000*%
%ADD14RoundRect,0.750000X0.750000X-1.250000X0.750000X1.250000X-0.750000X1.250000X-0.750000X-1.250000X0*%
%ADD15C,3.200000*%
%ADD16C,2.000000*%
%ADD17R,2.000000X2.000000*%
%ADD18O,3.220000X1.712000*%
%ADD19O,1.712000X3.220000*%
G04 APERTURE END LIST*
D10*
X117025926Y-139000000D03*
X117025926Y-148000000D03*
D11*
X110775926Y-141000000D03*
X110775926Y-146000000D03*
X123275926Y-141000000D03*
X123275926Y-146000000D03*
D10*
X60750000Y-50251901D03*
X60750000Y-59251901D03*
D11*
X54500000Y-52251901D03*
X54500000Y-57251901D03*
X67000000Y-52251901D03*
X67000000Y-57251901D03*
D12*
X75975000Y-84698099D03*
D13*
X78475000Y-84698099D03*
X80975000Y-84698099D03*
D14*
X74075000Y-77698099D03*
X82875000Y-77698099D03*
D10*
X108154167Y-122898099D03*
X108154167Y-131898099D03*
D11*
X101904167Y-124898099D03*
X101904167Y-129898099D03*
X114404167Y-124898099D03*
X114404167Y-129898099D03*
D10*
X60750000Y-31692642D03*
X60750000Y-40692642D03*
D11*
X54500000Y-33692642D03*
X54500000Y-38692642D03*
X67000000Y-33692642D03*
X67000000Y-38692642D03*
D12*
X93700000Y-60050000D03*
D13*
X96200000Y-60050000D03*
X98700000Y-60050000D03*
D14*
X91800000Y-53050000D03*
X100600000Y-53050000D03*
D12*
X141562597Y-91850000D03*
D13*
X144062597Y-91850000D03*
X146562597Y-91850000D03*
D14*
X139662597Y-84850000D03*
X148462597Y-84850000D03*
D10*
X81538889Y-139000000D03*
X81538889Y-148000000D03*
D11*
X75288889Y-141000000D03*
X75288889Y-146000000D03*
X87788889Y-141000000D03*
X87788889Y-146000000D03*
D10*
X204000000Y-94251901D03*
X204000000Y-103251901D03*
D11*
X197750000Y-96251901D03*
X197750000Y-101251901D03*
X210250000Y-96251901D03*
X210250000Y-101251901D03*
D15*
X190000000Y-119000000D03*
X76000000Y-127000000D03*
D12*
X185500000Y-112200000D03*
D13*
X188000000Y-112200000D03*
X190500000Y-112200000D03*
D14*
X183600000Y-105200000D03*
X192400000Y-105200000D03*
D10*
X136001214Y-65150000D03*
X136001214Y-74150000D03*
D11*
X129751214Y-67150000D03*
X129751214Y-72150000D03*
X142251214Y-67150000D03*
X142251214Y-72150000D03*
D12*
X171400000Y-75050000D03*
D13*
X173900000Y-75050000D03*
X176400000Y-75050000D03*
D14*
X169500000Y-68050000D03*
X178300000Y-68050000D03*
D10*
X152512963Y-139000000D03*
X152512963Y-148000000D03*
D11*
X146262963Y-141000000D03*
X146262963Y-146000000D03*
X158762963Y-141000000D03*
X158762963Y-146000000D03*
D10*
X60750000Y-74900000D03*
X60750000Y-83900000D03*
D11*
X54500000Y-76900000D03*
X54500000Y-81900000D03*
X67000000Y-76900000D03*
X67000000Y-81900000D03*
D10*
X119878448Y-65150000D03*
X119878448Y-74150000D03*
D11*
X113628448Y-67150000D03*
X113628448Y-72150000D03*
X126128448Y-67150000D03*
X126128448Y-72150000D03*
D10*
X125897685Y-122898099D03*
X125897685Y-131898099D03*
D11*
X119647685Y-124898099D03*
X119647685Y-129898099D03*
X132147685Y-124898099D03*
X132147685Y-129898099D03*
D10*
X60750000Y-122898099D03*
X60750000Y-131898099D03*
D11*
X54500000Y-124898099D03*
X54500000Y-129898099D03*
X67000000Y-124898099D03*
X67000000Y-129898099D03*
D15*
X58000000Y-92000000D03*
D10*
X78475000Y-31692642D03*
X78475000Y-40692642D03*
D11*
X72225000Y-33692642D03*
X72225000Y-38692642D03*
X84725000Y-33692642D03*
X84725000Y-38692642D03*
D12*
X225500000Y-75050000D03*
D13*
X228000000Y-75050000D03*
X230500000Y-75050000D03*
D14*
X223600000Y-68050000D03*
X232400000Y-68050000D03*
D10*
X179128241Y-122898099D03*
X179128241Y-131898099D03*
D11*
X172878241Y-124898099D03*
X172878241Y-129898099D03*
X185378241Y-124898099D03*
X185378241Y-129898099D03*
D12*
X187500000Y-75050000D03*
D13*
X190000000Y-75050000D03*
X192500000Y-75050000D03*
D14*
X185600000Y-68050000D03*
X194400000Y-68050000D03*
D12*
X93700000Y-41633642D03*
D13*
X96200000Y-41633642D03*
X98700000Y-41633642D03*
D14*
X91800000Y-34633642D03*
X100600000Y-34633642D03*
D16*
X229000000Y-81095000D03*
X226460000Y-81095000D03*
D10*
X170256481Y-139000000D03*
X170256481Y-148000000D03*
D11*
X164006481Y-141000000D03*
X164006481Y-146000000D03*
X176506481Y-141000000D03*
X176506481Y-146000000D03*
D12*
X93700000Y-84698099D03*
D13*
X96200000Y-84698099D03*
X98700000Y-84698099D03*
D14*
X91800000Y-77698099D03*
X100600000Y-77698099D03*
D12*
X109317066Y-91850000D03*
D13*
X111817066Y-91850000D03*
X114317066Y-91850000D03*
D14*
X107417066Y-84850000D03*
X116217066Y-84850000D03*
D17*
X132190000Y-33333099D03*
D16*
X134730000Y-33333099D03*
X137270000Y-33333099D03*
X139810000Y-33333099D03*
D10*
X143641204Y-122898099D03*
X143641204Y-131898099D03*
D11*
X137391204Y-124898099D03*
X137391204Y-129898099D03*
X149891204Y-124898099D03*
X149891204Y-129898099D03*
D17*
X167346896Y-39318099D03*
D16*
X167346896Y-41858099D03*
X167346896Y-44398099D03*
X167346896Y-46938099D03*
X167346896Y-49478099D03*
D15*
X232000000Y-90000000D03*
D10*
X90410648Y-122898099D03*
X90410648Y-131898099D03*
D11*
X84160648Y-124898099D03*
X84160648Y-129898099D03*
X96660648Y-124898099D03*
X96660648Y-129898099D03*
D10*
X134769444Y-139000000D03*
X134769444Y-148000000D03*
D11*
X128519444Y-141000000D03*
X128519444Y-146000000D03*
X141019444Y-141000000D03*
X141019444Y-146000000D03*
D12*
X148864832Y-74948099D03*
D13*
X151364832Y-74948099D03*
X153864832Y-74948099D03*
D14*
X146964832Y-67948099D03*
X155764832Y-67948099D03*
D12*
X156167066Y-91850000D03*
D13*
X158667066Y-91850000D03*
X161167066Y-91850000D03*
D14*
X154267066Y-84850000D03*
X163067066Y-84850000D03*
D10*
X60750000Y-139000000D03*
X60750000Y-148000000D03*
D11*
X54500000Y-141000000D03*
X54500000Y-146000000D03*
X67000000Y-141000000D03*
X67000000Y-146000000D03*
D10*
X99282407Y-139000000D03*
X99282407Y-148000000D03*
D11*
X93032407Y-141000000D03*
X93032407Y-146000000D03*
X105532407Y-141000000D03*
X105532407Y-146000000D03*
D12*
X125439832Y-91850000D03*
D13*
X127939832Y-91850000D03*
X130439832Y-91850000D03*
D14*
X123539832Y-84850000D03*
X132339832Y-84850000D03*
D12*
X75975000Y-60050000D03*
D13*
X78475000Y-60050000D03*
X80975000Y-60050000D03*
D14*
X74075000Y-53050000D03*
X82875000Y-53050000D03*
D15*
X155000000Y-35000000D03*
D12*
X185500000Y-95900000D03*
D13*
X188000000Y-95900000D03*
X190500000Y-95900000D03*
D14*
X183600000Y-88900000D03*
X192400000Y-88900000D03*
D10*
X161384722Y-122898099D03*
X161384722Y-131898099D03*
D11*
X155134722Y-124898099D03*
X155134722Y-129898099D03*
X167634722Y-124898099D03*
X167634722Y-129898099D03*
D10*
X188000000Y-139000000D03*
X188000000Y-148000000D03*
D11*
X181750000Y-141000000D03*
X181750000Y-146000000D03*
X194250000Y-141000000D03*
X194250000Y-146000000D03*
D17*
X222000000Y-114490000D03*
D16*
X222000000Y-117030000D03*
X222000000Y-119570000D03*
X222000000Y-122110000D03*
X222000000Y-124650000D03*
X222000000Y-127190000D03*
X222000000Y-129730000D03*
X222000000Y-132270000D03*
X222000000Y-134810000D03*
X222000000Y-137350000D03*
X222000000Y-139890000D03*
X222000000Y-142430000D03*
X222000000Y-144970000D03*
X222000000Y-147510000D03*
X206760000Y-147510000D03*
X206760000Y-144970000D03*
X206760000Y-142430000D03*
X206760000Y-139890000D03*
X206760000Y-137350000D03*
X206760000Y-134810000D03*
X206760000Y-132270000D03*
X206760000Y-129730000D03*
X206760000Y-127190000D03*
X206760000Y-124650000D03*
X206760000Y-122110000D03*
X206760000Y-119570000D03*
X206760000Y-117030000D03*
X206760000Y-114490000D03*
X200410000Y-128460000D03*
X202950000Y-128460000D03*
X200410000Y-125920000D03*
X202950000Y-125920000D03*
X200410000Y-131000000D03*
X202950000Y-133540000D03*
X202950000Y-136080000D03*
X200410000Y-136080000D03*
D18*
X228508000Y-36060000D03*
X228508000Y-30060000D03*
D19*
X233208000Y-33060000D03*
D17*
X202660000Y-82460000D03*
D16*
X202660000Y-79920000D03*
X202660000Y-77380000D03*
X202660000Y-74840000D03*
X202660000Y-72300000D03*
X202660000Y-69760000D03*
X202660000Y-67220000D03*
X202660000Y-64680000D03*
X202660000Y-62140000D03*
X202660000Y-59600000D03*
X202660000Y-57060000D03*
X202660000Y-54520000D03*
X202660000Y-51980000D03*
X202660000Y-49440000D03*
X202660000Y-46900000D03*
X202660000Y-44360000D03*
X202660000Y-41820000D03*
X202660000Y-39280000D03*
X202660000Y-36740000D03*
X202660000Y-34200000D03*
X202660000Y-31660000D03*
X202660000Y-29120000D03*
X202660000Y-26580000D03*
X202660000Y-24040000D03*
X217900000Y-24000000D03*
X217900000Y-26540000D03*
X217900000Y-29080000D03*
X217900000Y-31620000D03*
X217900000Y-34160000D03*
X217900000Y-36700000D03*
X217900000Y-39240000D03*
X217900000Y-41780000D03*
X217900000Y-44320000D03*
X217900000Y-46860000D03*
X217900000Y-49400000D03*
X217900000Y-51940000D03*
X217900000Y-54480000D03*
X217900000Y-57020000D03*
X217900000Y-59560000D03*
X217900000Y-62100000D03*
X217900000Y-64640000D03*
X217900000Y-67180000D03*
X217900000Y-69720000D03*
X217900000Y-72260000D03*
X217900000Y-74800000D03*
X217900000Y-77340000D03*
X217900000Y-79880000D03*
X217900000Y-82420000D03*
X193270000Y-125825000D03*
X190730000Y-125825000D03*
X164510000Y-114238917D03*
X167050000Y-114238917D03*
X164510000Y-111698917D03*
X167050000Y-111698917D03*
X164510000Y-109158917D03*
X167050000Y-109158917D03*
X164510000Y-106618917D03*
X167050000Y-106618917D03*
X164510000Y-104078917D03*
X167050000Y-104078917D03*
X164510000Y-101538917D03*
X167050000Y-101538917D03*
X164510000Y-98998917D03*
D17*
X167050000Y-98998917D03*
D16*
X155620000Y-98998917D03*
X153080000Y-98998917D03*
X150540000Y-98998917D03*
X148000000Y-98998917D03*
X145460000Y-98998917D03*
X142920000Y-98998917D03*
X140380000Y-98998917D03*
X137840000Y-98998917D03*
X135300000Y-98998917D03*
D17*
X132760000Y-98998917D03*
X130220000Y-98998917D03*
D16*
X127680000Y-98998917D03*
X125140000Y-98998917D03*
X122600000Y-98998917D03*
X120060000Y-98998917D03*
X117520000Y-98998917D03*
X114980000Y-98998917D03*
X112440000Y-98998917D03*
X109900000Y-98998917D03*
X107360000Y-98998917D03*
X58060000Y-99000000D03*
X60600000Y-99000000D03*
X63140000Y-99000000D03*
X65680000Y-99000000D03*
X68220000Y-99000000D03*
X70760000Y-99000000D03*
X73300000Y-99000000D03*
X75840000Y-99000000D03*
X78380000Y-99000000D03*
X80920000Y-99000000D03*
X83460000Y-99000000D03*
X86000000Y-99000000D03*
X88540000Y-99000000D03*
X91080000Y-99000000D03*
X93620000Y-99000000D03*
X96160000Y-99000000D03*
D17*
X86000000Y-114240000D03*
D16*
X83460000Y-114240000D03*
X80920000Y-114240000D03*
X78380000Y-114240000D03*
X75840000Y-114240000D03*
X73300000Y-114240000D03*
X70760000Y-114240000D03*
X68220000Y-114240000D03*
M02*
