G04 #@! TF.GenerationSoftware,KiCad,Pcbnew,10.0.3*
G04 #@! TF.CreationDate,2026-07-30T11:49:40-07:00*
G04 #@! TF.ProjectId,726-DSSI,3732362d-4453-4534-992e-6b696361645f,rev?*
G04 #@! TF.SameCoordinates,Original*
G04 #@! TF.FileFunction,Legend,Top*
G04 #@! TF.FilePolarity,Positive*
%FSLAX46Y46*%
G04 Gerber Fmt 4.6, Leading zero omitted, Abs format (unit mm)*
G04 Created by KiCad (PCBNEW 10.0.3) date 2026-07-30 11:49:40*
%MOMM*%
%LPD*%
G01*
G04 APERTURE LIST*
G04 Aperture macros list*
%AMRoundRect*
0 Rectangle with rounded corners*
0 $1 Rounding radius*
0 $2 $3 $4 $5 $6 $7 $8 $9 X,Y pos of 4 corners*
0 Add a 4 corners polygon primitive as box body*
4,1,4,$2,$3,$4,$5,$6,$7,$8,$9,$2,$3,0*
0 Add four circle primitives for the rounded corners*
1,1,$1+$1,$2,$3*
1,1,$1+$1,$4,$5*
1,1,$1+$1,$6,$7*
1,1,$1+$1,$8,$9*
0 Add four rect primitives between the rounded corners*
20,1,$1+$1,$2,$3,$4,$5,0*
20,1,$1+$1,$4,$5,$6,$7,0*
20,1,$1+$1,$6,$7,$8,$9,0*
20,1,$1+$1,$8,$9,$2,$3,0*%
G04 Aperture macros list end*
%ADD10C,0.100000*%
%ADD11C,0.150000*%
%ADD12C,0.152400*%
%ADD13C,0.254000*%
%ADD14C,0.120000*%
%ADD15C,1.799996*%
%ADD16C,1.707896*%
%ADD17R,1.800000X1.800000*%
%ADD18C,1.800000*%
%ADD19RoundRect,0.750000X0.750000X-1.250000X0.750000X1.250000X-0.750000X1.250000X-0.750000X-1.250000X0*%
%ADD20C,3.200000*%
%ADD21C,2.000000*%
%ADD22R,2.000000X2.000000*%
%ADD23O,3.220000X1.712000*%
%ADD24O,1.712000X3.220000*%
G04 APERTURE END LIST*
D10*
X128303884Y-45872419D02*
X128303884Y-44872419D01*
X128303884Y-45348609D02*
X128875312Y-45348609D01*
X128875312Y-45872419D02*
X128875312Y-44872419D01*
X129494360Y-45872419D02*
X129399122Y-45824800D01*
X129399122Y-45824800D02*
X129351503Y-45777180D01*
X129351503Y-45777180D02*
X129303884Y-45681942D01*
X129303884Y-45681942D02*
X129303884Y-45396228D01*
X129303884Y-45396228D02*
X129351503Y-45300990D01*
X129351503Y-45300990D02*
X129399122Y-45253371D01*
X129399122Y-45253371D02*
X129494360Y-45205752D01*
X129494360Y-45205752D02*
X129637217Y-45205752D01*
X129637217Y-45205752D02*
X129732455Y-45253371D01*
X129732455Y-45253371D02*
X129780074Y-45300990D01*
X129780074Y-45300990D02*
X129827693Y-45396228D01*
X129827693Y-45396228D02*
X129827693Y-45681942D01*
X129827693Y-45681942D02*
X129780074Y-45777180D01*
X129780074Y-45777180D02*
X129732455Y-45824800D01*
X129732455Y-45824800D02*
X129637217Y-45872419D01*
X129637217Y-45872419D02*
X129494360Y-45872419D01*
X130208646Y-45824800D02*
X130303884Y-45872419D01*
X130303884Y-45872419D02*
X130494360Y-45872419D01*
X130494360Y-45872419D02*
X130589598Y-45824800D01*
X130589598Y-45824800D02*
X130637217Y-45729561D01*
X130637217Y-45729561D02*
X130637217Y-45681942D01*
X130637217Y-45681942D02*
X130589598Y-45586704D01*
X130589598Y-45586704D02*
X130494360Y-45539085D01*
X130494360Y-45539085D02*
X130351503Y-45539085D01*
X130351503Y-45539085D02*
X130256265Y-45491466D01*
X130256265Y-45491466D02*
X130208646Y-45396228D01*
X130208646Y-45396228D02*
X130208646Y-45348609D01*
X130208646Y-45348609D02*
X130256265Y-45253371D01*
X130256265Y-45253371D02*
X130351503Y-45205752D01*
X130351503Y-45205752D02*
X130494360Y-45205752D01*
X130494360Y-45205752D02*
X130589598Y-45253371D01*
X130970551Y-45205752D02*
X131208646Y-45872419D01*
X131446741Y-45205752D02*
X131208646Y-45872419D01*
X131208646Y-45872419D02*
X131113408Y-46110514D01*
X131113408Y-46110514D02*
X131065789Y-46158133D01*
X131065789Y-46158133D02*
X130970551Y-46205752D01*
X131970551Y-45872419D02*
X131875313Y-45824800D01*
X131875313Y-45824800D02*
X131827694Y-45777180D01*
X131827694Y-45777180D02*
X131780075Y-45681942D01*
X131780075Y-45681942D02*
X131780075Y-45396228D01*
X131780075Y-45396228D02*
X131827694Y-45300990D01*
X131827694Y-45300990D02*
X131875313Y-45253371D01*
X131875313Y-45253371D02*
X131970551Y-45205752D01*
X131970551Y-45205752D02*
X132113408Y-45205752D01*
X132113408Y-45205752D02*
X132208646Y-45253371D01*
X132208646Y-45253371D02*
X132256265Y-45300990D01*
X132256265Y-45300990D02*
X132303884Y-45396228D01*
X132303884Y-45396228D02*
X132303884Y-45681942D01*
X132303884Y-45681942D02*
X132256265Y-45777180D01*
X132256265Y-45777180D02*
X132208646Y-45824800D01*
X132208646Y-45824800D02*
X132113408Y-45872419D01*
X132113408Y-45872419D02*
X131970551Y-45872419D01*
X132732456Y-45205752D02*
X132732456Y-45872419D01*
X132732456Y-45300990D02*
X132780075Y-45253371D01*
X132780075Y-45253371D02*
X132875313Y-45205752D01*
X132875313Y-45205752D02*
X133018170Y-45205752D01*
X133018170Y-45205752D02*
X133113408Y-45253371D01*
X133113408Y-45253371D02*
X133161027Y-45348609D01*
X133161027Y-45348609D02*
X133161027Y-45872419D01*
X134065789Y-45872419D02*
X134065789Y-44872419D01*
X134065789Y-45824800D02*
X133970551Y-45872419D01*
X133970551Y-45872419D02*
X133780075Y-45872419D01*
X133780075Y-45872419D02*
X133684837Y-45824800D01*
X133684837Y-45824800D02*
X133637218Y-45777180D01*
X133637218Y-45777180D02*
X133589599Y-45681942D01*
X133589599Y-45681942D02*
X133589599Y-45396228D01*
X133589599Y-45396228D02*
X133637218Y-45300990D01*
X133637218Y-45300990D02*
X133684837Y-45253371D01*
X133684837Y-45253371D02*
X133780075Y-45205752D01*
X133780075Y-45205752D02*
X133970551Y-45205752D01*
X133970551Y-45205752D02*
X134065789Y-45253371D01*
X135494361Y-44872419D02*
X135684837Y-44872419D01*
X135684837Y-44872419D02*
X135780075Y-44920038D01*
X135780075Y-44920038D02*
X135875313Y-45015276D01*
X135875313Y-45015276D02*
X135922932Y-45205752D01*
X135922932Y-45205752D02*
X135922932Y-45539085D01*
X135922932Y-45539085D02*
X135875313Y-45729561D01*
X135875313Y-45729561D02*
X135780075Y-45824800D01*
X135780075Y-45824800D02*
X135684837Y-45872419D01*
X135684837Y-45872419D02*
X135494361Y-45872419D01*
X135494361Y-45872419D02*
X135399123Y-45824800D01*
X135399123Y-45824800D02*
X135303885Y-45729561D01*
X135303885Y-45729561D02*
X135256266Y-45539085D01*
X135256266Y-45539085D02*
X135256266Y-45205752D01*
X135256266Y-45205752D02*
X135303885Y-45015276D01*
X135303885Y-45015276D02*
X135399123Y-44920038D01*
X135399123Y-44920038D02*
X135494361Y-44872419D01*
X136827694Y-45872419D02*
X136351504Y-45872419D01*
X136351504Y-45872419D02*
X136351504Y-44872419D01*
X137161028Y-45348609D02*
X137494361Y-45348609D01*
X137637218Y-45872419D02*
X137161028Y-45872419D01*
X137161028Y-45872419D02*
X137161028Y-44872419D01*
X137161028Y-44872419D02*
X137637218Y-44872419D01*
X138065790Y-45872419D02*
X138065790Y-44872419D01*
X138065790Y-44872419D02*
X138303885Y-44872419D01*
X138303885Y-44872419D02*
X138446742Y-44920038D01*
X138446742Y-44920038D02*
X138541980Y-45015276D01*
X138541980Y-45015276D02*
X138589599Y-45110514D01*
X138589599Y-45110514D02*
X138637218Y-45300990D01*
X138637218Y-45300990D02*
X138637218Y-45443847D01*
X138637218Y-45443847D02*
X138589599Y-45634323D01*
X138589599Y-45634323D02*
X138541980Y-45729561D01*
X138541980Y-45729561D02*
X138446742Y-45824800D01*
X138446742Y-45824800D02*
X138303885Y-45872419D01*
X138303885Y-45872419D02*
X138065790Y-45872419D01*
X139827695Y-45872419D02*
X139827695Y-44872419D01*
X139827695Y-44872419D02*
X140065790Y-44872419D01*
X140065790Y-44872419D02*
X140208647Y-44920038D01*
X140208647Y-44920038D02*
X140303885Y-45015276D01*
X140303885Y-45015276D02*
X140351504Y-45110514D01*
X140351504Y-45110514D02*
X140399123Y-45300990D01*
X140399123Y-45300990D02*
X140399123Y-45443847D01*
X140399123Y-45443847D02*
X140351504Y-45634323D01*
X140351504Y-45634323D02*
X140303885Y-45729561D01*
X140303885Y-45729561D02*
X140208647Y-45824800D01*
X140208647Y-45824800D02*
X140065790Y-45872419D01*
X140065790Y-45872419D02*
X139827695Y-45872419D01*
X140827695Y-45872419D02*
X140827695Y-45205752D01*
X140827695Y-44872419D02*
X140780076Y-44920038D01*
X140780076Y-44920038D02*
X140827695Y-44967657D01*
X140827695Y-44967657D02*
X140875314Y-44920038D01*
X140875314Y-44920038D02*
X140827695Y-44872419D01*
X140827695Y-44872419D02*
X140827695Y-44967657D01*
X141256266Y-45824800D02*
X141351504Y-45872419D01*
X141351504Y-45872419D02*
X141541980Y-45872419D01*
X141541980Y-45872419D02*
X141637218Y-45824800D01*
X141637218Y-45824800D02*
X141684837Y-45729561D01*
X141684837Y-45729561D02*
X141684837Y-45681942D01*
X141684837Y-45681942D02*
X141637218Y-45586704D01*
X141637218Y-45586704D02*
X141541980Y-45539085D01*
X141541980Y-45539085D02*
X141399123Y-45539085D01*
X141399123Y-45539085D02*
X141303885Y-45491466D01*
X141303885Y-45491466D02*
X141256266Y-45396228D01*
X141256266Y-45396228D02*
X141256266Y-45348609D01*
X141256266Y-45348609D02*
X141303885Y-45253371D01*
X141303885Y-45253371D02*
X141399123Y-45205752D01*
X141399123Y-45205752D02*
X141541980Y-45205752D01*
X141541980Y-45205752D02*
X141637218Y-45253371D01*
X142113409Y-45205752D02*
X142113409Y-46205752D01*
X142113409Y-45253371D02*
X142208647Y-45205752D01*
X142208647Y-45205752D02*
X142399123Y-45205752D01*
X142399123Y-45205752D02*
X142494361Y-45253371D01*
X142494361Y-45253371D02*
X142541980Y-45300990D01*
X142541980Y-45300990D02*
X142589599Y-45396228D01*
X142589599Y-45396228D02*
X142589599Y-45681942D01*
X142589599Y-45681942D02*
X142541980Y-45777180D01*
X142541980Y-45777180D02*
X142494361Y-45824800D01*
X142494361Y-45824800D02*
X142399123Y-45872419D01*
X142399123Y-45872419D02*
X142208647Y-45872419D01*
X142208647Y-45872419D02*
X142113409Y-45824800D01*
X143161028Y-45872419D02*
X143065790Y-45824800D01*
X143065790Y-45824800D02*
X143018171Y-45729561D01*
X143018171Y-45729561D02*
X143018171Y-44872419D01*
X143970552Y-45872419D02*
X143970552Y-45348609D01*
X143970552Y-45348609D02*
X143922933Y-45253371D01*
X143922933Y-45253371D02*
X143827695Y-45205752D01*
X143827695Y-45205752D02*
X143637219Y-45205752D01*
X143637219Y-45205752D02*
X143541981Y-45253371D01*
X143970552Y-45824800D02*
X143875314Y-45872419D01*
X143875314Y-45872419D02*
X143637219Y-45872419D01*
X143637219Y-45872419D02*
X143541981Y-45824800D01*
X143541981Y-45824800D02*
X143494362Y-45729561D01*
X143494362Y-45729561D02*
X143494362Y-45634323D01*
X143494362Y-45634323D02*
X143541981Y-45539085D01*
X143541981Y-45539085D02*
X143637219Y-45491466D01*
X143637219Y-45491466D02*
X143875314Y-45491466D01*
X143875314Y-45491466D02*
X143970552Y-45443847D01*
X144351505Y-45205752D02*
X144589600Y-45872419D01*
X144827695Y-45205752D02*
X144589600Y-45872419D01*
X144589600Y-45872419D02*
X144494362Y-46110514D01*
X144494362Y-46110514D02*
X144446743Y-46158133D01*
X144446743Y-46158133D02*
X144351505Y-46205752D01*
X174203384Y-45872419D02*
X174203384Y-44872419D01*
X174203384Y-44872419D02*
X174536717Y-45586704D01*
X174536717Y-45586704D02*
X174870050Y-44872419D01*
X174870050Y-44872419D02*
X174870050Y-45872419D01*
X175298622Y-45586704D02*
X175774812Y-45586704D01*
X175203384Y-45872419D02*
X175536717Y-44872419D01*
X175536717Y-44872419D02*
X175870050Y-45872419D01*
X176108146Y-44872419D02*
X176774812Y-45872419D01*
X176774812Y-44872419D02*
X176108146Y-45872419D01*
X177060527Y-44872419D02*
X177727193Y-44872419D01*
X177727193Y-44872419D02*
X177298622Y-45872419D01*
X178060527Y-44967657D02*
X178108146Y-44920038D01*
X178108146Y-44920038D02*
X178203384Y-44872419D01*
X178203384Y-44872419D02*
X178441479Y-44872419D01*
X178441479Y-44872419D02*
X178536717Y-44920038D01*
X178536717Y-44920038D02*
X178584336Y-44967657D01*
X178584336Y-44967657D02*
X178631955Y-45062895D01*
X178631955Y-45062895D02*
X178631955Y-45158133D01*
X178631955Y-45158133D02*
X178584336Y-45300990D01*
X178584336Y-45300990D02*
X178012908Y-45872419D01*
X178012908Y-45872419D02*
X178631955Y-45872419D01*
X179584336Y-45872419D02*
X179012908Y-45872419D01*
X179298622Y-45872419D02*
X179298622Y-44872419D01*
X179298622Y-44872419D02*
X179203384Y-45015276D01*
X179203384Y-45015276D02*
X179108146Y-45110514D01*
X179108146Y-45110514D02*
X179012908Y-45158133D01*
X180060527Y-45872419D02*
X180251003Y-45872419D01*
X180251003Y-45872419D02*
X180346241Y-45824800D01*
X180346241Y-45824800D02*
X180393860Y-45777180D01*
X180393860Y-45777180D02*
X180489098Y-45634323D01*
X180489098Y-45634323D02*
X180536717Y-45443847D01*
X180536717Y-45443847D02*
X180536717Y-45062895D01*
X180536717Y-45062895D02*
X180489098Y-44967657D01*
X180489098Y-44967657D02*
X180441479Y-44920038D01*
X180441479Y-44920038D02*
X180346241Y-44872419D01*
X180346241Y-44872419D02*
X180155765Y-44872419D01*
X180155765Y-44872419D02*
X180060527Y-44920038D01*
X180060527Y-44920038D02*
X180012908Y-44967657D01*
X180012908Y-44967657D02*
X179965289Y-45062895D01*
X179965289Y-45062895D02*
X179965289Y-45300990D01*
X179965289Y-45300990D02*
X180012908Y-45396228D01*
X180012908Y-45396228D02*
X180060527Y-45443847D01*
X180060527Y-45443847D02*
X180155765Y-45491466D01*
X180155765Y-45491466D02*
X180346241Y-45491466D01*
X180346241Y-45491466D02*
X180441479Y-45443847D01*
X180441479Y-45443847D02*
X180489098Y-45396228D01*
X180489098Y-45396228D02*
X180536717Y-45300990D01*
X181727194Y-45872419D02*
X181727194Y-44872419D01*
X181727194Y-44872419D02*
X181965289Y-44872419D01*
X181965289Y-44872419D02*
X182108146Y-44920038D01*
X182108146Y-44920038D02*
X182203384Y-45015276D01*
X182203384Y-45015276D02*
X182251003Y-45110514D01*
X182251003Y-45110514D02*
X182298622Y-45300990D01*
X182298622Y-45300990D02*
X182298622Y-45443847D01*
X182298622Y-45443847D02*
X182251003Y-45634323D01*
X182251003Y-45634323D02*
X182203384Y-45729561D01*
X182203384Y-45729561D02*
X182108146Y-45824800D01*
X182108146Y-45824800D02*
X181965289Y-45872419D01*
X181965289Y-45872419D02*
X181727194Y-45872419D01*
X182870051Y-45872419D02*
X182774813Y-45824800D01*
X182774813Y-45824800D02*
X182727194Y-45777180D01*
X182727194Y-45777180D02*
X182679575Y-45681942D01*
X182679575Y-45681942D02*
X182679575Y-45396228D01*
X182679575Y-45396228D02*
X182727194Y-45300990D01*
X182727194Y-45300990D02*
X182774813Y-45253371D01*
X182774813Y-45253371D02*
X182870051Y-45205752D01*
X182870051Y-45205752D02*
X183012908Y-45205752D01*
X183012908Y-45205752D02*
X183108146Y-45253371D01*
X183108146Y-45253371D02*
X183155765Y-45300990D01*
X183155765Y-45300990D02*
X183203384Y-45396228D01*
X183203384Y-45396228D02*
X183203384Y-45681942D01*
X183203384Y-45681942D02*
X183155765Y-45777180D01*
X183155765Y-45777180D02*
X183108146Y-45824800D01*
X183108146Y-45824800D02*
X183012908Y-45872419D01*
X183012908Y-45872419D02*
X182870051Y-45872419D01*
X183489099Y-45205752D02*
X183870051Y-45205752D01*
X183631956Y-44872419D02*
X183631956Y-45729561D01*
X183631956Y-45729561D02*
X183679575Y-45824800D01*
X183679575Y-45824800D02*
X183774813Y-45872419D01*
X183774813Y-45872419D02*
X183870051Y-45872419D01*
X184965290Y-45872419D02*
X184965290Y-44872419D01*
X184965290Y-44872419D02*
X185298623Y-45586704D01*
X185298623Y-45586704D02*
X185631956Y-44872419D01*
X185631956Y-44872419D02*
X185631956Y-45872419D01*
X186536718Y-45872419D02*
X186536718Y-45348609D01*
X186536718Y-45348609D02*
X186489099Y-45253371D01*
X186489099Y-45253371D02*
X186393861Y-45205752D01*
X186393861Y-45205752D02*
X186203385Y-45205752D01*
X186203385Y-45205752D02*
X186108147Y-45253371D01*
X186536718Y-45824800D02*
X186441480Y-45872419D01*
X186441480Y-45872419D02*
X186203385Y-45872419D01*
X186203385Y-45872419D02*
X186108147Y-45824800D01*
X186108147Y-45824800D02*
X186060528Y-45729561D01*
X186060528Y-45729561D02*
X186060528Y-45634323D01*
X186060528Y-45634323D02*
X186108147Y-45539085D01*
X186108147Y-45539085D02*
X186203385Y-45491466D01*
X186203385Y-45491466D02*
X186441480Y-45491466D01*
X186441480Y-45491466D02*
X186536718Y-45443847D01*
X186870052Y-45205752D02*
X187251004Y-45205752D01*
X187012909Y-44872419D02*
X187012909Y-45729561D01*
X187012909Y-45729561D02*
X187060528Y-45824800D01*
X187060528Y-45824800D02*
X187155766Y-45872419D01*
X187155766Y-45872419D02*
X187251004Y-45872419D01*
X187584338Y-45872419D02*
X187584338Y-45205752D01*
X187584338Y-45396228D02*
X187631957Y-45300990D01*
X187631957Y-45300990D02*
X187679576Y-45253371D01*
X187679576Y-45253371D02*
X187774814Y-45205752D01*
X187774814Y-45205752D02*
X187870052Y-45205752D01*
X188203386Y-45872419D02*
X188203386Y-45205752D01*
X188203386Y-44872419D02*
X188155767Y-44920038D01*
X188155767Y-44920038D02*
X188203386Y-44967657D01*
X188203386Y-44967657D02*
X188251005Y-44920038D01*
X188251005Y-44920038D02*
X188203386Y-44872419D01*
X188203386Y-44872419D02*
X188203386Y-44967657D01*
X188584338Y-45872419D02*
X189108147Y-45205752D01*
X188584338Y-45205752D02*
X189108147Y-45872419D01*
X190251005Y-45872419D02*
X190251005Y-44872419D01*
X190251005Y-44872419D02*
X190489100Y-44872419D01*
X190489100Y-44872419D02*
X190631957Y-44920038D01*
X190631957Y-44920038D02*
X190727195Y-45015276D01*
X190727195Y-45015276D02*
X190774814Y-45110514D01*
X190774814Y-45110514D02*
X190822433Y-45300990D01*
X190822433Y-45300990D02*
X190822433Y-45443847D01*
X190822433Y-45443847D02*
X190774814Y-45634323D01*
X190774814Y-45634323D02*
X190727195Y-45729561D01*
X190727195Y-45729561D02*
X190631957Y-45824800D01*
X190631957Y-45824800D02*
X190489100Y-45872419D01*
X190489100Y-45872419D02*
X190251005Y-45872419D01*
X191251005Y-45872419D02*
X191251005Y-45205752D01*
X191251005Y-44872419D02*
X191203386Y-44920038D01*
X191203386Y-44920038D02*
X191251005Y-44967657D01*
X191251005Y-44967657D02*
X191298624Y-44920038D01*
X191298624Y-44920038D02*
X191251005Y-44872419D01*
X191251005Y-44872419D02*
X191251005Y-44967657D01*
X191679576Y-45824800D02*
X191774814Y-45872419D01*
X191774814Y-45872419D02*
X191965290Y-45872419D01*
X191965290Y-45872419D02*
X192060528Y-45824800D01*
X192060528Y-45824800D02*
X192108147Y-45729561D01*
X192108147Y-45729561D02*
X192108147Y-45681942D01*
X192108147Y-45681942D02*
X192060528Y-45586704D01*
X192060528Y-45586704D02*
X191965290Y-45539085D01*
X191965290Y-45539085D02*
X191822433Y-45539085D01*
X191822433Y-45539085D02*
X191727195Y-45491466D01*
X191727195Y-45491466D02*
X191679576Y-45396228D01*
X191679576Y-45396228D02*
X191679576Y-45348609D01*
X191679576Y-45348609D02*
X191727195Y-45253371D01*
X191727195Y-45253371D02*
X191822433Y-45205752D01*
X191822433Y-45205752D02*
X191965290Y-45205752D01*
X191965290Y-45205752D02*
X192060528Y-45253371D01*
X192536719Y-45205752D02*
X192536719Y-46205752D01*
X192536719Y-45253371D02*
X192631957Y-45205752D01*
X192631957Y-45205752D02*
X192822433Y-45205752D01*
X192822433Y-45205752D02*
X192917671Y-45253371D01*
X192917671Y-45253371D02*
X192965290Y-45300990D01*
X192965290Y-45300990D02*
X193012909Y-45396228D01*
X193012909Y-45396228D02*
X193012909Y-45681942D01*
X193012909Y-45681942D02*
X192965290Y-45777180D01*
X192965290Y-45777180D02*
X192917671Y-45824800D01*
X192917671Y-45824800D02*
X192822433Y-45872419D01*
X192822433Y-45872419D02*
X192631957Y-45872419D01*
X192631957Y-45872419D02*
X192536719Y-45824800D01*
X193584338Y-45872419D02*
X193489100Y-45824800D01*
X193489100Y-45824800D02*
X193441481Y-45729561D01*
X193441481Y-45729561D02*
X193441481Y-44872419D01*
X194393862Y-45872419D02*
X194393862Y-45348609D01*
X194393862Y-45348609D02*
X194346243Y-45253371D01*
X194346243Y-45253371D02*
X194251005Y-45205752D01*
X194251005Y-45205752D02*
X194060529Y-45205752D01*
X194060529Y-45205752D02*
X193965291Y-45253371D01*
X194393862Y-45824800D02*
X194298624Y-45872419D01*
X194298624Y-45872419D02*
X194060529Y-45872419D01*
X194060529Y-45872419D02*
X193965291Y-45824800D01*
X193965291Y-45824800D02*
X193917672Y-45729561D01*
X193917672Y-45729561D02*
X193917672Y-45634323D01*
X193917672Y-45634323D02*
X193965291Y-45539085D01*
X193965291Y-45539085D02*
X194060529Y-45491466D01*
X194060529Y-45491466D02*
X194298624Y-45491466D01*
X194298624Y-45491466D02*
X194393862Y-45443847D01*
X194774815Y-45205752D02*
X195012910Y-45872419D01*
X195251005Y-45205752D02*
X195012910Y-45872419D01*
X195012910Y-45872419D02*
X194917672Y-46110514D01*
X194917672Y-46110514D02*
X194870053Y-46158133D01*
X194870053Y-46158133D02*
X194774815Y-46205752D01*
D11*
X115692593Y-143907200D02*
X115835450Y-143954819D01*
X115835450Y-143954819D02*
X116073545Y-143954819D01*
X116073545Y-143954819D02*
X116168783Y-143907200D01*
X116168783Y-143907200D02*
X116216402Y-143859580D01*
X116216402Y-143859580D02*
X116264021Y-143764342D01*
X116264021Y-143764342D02*
X116264021Y-143669104D01*
X116264021Y-143669104D02*
X116216402Y-143573866D01*
X116216402Y-143573866D02*
X116168783Y-143526247D01*
X116168783Y-143526247D02*
X116073545Y-143478628D01*
X116073545Y-143478628D02*
X115883069Y-143431009D01*
X115883069Y-143431009D02*
X115787831Y-143383390D01*
X115787831Y-143383390D02*
X115740212Y-143335771D01*
X115740212Y-143335771D02*
X115692593Y-143240533D01*
X115692593Y-143240533D02*
X115692593Y-143145295D01*
X115692593Y-143145295D02*
X115740212Y-143050057D01*
X115740212Y-143050057D02*
X115787831Y-143002438D01*
X115787831Y-143002438D02*
X115883069Y-142954819D01*
X115883069Y-142954819D02*
X116121164Y-142954819D01*
X116121164Y-142954819D02*
X116264021Y-143002438D01*
X116597355Y-142954819D02*
X116835450Y-143954819D01*
X116835450Y-143954819D02*
X117025926Y-143240533D01*
X117025926Y-143240533D02*
X117216402Y-143954819D01*
X117216402Y-143954819D02*
X117454498Y-142954819D01*
X118311640Y-142954819D02*
X117835450Y-142954819D01*
X117835450Y-142954819D02*
X117787831Y-143431009D01*
X117787831Y-143431009D02*
X117835450Y-143383390D01*
X117835450Y-143383390D02*
X117930688Y-143335771D01*
X117930688Y-143335771D02*
X118168783Y-143335771D01*
X118168783Y-143335771D02*
X118264021Y-143383390D01*
X118264021Y-143383390D02*
X118311640Y-143431009D01*
X118311640Y-143431009D02*
X118359259Y-143526247D01*
X118359259Y-143526247D02*
X118359259Y-143764342D01*
X118359259Y-143764342D02*
X118311640Y-143859580D01*
X118311640Y-143859580D02*
X118264021Y-143907200D01*
X118264021Y-143907200D02*
X118168783Y-143954819D01*
X118168783Y-143954819D02*
X117930688Y-143954819D01*
X117930688Y-143954819D02*
X117835450Y-143907200D01*
X117835450Y-143907200D02*
X117787831Y-143859580D01*
X58940476Y-55159101D02*
X59083333Y-55206720D01*
X59083333Y-55206720D02*
X59321428Y-55206720D01*
X59321428Y-55206720D02*
X59416666Y-55159101D01*
X59416666Y-55159101D02*
X59464285Y-55111481D01*
X59464285Y-55111481D02*
X59511904Y-55016243D01*
X59511904Y-55016243D02*
X59511904Y-54921005D01*
X59511904Y-54921005D02*
X59464285Y-54825767D01*
X59464285Y-54825767D02*
X59416666Y-54778148D01*
X59416666Y-54778148D02*
X59321428Y-54730529D01*
X59321428Y-54730529D02*
X59130952Y-54682910D01*
X59130952Y-54682910D02*
X59035714Y-54635291D01*
X59035714Y-54635291D02*
X58988095Y-54587672D01*
X58988095Y-54587672D02*
X58940476Y-54492434D01*
X58940476Y-54492434D02*
X58940476Y-54397196D01*
X58940476Y-54397196D02*
X58988095Y-54301958D01*
X58988095Y-54301958D02*
X59035714Y-54254339D01*
X59035714Y-54254339D02*
X59130952Y-54206720D01*
X59130952Y-54206720D02*
X59369047Y-54206720D01*
X59369047Y-54206720D02*
X59511904Y-54254339D01*
X59845238Y-54206720D02*
X60083333Y-55206720D01*
X60083333Y-55206720D02*
X60273809Y-54492434D01*
X60273809Y-54492434D02*
X60464285Y-55206720D01*
X60464285Y-55206720D02*
X60702381Y-54206720D01*
X61607142Y-55206720D02*
X61035714Y-55206720D01*
X61321428Y-55206720D02*
X61321428Y-54206720D01*
X61321428Y-54206720D02*
X61226190Y-54349577D01*
X61226190Y-54349577D02*
X61130952Y-54444815D01*
X61130952Y-54444815D02*
X61035714Y-54492434D01*
X62511904Y-54206720D02*
X62035714Y-54206720D01*
X62035714Y-54206720D02*
X61988095Y-54682910D01*
X61988095Y-54682910D02*
X62035714Y-54635291D01*
X62035714Y-54635291D02*
X62130952Y-54587672D01*
X62130952Y-54587672D02*
X62369047Y-54587672D01*
X62369047Y-54587672D02*
X62464285Y-54635291D01*
X62464285Y-54635291D02*
X62511904Y-54682910D01*
X62511904Y-54682910D02*
X62559523Y-54778148D01*
X62559523Y-54778148D02*
X62559523Y-55016243D01*
X62559523Y-55016243D02*
X62511904Y-55111481D01*
X62511904Y-55111481D02*
X62464285Y-55159101D01*
X62464285Y-55159101D02*
X62369047Y-55206720D01*
X62369047Y-55206720D02*
X62130952Y-55206720D01*
X62130952Y-55206720D02*
X62035714Y-55159101D01*
X62035714Y-55159101D02*
X61988095Y-55111481D01*
X71279819Y-79243337D02*
X70803628Y-79576670D01*
X71279819Y-79814765D02*
X70279819Y-79814765D01*
X70279819Y-79814765D02*
X70279819Y-79433813D01*
X70279819Y-79433813D02*
X70327438Y-79338575D01*
X70327438Y-79338575D02*
X70375057Y-79290956D01*
X70375057Y-79290956D02*
X70470295Y-79243337D01*
X70470295Y-79243337D02*
X70613152Y-79243337D01*
X70613152Y-79243337D02*
X70708390Y-79290956D01*
X70708390Y-79290956D02*
X70756009Y-79338575D01*
X70756009Y-79338575D02*
X70803628Y-79433813D01*
X70803628Y-79433813D02*
X70803628Y-79814765D01*
X70279819Y-78957622D02*
X71279819Y-78624289D01*
X71279819Y-78624289D02*
X70279819Y-78290956D01*
X70279819Y-77481432D02*
X70279819Y-77957622D01*
X70279819Y-77957622D02*
X70756009Y-78005241D01*
X70756009Y-78005241D02*
X70708390Y-77957622D01*
X70708390Y-77957622D02*
X70660771Y-77862384D01*
X70660771Y-77862384D02*
X70660771Y-77624289D01*
X70660771Y-77624289D02*
X70708390Y-77529051D01*
X70708390Y-77529051D02*
X70756009Y-77481432D01*
X70756009Y-77481432D02*
X70851247Y-77433813D01*
X70851247Y-77433813D02*
X71089342Y-77433813D01*
X71089342Y-77433813D02*
X71184580Y-77481432D01*
X71184580Y-77481432D02*
X71232200Y-77529051D01*
X71232200Y-77529051D02*
X71279819Y-77624289D01*
X71279819Y-77624289D02*
X71279819Y-77862384D01*
X71279819Y-77862384D02*
X71232200Y-77957622D01*
X71232200Y-77957622D02*
X71184580Y-78005241D01*
X106820834Y-127805299D02*
X106963691Y-127852918D01*
X106963691Y-127852918D02*
X107201786Y-127852918D01*
X107201786Y-127852918D02*
X107297024Y-127805299D01*
X107297024Y-127805299D02*
X107344643Y-127757679D01*
X107344643Y-127757679D02*
X107392262Y-127662441D01*
X107392262Y-127662441D02*
X107392262Y-127567203D01*
X107392262Y-127567203D02*
X107344643Y-127471965D01*
X107344643Y-127471965D02*
X107297024Y-127424346D01*
X107297024Y-127424346D02*
X107201786Y-127376727D01*
X107201786Y-127376727D02*
X107011310Y-127329108D01*
X107011310Y-127329108D02*
X106916072Y-127281489D01*
X106916072Y-127281489D02*
X106868453Y-127233870D01*
X106868453Y-127233870D02*
X106820834Y-127138632D01*
X106820834Y-127138632D02*
X106820834Y-127043394D01*
X106820834Y-127043394D02*
X106868453Y-126948156D01*
X106868453Y-126948156D02*
X106916072Y-126900537D01*
X106916072Y-126900537D02*
X107011310Y-126852918D01*
X107011310Y-126852918D02*
X107249405Y-126852918D01*
X107249405Y-126852918D02*
X107392262Y-126900537D01*
X107725596Y-126852918D02*
X107963691Y-127852918D01*
X107963691Y-127852918D02*
X108154167Y-127138632D01*
X108154167Y-127138632D02*
X108344643Y-127852918D01*
X108344643Y-127852918D02*
X108582739Y-126852918D01*
X109392262Y-127186251D02*
X109392262Y-127852918D01*
X109154167Y-126805299D02*
X108916072Y-127519584D01*
X108916072Y-127519584D02*
X109535119Y-127519584D01*
X58940476Y-36599842D02*
X59083333Y-36647461D01*
X59083333Y-36647461D02*
X59321428Y-36647461D01*
X59321428Y-36647461D02*
X59416666Y-36599842D01*
X59416666Y-36599842D02*
X59464285Y-36552222D01*
X59464285Y-36552222D02*
X59511904Y-36456984D01*
X59511904Y-36456984D02*
X59511904Y-36361746D01*
X59511904Y-36361746D02*
X59464285Y-36266508D01*
X59464285Y-36266508D02*
X59416666Y-36218889D01*
X59416666Y-36218889D02*
X59321428Y-36171270D01*
X59321428Y-36171270D02*
X59130952Y-36123651D01*
X59130952Y-36123651D02*
X59035714Y-36076032D01*
X59035714Y-36076032D02*
X58988095Y-36028413D01*
X58988095Y-36028413D02*
X58940476Y-35933175D01*
X58940476Y-35933175D02*
X58940476Y-35837937D01*
X58940476Y-35837937D02*
X58988095Y-35742699D01*
X58988095Y-35742699D02*
X59035714Y-35695080D01*
X59035714Y-35695080D02*
X59130952Y-35647461D01*
X59130952Y-35647461D02*
X59369047Y-35647461D01*
X59369047Y-35647461D02*
X59511904Y-35695080D01*
X59845238Y-35647461D02*
X60083333Y-36647461D01*
X60083333Y-36647461D02*
X60273809Y-35933175D01*
X60273809Y-35933175D02*
X60464285Y-36647461D01*
X60464285Y-36647461D02*
X60702381Y-35647461D01*
X61607142Y-36647461D02*
X61035714Y-36647461D01*
X61321428Y-36647461D02*
X61321428Y-35647461D01*
X61321428Y-35647461D02*
X61226190Y-35790318D01*
X61226190Y-35790318D02*
X61130952Y-35885556D01*
X61130952Y-35885556D02*
X61035714Y-35933175D01*
X61940476Y-35647461D02*
X62559523Y-35647461D01*
X62559523Y-35647461D02*
X62226190Y-36028413D01*
X62226190Y-36028413D02*
X62369047Y-36028413D01*
X62369047Y-36028413D02*
X62464285Y-36076032D01*
X62464285Y-36076032D02*
X62511904Y-36123651D01*
X62511904Y-36123651D02*
X62559523Y-36218889D01*
X62559523Y-36218889D02*
X62559523Y-36456984D01*
X62559523Y-36456984D02*
X62511904Y-36552222D01*
X62511904Y-36552222D02*
X62464285Y-36599842D01*
X62464285Y-36599842D02*
X62369047Y-36647461D01*
X62369047Y-36647461D02*
X62083333Y-36647461D01*
X62083333Y-36647461D02*
X61988095Y-36599842D01*
X61988095Y-36599842D02*
X61940476Y-36552222D01*
X89004819Y-54595238D02*
X88528628Y-54928571D01*
X89004819Y-55166666D02*
X88004819Y-55166666D01*
X88004819Y-55166666D02*
X88004819Y-54785714D01*
X88004819Y-54785714D02*
X88052438Y-54690476D01*
X88052438Y-54690476D02*
X88100057Y-54642857D01*
X88100057Y-54642857D02*
X88195295Y-54595238D01*
X88195295Y-54595238D02*
X88338152Y-54595238D01*
X88338152Y-54595238D02*
X88433390Y-54642857D01*
X88433390Y-54642857D02*
X88481009Y-54690476D01*
X88481009Y-54690476D02*
X88528628Y-54785714D01*
X88528628Y-54785714D02*
X88528628Y-55166666D01*
X88004819Y-54309523D02*
X89004819Y-53976190D01*
X89004819Y-53976190D02*
X88004819Y-53642857D01*
X88100057Y-53357142D02*
X88052438Y-53309523D01*
X88052438Y-53309523D02*
X88004819Y-53214285D01*
X88004819Y-53214285D02*
X88004819Y-52976190D01*
X88004819Y-52976190D02*
X88052438Y-52880952D01*
X88052438Y-52880952D02*
X88100057Y-52833333D01*
X88100057Y-52833333D02*
X88195295Y-52785714D01*
X88195295Y-52785714D02*
X88290533Y-52785714D01*
X88290533Y-52785714D02*
X88433390Y-52833333D01*
X88433390Y-52833333D02*
X89004819Y-53404761D01*
X89004819Y-53404761D02*
X89004819Y-52785714D01*
X136867416Y-86395238D02*
X136391225Y-86728571D01*
X136867416Y-86966666D02*
X135867416Y-86966666D01*
X135867416Y-86966666D02*
X135867416Y-86585714D01*
X135867416Y-86585714D02*
X135915035Y-86490476D01*
X135915035Y-86490476D02*
X135962654Y-86442857D01*
X135962654Y-86442857D02*
X136057892Y-86395238D01*
X136057892Y-86395238D02*
X136200749Y-86395238D01*
X136200749Y-86395238D02*
X136295987Y-86442857D01*
X136295987Y-86442857D02*
X136343606Y-86490476D01*
X136343606Y-86490476D02*
X136391225Y-86585714D01*
X136391225Y-86585714D02*
X136391225Y-86966666D01*
X135867416Y-86109523D02*
X136867416Y-85776190D01*
X136867416Y-85776190D02*
X135867416Y-85442857D01*
X136295987Y-84966666D02*
X136248368Y-85061904D01*
X136248368Y-85061904D02*
X136200749Y-85109523D01*
X136200749Y-85109523D02*
X136105511Y-85157142D01*
X136105511Y-85157142D02*
X136057892Y-85157142D01*
X136057892Y-85157142D02*
X135962654Y-85109523D01*
X135962654Y-85109523D02*
X135915035Y-85061904D01*
X135915035Y-85061904D02*
X135867416Y-84966666D01*
X135867416Y-84966666D02*
X135867416Y-84776190D01*
X135867416Y-84776190D02*
X135915035Y-84680952D01*
X135915035Y-84680952D02*
X135962654Y-84633333D01*
X135962654Y-84633333D02*
X136057892Y-84585714D01*
X136057892Y-84585714D02*
X136105511Y-84585714D01*
X136105511Y-84585714D02*
X136200749Y-84633333D01*
X136200749Y-84633333D02*
X136248368Y-84680952D01*
X136248368Y-84680952D02*
X136295987Y-84776190D01*
X136295987Y-84776190D02*
X136295987Y-84966666D01*
X136295987Y-84966666D02*
X136343606Y-85061904D01*
X136343606Y-85061904D02*
X136391225Y-85109523D01*
X136391225Y-85109523D02*
X136486463Y-85157142D01*
X136486463Y-85157142D02*
X136676939Y-85157142D01*
X136676939Y-85157142D02*
X136772177Y-85109523D01*
X136772177Y-85109523D02*
X136819797Y-85061904D01*
X136819797Y-85061904D02*
X136867416Y-84966666D01*
X136867416Y-84966666D02*
X136867416Y-84776190D01*
X136867416Y-84776190D02*
X136819797Y-84680952D01*
X136819797Y-84680952D02*
X136772177Y-84633333D01*
X136772177Y-84633333D02*
X136676939Y-84585714D01*
X136676939Y-84585714D02*
X136486463Y-84585714D01*
X136486463Y-84585714D02*
X136391225Y-84633333D01*
X136391225Y-84633333D02*
X136343606Y-84680952D01*
X136343606Y-84680952D02*
X136295987Y-84776190D01*
X80205556Y-143907200D02*
X80348413Y-143954819D01*
X80348413Y-143954819D02*
X80586508Y-143954819D01*
X80586508Y-143954819D02*
X80681746Y-143907200D01*
X80681746Y-143907200D02*
X80729365Y-143859580D01*
X80729365Y-143859580D02*
X80776984Y-143764342D01*
X80776984Y-143764342D02*
X80776984Y-143669104D01*
X80776984Y-143669104D02*
X80729365Y-143573866D01*
X80729365Y-143573866D02*
X80681746Y-143526247D01*
X80681746Y-143526247D02*
X80586508Y-143478628D01*
X80586508Y-143478628D02*
X80396032Y-143431009D01*
X80396032Y-143431009D02*
X80300794Y-143383390D01*
X80300794Y-143383390D02*
X80253175Y-143335771D01*
X80253175Y-143335771D02*
X80205556Y-143240533D01*
X80205556Y-143240533D02*
X80205556Y-143145295D01*
X80205556Y-143145295D02*
X80253175Y-143050057D01*
X80253175Y-143050057D02*
X80300794Y-143002438D01*
X80300794Y-143002438D02*
X80396032Y-142954819D01*
X80396032Y-142954819D02*
X80634127Y-142954819D01*
X80634127Y-142954819D02*
X80776984Y-143002438D01*
X81110318Y-142954819D02*
X81348413Y-143954819D01*
X81348413Y-143954819D02*
X81538889Y-143240533D01*
X81538889Y-143240533D02*
X81729365Y-143954819D01*
X81729365Y-143954819D02*
X81967461Y-142954819D01*
X82872222Y-143954819D02*
X82300794Y-143954819D01*
X82586508Y-143954819D02*
X82586508Y-142954819D01*
X82586508Y-142954819D02*
X82491270Y-143097676D01*
X82491270Y-143097676D02*
X82396032Y-143192914D01*
X82396032Y-143192914D02*
X82300794Y-143240533D01*
X202190476Y-99159101D02*
X202333333Y-99206720D01*
X202333333Y-99206720D02*
X202571428Y-99206720D01*
X202571428Y-99206720D02*
X202666666Y-99159101D01*
X202666666Y-99159101D02*
X202714285Y-99111481D01*
X202714285Y-99111481D02*
X202761904Y-99016243D01*
X202761904Y-99016243D02*
X202761904Y-98921005D01*
X202761904Y-98921005D02*
X202714285Y-98825767D01*
X202714285Y-98825767D02*
X202666666Y-98778148D01*
X202666666Y-98778148D02*
X202571428Y-98730529D01*
X202571428Y-98730529D02*
X202380952Y-98682910D01*
X202380952Y-98682910D02*
X202285714Y-98635291D01*
X202285714Y-98635291D02*
X202238095Y-98587672D01*
X202238095Y-98587672D02*
X202190476Y-98492434D01*
X202190476Y-98492434D02*
X202190476Y-98397196D01*
X202190476Y-98397196D02*
X202238095Y-98301958D01*
X202238095Y-98301958D02*
X202285714Y-98254339D01*
X202285714Y-98254339D02*
X202380952Y-98206720D01*
X202380952Y-98206720D02*
X202619047Y-98206720D01*
X202619047Y-98206720D02*
X202761904Y-98254339D01*
X203095238Y-98206720D02*
X203333333Y-99206720D01*
X203333333Y-99206720D02*
X203523809Y-98492434D01*
X203523809Y-98492434D02*
X203714285Y-99206720D01*
X203714285Y-99206720D02*
X203952381Y-98206720D01*
X204857142Y-99206720D02*
X204285714Y-99206720D01*
X204571428Y-99206720D02*
X204571428Y-98206720D01*
X204571428Y-98206720D02*
X204476190Y-98349577D01*
X204476190Y-98349577D02*
X204380952Y-98444815D01*
X204380952Y-98444815D02*
X204285714Y-98492434D01*
X205333333Y-99206720D02*
X205523809Y-99206720D01*
X205523809Y-99206720D02*
X205619047Y-99159101D01*
X205619047Y-99159101D02*
X205666666Y-99111481D01*
X205666666Y-99111481D02*
X205761904Y-98968624D01*
X205761904Y-98968624D02*
X205809523Y-98778148D01*
X205809523Y-98778148D02*
X205809523Y-98397196D01*
X205809523Y-98397196D02*
X205761904Y-98301958D01*
X205761904Y-98301958D02*
X205714285Y-98254339D01*
X205714285Y-98254339D02*
X205619047Y-98206720D01*
X205619047Y-98206720D02*
X205428571Y-98206720D01*
X205428571Y-98206720D02*
X205333333Y-98254339D01*
X205333333Y-98254339D02*
X205285714Y-98301958D01*
X205285714Y-98301958D02*
X205238095Y-98397196D01*
X205238095Y-98397196D02*
X205238095Y-98635291D01*
X205238095Y-98635291D02*
X205285714Y-98730529D01*
X205285714Y-98730529D02*
X205333333Y-98778148D01*
X205333333Y-98778148D02*
X205428571Y-98825767D01*
X205428571Y-98825767D02*
X205619047Y-98825767D01*
X205619047Y-98825767D02*
X205714285Y-98778148D01*
X205714285Y-98778148D02*
X205761904Y-98730529D01*
X205761904Y-98730529D02*
X205809523Y-98635291D01*
X195454819Y-120333333D02*
X194978628Y-120666666D01*
X195454819Y-120904761D02*
X194454819Y-120904761D01*
X194454819Y-120904761D02*
X194454819Y-120523809D01*
X194454819Y-120523809D02*
X194502438Y-120428571D01*
X194502438Y-120428571D02*
X194550057Y-120380952D01*
X194550057Y-120380952D02*
X194645295Y-120333333D01*
X194645295Y-120333333D02*
X194788152Y-120333333D01*
X194788152Y-120333333D02*
X194883390Y-120380952D01*
X194883390Y-120380952D02*
X194931009Y-120428571D01*
X194931009Y-120428571D02*
X194978628Y-120523809D01*
X194978628Y-120523809D02*
X194978628Y-120904761D01*
X194931009Y-119904761D02*
X194931009Y-119571428D01*
X195454819Y-119428571D02*
X195454819Y-119904761D01*
X195454819Y-119904761D02*
X194454819Y-119904761D01*
X194454819Y-119904761D02*
X194454819Y-119428571D01*
X194931009Y-118666666D02*
X194931009Y-118999999D01*
X195454819Y-118999999D02*
X194454819Y-118999999D01*
X194454819Y-118999999D02*
X194454819Y-118523809D01*
X194454819Y-117999999D02*
X194692914Y-117999999D01*
X194597676Y-118238094D02*
X194692914Y-117999999D01*
X194692914Y-117999999D02*
X194597676Y-117761904D01*
X194883390Y-118142856D02*
X194692914Y-117999999D01*
X194692914Y-117999999D02*
X194883390Y-117857142D01*
X194454819Y-117238094D02*
X194692914Y-117238094D01*
X194597676Y-117476189D02*
X194692914Y-117238094D01*
X194692914Y-117238094D02*
X194597676Y-116999999D01*
X194883390Y-117380951D02*
X194692914Y-117238094D01*
X194692914Y-117238094D02*
X194883390Y-117095237D01*
X74666666Y-123304819D02*
X74333333Y-122828628D01*
X74095238Y-123304819D02*
X74095238Y-122304819D01*
X74095238Y-122304819D02*
X74476190Y-122304819D01*
X74476190Y-122304819D02*
X74571428Y-122352438D01*
X74571428Y-122352438D02*
X74619047Y-122400057D01*
X74619047Y-122400057D02*
X74666666Y-122495295D01*
X74666666Y-122495295D02*
X74666666Y-122638152D01*
X74666666Y-122638152D02*
X74619047Y-122733390D01*
X74619047Y-122733390D02*
X74571428Y-122781009D01*
X74571428Y-122781009D02*
X74476190Y-122828628D01*
X74476190Y-122828628D02*
X74095238Y-122828628D01*
X75095238Y-122781009D02*
X75428571Y-122781009D01*
X75571428Y-123304819D02*
X75095238Y-123304819D01*
X75095238Y-123304819D02*
X75095238Y-122304819D01*
X75095238Y-122304819D02*
X75571428Y-122304819D01*
X76333333Y-122781009D02*
X76000000Y-122781009D01*
X76000000Y-123304819D02*
X76000000Y-122304819D01*
X76000000Y-122304819D02*
X76476190Y-122304819D01*
X77000000Y-122304819D02*
X77000000Y-122542914D01*
X76761905Y-122447676D02*
X77000000Y-122542914D01*
X77000000Y-122542914D02*
X77238095Y-122447676D01*
X76857143Y-122733390D02*
X77000000Y-122542914D01*
X77000000Y-122542914D02*
X77142857Y-122733390D01*
X77761905Y-122304819D02*
X77761905Y-122542914D01*
X77523810Y-122447676D02*
X77761905Y-122542914D01*
X77761905Y-122542914D02*
X78000000Y-122447676D01*
X77619048Y-122733390D02*
X77761905Y-122542914D01*
X77761905Y-122542914D02*
X77904762Y-122733390D01*
X180804819Y-107221428D02*
X180328628Y-107554761D01*
X180804819Y-107792856D02*
X179804819Y-107792856D01*
X179804819Y-107792856D02*
X179804819Y-107411904D01*
X179804819Y-107411904D02*
X179852438Y-107316666D01*
X179852438Y-107316666D02*
X179900057Y-107269047D01*
X179900057Y-107269047D02*
X179995295Y-107221428D01*
X179995295Y-107221428D02*
X180138152Y-107221428D01*
X180138152Y-107221428D02*
X180233390Y-107269047D01*
X180233390Y-107269047D02*
X180281009Y-107316666D01*
X180281009Y-107316666D02*
X180328628Y-107411904D01*
X180328628Y-107411904D02*
X180328628Y-107792856D01*
X179804819Y-106935713D02*
X180804819Y-106602380D01*
X180804819Y-106602380D02*
X179804819Y-106269047D01*
X180804819Y-105411904D02*
X180804819Y-105983332D01*
X180804819Y-105697618D02*
X179804819Y-105697618D01*
X179804819Y-105697618D02*
X179947676Y-105792856D01*
X179947676Y-105792856D02*
X180042914Y-105888094D01*
X180042914Y-105888094D02*
X180090533Y-105983332D01*
X180138152Y-104554761D02*
X180804819Y-104554761D01*
X179757200Y-104792856D02*
X180471485Y-105030951D01*
X180471485Y-105030951D02*
X180471485Y-104411904D01*
X134191690Y-70057200D02*
X134334547Y-70104819D01*
X134334547Y-70104819D02*
X134572642Y-70104819D01*
X134572642Y-70104819D02*
X134667880Y-70057200D01*
X134667880Y-70057200D02*
X134715499Y-70009580D01*
X134715499Y-70009580D02*
X134763118Y-69914342D01*
X134763118Y-69914342D02*
X134763118Y-69819104D01*
X134763118Y-69819104D02*
X134715499Y-69723866D01*
X134715499Y-69723866D02*
X134667880Y-69676247D01*
X134667880Y-69676247D02*
X134572642Y-69628628D01*
X134572642Y-69628628D02*
X134382166Y-69581009D01*
X134382166Y-69581009D02*
X134286928Y-69533390D01*
X134286928Y-69533390D02*
X134239309Y-69485771D01*
X134239309Y-69485771D02*
X134191690Y-69390533D01*
X134191690Y-69390533D02*
X134191690Y-69295295D01*
X134191690Y-69295295D02*
X134239309Y-69200057D01*
X134239309Y-69200057D02*
X134286928Y-69152438D01*
X134286928Y-69152438D02*
X134382166Y-69104819D01*
X134382166Y-69104819D02*
X134620261Y-69104819D01*
X134620261Y-69104819D02*
X134763118Y-69152438D01*
X135096452Y-69104819D02*
X135334547Y-70104819D01*
X135334547Y-70104819D02*
X135525023Y-69390533D01*
X135525023Y-69390533D02*
X135715499Y-70104819D01*
X135715499Y-70104819D02*
X135953595Y-69104819D01*
X136286928Y-69200057D02*
X136334547Y-69152438D01*
X136334547Y-69152438D02*
X136429785Y-69104819D01*
X136429785Y-69104819D02*
X136667880Y-69104819D01*
X136667880Y-69104819D02*
X136763118Y-69152438D01*
X136763118Y-69152438D02*
X136810737Y-69200057D01*
X136810737Y-69200057D02*
X136858356Y-69295295D01*
X136858356Y-69295295D02*
X136858356Y-69390533D01*
X136858356Y-69390533D02*
X136810737Y-69533390D01*
X136810737Y-69533390D02*
X136239309Y-70104819D01*
X136239309Y-70104819D02*
X136858356Y-70104819D01*
X137239309Y-69200057D02*
X137286928Y-69152438D01*
X137286928Y-69152438D02*
X137382166Y-69104819D01*
X137382166Y-69104819D02*
X137620261Y-69104819D01*
X137620261Y-69104819D02*
X137715499Y-69152438D01*
X137715499Y-69152438D02*
X137763118Y-69200057D01*
X137763118Y-69200057D02*
X137810737Y-69295295D01*
X137810737Y-69295295D02*
X137810737Y-69390533D01*
X137810737Y-69390533D02*
X137763118Y-69533390D01*
X137763118Y-69533390D02*
X137191690Y-70104819D01*
X137191690Y-70104819D02*
X137810737Y-70104819D01*
X166704819Y-70071428D02*
X166228628Y-70404761D01*
X166704819Y-70642856D02*
X165704819Y-70642856D01*
X165704819Y-70642856D02*
X165704819Y-70261904D01*
X165704819Y-70261904D02*
X165752438Y-70166666D01*
X165752438Y-70166666D02*
X165800057Y-70119047D01*
X165800057Y-70119047D02*
X165895295Y-70071428D01*
X165895295Y-70071428D02*
X166038152Y-70071428D01*
X166038152Y-70071428D02*
X166133390Y-70119047D01*
X166133390Y-70119047D02*
X166181009Y-70166666D01*
X166181009Y-70166666D02*
X166228628Y-70261904D01*
X166228628Y-70261904D02*
X166228628Y-70642856D01*
X165704819Y-69785713D02*
X166704819Y-69452380D01*
X166704819Y-69452380D02*
X165704819Y-69119047D01*
X166704819Y-68261904D02*
X166704819Y-68833332D01*
X166704819Y-68547618D02*
X165704819Y-68547618D01*
X165704819Y-68547618D02*
X165847676Y-68642856D01*
X165847676Y-68642856D02*
X165942914Y-68738094D01*
X165942914Y-68738094D02*
X165990533Y-68833332D01*
X166704819Y-67309523D02*
X166704819Y-67880951D01*
X166704819Y-67595237D02*
X165704819Y-67595237D01*
X165704819Y-67595237D02*
X165847676Y-67690475D01*
X165847676Y-67690475D02*
X165942914Y-67785713D01*
X165942914Y-67785713D02*
X165990533Y-67880951D01*
X151179630Y-143907200D02*
X151322487Y-143954819D01*
X151322487Y-143954819D02*
X151560582Y-143954819D01*
X151560582Y-143954819D02*
X151655820Y-143907200D01*
X151655820Y-143907200D02*
X151703439Y-143859580D01*
X151703439Y-143859580D02*
X151751058Y-143764342D01*
X151751058Y-143764342D02*
X151751058Y-143669104D01*
X151751058Y-143669104D02*
X151703439Y-143573866D01*
X151703439Y-143573866D02*
X151655820Y-143526247D01*
X151655820Y-143526247D02*
X151560582Y-143478628D01*
X151560582Y-143478628D02*
X151370106Y-143431009D01*
X151370106Y-143431009D02*
X151274868Y-143383390D01*
X151274868Y-143383390D02*
X151227249Y-143335771D01*
X151227249Y-143335771D02*
X151179630Y-143240533D01*
X151179630Y-143240533D02*
X151179630Y-143145295D01*
X151179630Y-143145295D02*
X151227249Y-143050057D01*
X151227249Y-143050057D02*
X151274868Y-143002438D01*
X151274868Y-143002438D02*
X151370106Y-142954819D01*
X151370106Y-142954819D02*
X151608201Y-142954819D01*
X151608201Y-142954819D02*
X151751058Y-143002438D01*
X152084392Y-142954819D02*
X152322487Y-143954819D01*
X152322487Y-143954819D02*
X152512963Y-143240533D01*
X152512963Y-143240533D02*
X152703439Y-143954819D01*
X152703439Y-143954819D02*
X152941535Y-142954819D01*
X153465344Y-143383390D02*
X153370106Y-143335771D01*
X153370106Y-143335771D02*
X153322487Y-143288152D01*
X153322487Y-143288152D02*
X153274868Y-143192914D01*
X153274868Y-143192914D02*
X153274868Y-143145295D01*
X153274868Y-143145295D02*
X153322487Y-143050057D01*
X153322487Y-143050057D02*
X153370106Y-143002438D01*
X153370106Y-143002438D02*
X153465344Y-142954819D01*
X153465344Y-142954819D02*
X153655820Y-142954819D01*
X153655820Y-142954819D02*
X153751058Y-143002438D01*
X153751058Y-143002438D02*
X153798677Y-143050057D01*
X153798677Y-143050057D02*
X153846296Y-143145295D01*
X153846296Y-143145295D02*
X153846296Y-143192914D01*
X153846296Y-143192914D02*
X153798677Y-143288152D01*
X153798677Y-143288152D02*
X153751058Y-143335771D01*
X153751058Y-143335771D02*
X153655820Y-143383390D01*
X153655820Y-143383390D02*
X153465344Y-143383390D01*
X153465344Y-143383390D02*
X153370106Y-143431009D01*
X153370106Y-143431009D02*
X153322487Y-143478628D01*
X153322487Y-143478628D02*
X153274868Y-143573866D01*
X153274868Y-143573866D02*
X153274868Y-143764342D01*
X153274868Y-143764342D02*
X153322487Y-143859580D01*
X153322487Y-143859580D02*
X153370106Y-143907200D01*
X153370106Y-143907200D02*
X153465344Y-143954819D01*
X153465344Y-143954819D02*
X153655820Y-143954819D01*
X153655820Y-143954819D02*
X153751058Y-143907200D01*
X153751058Y-143907200D02*
X153798677Y-143859580D01*
X153798677Y-143859580D02*
X153846296Y-143764342D01*
X153846296Y-143764342D02*
X153846296Y-143573866D01*
X153846296Y-143573866D02*
X153798677Y-143478628D01*
X153798677Y-143478628D02*
X153751058Y-143431009D01*
X153751058Y-143431009D02*
X153655820Y-143383390D01*
X58940476Y-80007200D02*
X59083333Y-80054819D01*
X59083333Y-80054819D02*
X59321428Y-80054819D01*
X59321428Y-80054819D02*
X59416666Y-80007200D01*
X59416666Y-80007200D02*
X59464285Y-79959580D01*
X59464285Y-79959580D02*
X59511904Y-79864342D01*
X59511904Y-79864342D02*
X59511904Y-79769104D01*
X59511904Y-79769104D02*
X59464285Y-79673866D01*
X59464285Y-79673866D02*
X59416666Y-79626247D01*
X59416666Y-79626247D02*
X59321428Y-79578628D01*
X59321428Y-79578628D02*
X59130952Y-79531009D01*
X59130952Y-79531009D02*
X59035714Y-79483390D01*
X59035714Y-79483390D02*
X58988095Y-79435771D01*
X58988095Y-79435771D02*
X58940476Y-79340533D01*
X58940476Y-79340533D02*
X58940476Y-79245295D01*
X58940476Y-79245295D02*
X58988095Y-79150057D01*
X58988095Y-79150057D02*
X59035714Y-79102438D01*
X59035714Y-79102438D02*
X59130952Y-79054819D01*
X59130952Y-79054819D02*
X59369047Y-79054819D01*
X59369047Y-79054819D02*
X59511904Y-79102438D01*
X59845238Y-79054819D02*
X60083333Y-80054819D01*
X60083333Y-80054819D02*
X60273809Y-79340533D01*
X60273809Y-79340533D02*
X60464285Y-80054819D01*
X60464285Y-80054819D02*
X60702381Y-79054819D01*
X61607142Y-80054819D02*
X61035714Y-80054819D01*
X61321428Y-80054819D02*
X61321428Y-79054819D01*
X61321428Y-79054819D02*
X61226190Y-79197676D01*
X61226190Y-79197676D02*
X61130952Y-79292914D01*
X61130952Y-79292914D02*
X61035714Y-79340533D01*
X62464285Y-79054819D02*
X62273809Y-79054819D01*
X62273809Y-79054819D02*
X62178571Y-79102438D01*
X62178571Y-79102438D02*
X62130952Y-79150057D01*
X62130952Y-79150057D02*
X62035714Y-79292914D01*
X62035714Y-79292914D02*
X61988095Y-79483390D01*
X61988095Y-79483390D02*
X61988095Y-79864342D01*
X61988095Y-79864342D02*
X62035714Y-79959580D01*
X62035714Y-79959580D02*
X62083333Y-80007200D01*
X62083333Y-80007200D02*
X62178571Y-80054819D01*
X62178571Y-80054819D02*
X62369047Y-80054819D01*
X62369047Y-80054819D02*
X62464285Y-80007200D01*
X62464285Y-80007200D02*
X62511904Y-79959580D01*
X62511904Y-79959580D02*
X62559523Y-79864342D01*
X62559523Y-79864342D02*
X62559523Y-79626247D01*
X62559523Y-79626247D02*
X62511904Y-79531009D01*
X62511904Y-79531009D02*
X62464285Y-79483390D01*
X62464285Y-79483390D02*
X62369047Y-79435771D01*
X62369047Y-79435771D02*
X62178571Y-79435771D01*
X62178571Y-79435771D02*
X62083333Y-79483390D01*
X62083333Y-79483390D02*
X62035714Y-79531009D01*
X62035714Y-79531009D02*
X61988095Y-79626247D01*
X118068924Y-70057200D02*
X118211781Y-70104819D01*
X118211781Y-70104819D02*
X118449876Y-70104819D01*
X118449876Y-70104819D02*
X118545114Y-70057200D01*
X118545114Y-70057200D02*
X118592733Y-70009580D01*
X118592733Y-70009580D02*
X118640352Y-69914342D01*
X118640352Y-69914342D02*
X118640352Y-69819104D01*
X118640352Y-69819104D02*
X118592733Y-69723866D01*
X118592733Y-69723866D02*
X118545114Y-69676247D01*
X118545114Y-69676247D02*
X118449876Y-69628628D01*
X118449876Y-69628628D02*
X118259400Y-69581009D01*
X118259400Y-69581009D02*
X118164162Y-69533390D01*
X118164162Y-69533390D02*
X118116543Y-69485771D01*
X118116543Y-69485771D02*
X118068924Y-69390533D01*
X118068924Y-69390533D02*
X118068924Y-69295295D01*
X118068924Y-69295295D02*
X118116543Y-69200057D01*
X118116543Y-69200057D02*
X118164162Y-69152438D01*
X118164162Y-69152438D02*
X118259400Y-69104819D01*
X118259400Y-69104819D02*
X118497495Y-69104819D01*
X118497495Y-69104819D02*
X118640352Y-69152438D01*
X118973686Y-69104819D02*
X119211781Y-70104819D01*
X119211781Y-70104819D02*
X119402257Y-69390533D01*
X119402257Y-69390533D02*
X119592733Y-70104819D01*
X119592733Y-70104819D02*
X119830829Y-69104819D01*
X120164162Y-69200057D02*
X120211781Y-69152438D01*
X120211781Y-69152438D02*
X120307019Y-69104819D01*
X120307019Y-69104819D02*
X120545114Y-69104819D01*
X120545114Y-69104819D02*
X120640352Y-69152438D01*
X120640352Y-69152438D02*
X120687971Y-69200057D01*
X120687971Y-69200057D02*
X120735590Y-69295295D01*
X120735590Y-69295295D02*
X120735590Y-69390533D01*
X120735590Y-69390533D02*
X120687971Y-69533390D01*
X120687971Y-69533390D02*
X120116543Y-70104819D01*
X120116543Y-70104819D02*
X120735590Y-70104819D01*
X121687971Y-70104819D02*
X121116543Y-70104819D01*
X121402257Y-70104819D02*
X121402257Y-69104819D01*
X121402257Y-69104819D02*
X121307019Y-69247676D01*
X121307019Y-69247676D02*
X121211781Y-69342914D01*
X121211781Y-69342914D02*
X121116543Y-69390533D01*
X124088161Y-127805299D02*
X124231018Y-127852918D01*
X124231018Y-127852918D02*
X124469113Y-127852918D01*
X124469113Y-127852918D02*
X124564351Y-127805299D01*
X124564351Y-127805299D02*
X124611970Y-127757679D01*
X124611970Y-127757679D02*
X124659589Y-127662441D01*
X124659589Y-127662441D02*
X124659589Y-127567203D01*
X124659589Y-127567203D02*
X124611970Y-127471965D01*
X124611970Y-127471965D02*
X124564351Y-127424346D01*
X124564351Y-127424346D02*
X124469113Y-127376727D01*
X124469113Y-127376727D02*
X124278637Y-127329108D01*
X124278637Y-127329108D02*
X124183399Y-127281489D01*
X124183399Y-127281489D02*
X124135780Y-127233870D01*
X124135780Y-127233870D02*
X124088161Y-127138632D01*
X124088161Y-127138632D02*
X124088161Y-127043394D01*
X124088161Y-127043394D02*
X124135780Y-126948156D01*
X124135780Y-126948156D02*
X124183399Y-126900537D01*
X124183399Y-126900537D02*
X124278637Y-126852918D01*
X124278637Y-126852918D02*
X124516732Y-126852918D01*
X124516732Y-126852918D02*
X124659589Y-126900537D01*
X124992923Y-126852918D02*
X125231018Y-127852918D01*
X125231018Y-127852918D02*
X125421494Y-127138632D01*
X125421494Y-127138632D02*
X125611970Y-127852918D01*
X125611970Y-127852918D02*
X125850066Y-126852918D01*
X126183399Y-126948156D02*
X126231018Y-126900537D01*
X126231018Y-126900537D02*
X126326256Y-126852918D01*
X126326256Y-126852918D02*
X126564351Y-126852918D01*
X126564351Y-126852918D02*
X126659589Y-126900537D01*
X126659589Y-126900537D02*
X126707208Y-126948156D01*
X126707208Y-126948156D02*
X126754827Y-127043394D01*
X126754827Y-127043394D02*
X126754827Y-127138632D01*
X126754827Y-127138632D02*
X126707208Y-127281489D01*
X126707208Y-127281489D02*
X126135780Y-127852918D01*
X126135780Y-127852918D02*
X126754827Y-127852918D01*
X127373875Y-126852918D02*
X127469113Y-126852918D01*
X127469113Y-126852918D02*
X127564351Y-126900537D01*
X127564351Y-126900537D02*
X127611970Y-126948156D01*
X127611970Y-126948156D02*
X127659589Y-127043394D01*
X127659589Y-127043394D02*
X127707208Y-127233870D01*
X127707208Y-127233870D02*
X127707208Y-127471965D01*
X127707208Y-127471965D02*
X127659589Y-127662441D01*
X127659589Y-127662441D02*
X127611970Y-127757679D01*
X127611970Y-127757679D02*
X127564351Y-127805299D01*
X127564351Y-127805299D02*
X127469113Y-127852918D01*
X127469113Y-127852918D02*
X127373875Y-127852918D01*
X127373875Y-127852918D02*
X127278637Y-127805299D01*
X127278637Y-127805299D02*
X127231018Y-127757679D01*
X127231018Y-127757679D02*
X127183399Y-127662441D01*
X127183399Y-127662441D02*
X127135780Y-127471965D01*
X127135780Y-127471965D02*
X127135780Y-127233870D01*
X127135780Y-127233870D02*
X127183399Y-127043394D01*
X127183399Y-127043394D02*
X127231018Y-126948156D01*
X127231018Y-126948156D02*
X127278637Y-126900537D01*
X127278637Y-126900537D02*
X127373875Y-126852918D01*
X58940476Y-127805299D02*
X59083333Y-127852918D01*
X59083333Y-127852918D02*
X59321428Y-127852918D01*
X59321428Y-127852918D02*
X59416666Y-127805299D01*
X59416666Y-127805299D02*
X59464285Y-127757679D01*
X59464285Y-127757679D02*
X59511904Y-127662441D01*
X59511904Y-127662441D02*
X59511904Y-127567203D01*
X59511904Y-127567203D02*
X59464285Y-127471965D01*
X59464285Y-127471965D02*
X59416666Y-127424346D01*
X59416666Y-127424346D02*
X59321428Y-127376727D01*
X59321428Y-127376727D02*
X59130952Y-127329108D01*
X59130952Y-127329108D02*
X59035714Y-127281489D01*
X59035714Y-127281489D02*
X58988095Y-127233870D01*
X58988095Y-127233870D02*
X58940476Y-127138632D01*
X58940476Y-127138632D02*
X58940476Y-127043394D01*
X58940476Y-127043394D02*
X58988095Y-126948156D01*
X58988095Y-126948156D02*
X59035714Y-126900537D01*
X59035714Y-126900537D02*
X59130952Y-126852918D01*
X59130952Y-126852918D02*
X59369047Y-126852918D01*
X59369047Y-126852918D02*
X59511904Y-126900537D01*
X59845238Y-126852918D02*
X60083333Y-127852918D01*
X60083333Y-127852918D02*
X60273809Y-127138632D01*
X60273809Y-127138632D02*
X60464285Y-127852918D01*
X60464285Y-127852918D02*
X60702381Y-126852918D01*
X61607142Y-127852918D02*
X61035714Y-127852918D01*
X61321428Y-127852918D02*
X61321428Y-126852918D01*
X61321428Y-126852918D02*
X61226190Y-126995775D01*
X61226190Y-126995775D02*
X61130952Y-127091013D01*
X61130952Y-127091013D02*
X61035714Y-127138632D01*
X61940476Y-126852918D02*
X62607142Y-126852918D01*
X62607142Y-126852918D02*
X62178571Y-127852918D01*
X56666666Y-88304819D02*
X56333333Y-87828628D01*
X56095238Y-88304819D02*
X56095238Y-87304819D01*
X56095238Y-87304819D02*
X56476190Y-87304819D01*
X56476190Y-87304819D02*
X56571428Y-87352438D01*
X56571428Y-87352438D02*
X56619047Y-87400057D01*
X56619047Y-87400057D02*
X56666666Y-87495295D01*
X56666666Y-87495295D02*
X56666666Y-87638152D01*
X56666666Y-87638152D02*
X56619047Y-87733390D01*
X56619047Y-87733390D02*
X56571428Y-87781009D01*
X56571428Y-87781009D02*
X56476190Y-87828628D01*
X56476190Y-87828628D02*
X56095238Y-87828628D01*
X57095238Y-87781009D02*
X57428571Y-87781009D01*
X57571428Y-88304819D02*
X57095238Y-88304819D01*
X57095238Y-88304819D02*
X57095238Y-87304819D01*
X57095238Y-87304819D02*
X57571428Y-87304819D01*
X58333333Y-87781009D02*
X58000000Y-87781009D01*
X58000000Y-88304819D02*
X58000000Y-87304819D01*
X58000000Y-87304819D02*
X58476190Y-87304819D01*
X59000000Y-87304819D02*
X59000000Y-87542914D01*
X58761905Y-87447676D02*
X59000000Y-87542914D01*
X59000000Y-87542914D02*
X59238095Y-87447676D01*
X58857143Y-87733390D02*
X59000000Y-87542914D01*
X59000000Y-87542914D02*
X59142857Y-87733390D01*
X59761905Y-87304819D02*
X59761905Y-87542914D01*
X59523810Y-87447676D02*
X59761905Y-87542914D01*
X59761905Y-87542914D02*
X60000000Y-87447676D01*
X59619048Y-87733390D02*
X59761905Y-87542914D01*
X59761905Y-87542914D02*
X59904762Y-87733390D01*
X76665476Y-36599842D02*
X76808333Y-36647461D01*
X76808333Y-36647461D02*
X77046428Y-36647461D01*
X77046428Y-36647461D02*
X77141666Y-36599842D01*
X77141666Y-36599842D02*
X77189285Y-36552222D01*
X77189285Y-36552222D02*
X77236904Y-36456984D01*
X77236904Y-36456984D02*
X77236904Y-36361746D01*
X77236904Y-36361746D02*
X77189285Y-36266508D01*
X77189285Y-36266508D02*
X77141666Y-36218889D01*
X77141666Y-36218889D02*
X77046428Y-36171270D01*
X77046428Y-36171270D02*
X76855952Y-36123651D01*
X76855952Y-36123651D02*
X76760714Y-36076032D01*
X76760714Y-36076032D02*
X76713095Y-36028413D01*
X76713095Y-36028413D02*
X76665476Y-35933175D01*
X76665476Y-35933175D02*
X76665476Y-35837937D01*
X76665476Y-35837937D02*
X76713095Y-35742699D01*
X76713095Y-35742699D02*
X76760714Y-35695080D01*
X76760714Y-35695080D02*
X76855952Y-35647461D01*
X76855952Y-35647461D02*
X77094047Y-35647461D01*
X77094047Y-35647461D02*
X77236904Y-35695080D01*
X77570238Y-35647461D02*
X77808333Y-36647461D01*
X77808333Y-36647461D02*
X77998809Y-35933175D01*
X77998809Y-35933175D02*
X78189285Y-36647461D01*
X78189285Y-36647461D02*
X78427381Y-35647461D01*
X79332142Y-36647461D02*
X78760714Y-36647461D01*
X79046428Y-36647461D02*
X79046428Y-35647461D01*
X79046428Y-35647461D02*
X78951190Y-35790318D01*
X78951190Y-35790318D02*
X78855952Y-35885556D01*
X78855952Y-35885556D02*
X78760714Y-35933175D01*
X80189285Y-35980794D02*
X80189285Y-36647461D01*
X79951190Y-35599842D02*
X79713095Y-36314127D01*
X79713095Y-36314127D02*
X80332142Y-36314127D01*
X220804819Y-70071428D02*
X220328628Y-70404761D01*
X220804819Y-70642856D02*
X219804819Y-70642856D01*
X219804819Y-70642856D02*
X219804819Y-70261904D01*
X219804819Y-70261904D02*
X219852438Y-70166666D01*
X219852438Y-70166666D02*
X219900057Y-70119047D01*
X219900057Y-70119047D02*
X219995295Y-70071428D01*
X219995295Y-70071428D02*
X220138152Y-70071428D01*
X220138152Y-70071428D02*
X220233390Y-70119047D01*
X220233390Y-70119047D02*
X220281009Y-70166666D01*
X220281009Y-70166666D02*
X220328628Y-70261904D01*
X220328628Y-70261904D02*
X220328628Y-70642856D01*
X219804819Y-69785713D02*
X220804819Y-69452380D01*
X220804819Y-69452380D02*
X219804819Y-69119047D01*
X220804819Y-68261904D02*
X220804819Y-68833332D01*
X220804819Y-68547618D02*
X219804819Y-68547618D01*
X219804819Y-68547618D02*
X219947676Y-68642856D01*
X219947676Y-68642856D02*
X220042914Y-68738094D01*
X220042914Y-68738094D02*
X220090533Y-68833332D01*
X219804819Y-67357142D02*
X219804819Y-67833332D01*
X219804819Y-67833332D02*
X220281009Y-67880951D01*
X220281009Y-67880951D02*
X220233390Y-67833332D01*
X220233390Y-67833332D02*
X220185771Y-67738094D01*
X220185771Y-67738094D02*
X220185771Y-67499999D01*
X220185771Y-67499999D02*
X220233390Y-67404761D01*
X220233390Y-67404761D02*
X220281009Y-67357142D01*
X220281009Y-67357142D02*
X220376247Y-67309523D01*
X220376247Y-67309523D02*
X220614342Y-67309523D01*
X220614342Y-67309523D02*
X220709580Y-67357142D01*
X220709580Y-67357142D02*
X220757200Y-67404761D01*
X220757200Y-67404761D02*
X220804819Y-67499999D01*
X220804819Y-67499999D02*
X220804819Y-67738094D01*
X220804819Y-67738094D02*
X220757200Y-67833332D01*
X220757200Y-67833332D02*
X220709580Y-67880951D01*
X177318717Y-127805299D02*
X177461574Y-127852918D01*
X177461574Y-127852918D02*
X177699669Y-127852918D01*
X177699669Y-127852918D02*
X177794907Y-127805299D01*
X177794907Y-127805299D02*
X177842526Y-127757679D01*
X177842526Y-127757679D02*
X177890145Y-127662441D01*
X177890145Y-127662441D02*
X177890145Y-127567203D01*
X177890145Y-127567203D02*
X177842526Y-127471965D01*
X177842526Y-127471965D02*
X177794907Y-127424346D01*
X177794907Y-127424346D02*
X177699669Y-127376727D01*
X177699669Y-127376727D02*
X177509193Y-127329108D01*
X177509193Y-127329108D02*
X177413955Y-127281489D01*
X177413955Y-127281489D02*
X177366336Y-127233870D01*
X177366336Y-127233870D02*
X177318717Y-127138632D01*
X177318717Y-127138632D02*
X177318717Y-127043394D01*
X177318717Y-127043394D02*
X177366336Y-126948156D01*
X177366336Y-126948156D02*
X177413955Y-126900537D01*
X177413955Y-126900537D02*
X177509193Y-126852918D01*
X177509193Y-126852918D02*
X177747288Y-126852918D01*
X177747288Y-126852918D02*
X177890145Y-126900537D01*
X178223479Y-126852918D02*
X178461574Y-127852918D01*
X178461574Y-127852918D02*
X178652050Y-127138632D01*
X178652050Y-127138632D02*
X178842526Y-127852918D01*
X178842526Y-127852918D02*
X179080622Y-126852918D01*
X179985383Y-127852918D02*
X179413955Y-127852918D01*
X179699669Y-127852918D02*
X179699669Y-126852918D01*
X179699669Y-126852918D02*
X179604431Y-126995775D01*
X179604431Y-126995775D02*
X179509193Y-127091013D01*
X179509193Y-127091013D02*
X179413955Y-127138632D01*
X180937764Y-127852918D02*
X180366336Y-127852918D01*
X180652050Y-127852918D02*
X180652050Y-126852918D01*
X180652050Y-126852918D02*
X180556812Y-126995775D01*
X180556812Y-126995775D02*
X180461574Y-127091013D01*
X180461574Y-127091013D02*
X180366336Y-127138632D01*
X182804819Y-70071428D02*
X182328628Y-70404761D01*
X182804819Y-70642856D02*
X181804819Y-70642856D01*
X181804819Y-70642856D02*
X181804819Y-70261904D01*
X181804819Y-70261904D02*
X181852438Y-70166666D01*
X181852438Y-70166666D02*
X181900057Y-70119047D01*
X181900057Y-70119047D02*
X181995295Y-70071428D01*
X181995295Y-70071428D02*
X182138152Y-70071428D01*
X182138152Y-70071428D02*
X182233390Y-70119047D01*
X182233390Y-70119047D02*
X182281009Y-70166666D01*
X182281009Y-70166666D02*
X182328628Y-70261904D01*
X182328628Y-70261904D02*
X182328628Y-70642856D01*
X181804819Y-69785713D02*
X182804819Y-69452380D01*
X182804819Y-69452380D02*
X181804819Y-69119047D01*
X182804819Y-68261904D02*
X182804819Y-68833332D01*
X182804819Y-68547618D02*
X181804819Y-68547618D01*
X181804819Y-68547618D02*
X181947676Y-68642856D01*
X181947676Y-68642856D02*
X182042914Y-68738094D01*
X182042914Y-68738094D02*
X182090533Y-68833332D01*
X181900057Y-67880951D02*
X181852438Y-67833332D01*
X181852438Y-67833332D02*
X181804819Y-67738094D01*
X181804819Y-67738094D02*
X181804819Y-67499999D01*
X181804819Y-67499999D02*
X181852438Y-67404761D01*
X181852438Y-67404761D02*
X181900057Y-67357142D01*
X181900057Y-67357142D02*
X181995295Y-67309523D01*
X181995295Y-67309523D02*
X182090533Y-67309523D01*
X182090533Y-67309523D02*
X182233390Y-67357142D01*
X182233390Y-67357142D02*
X182804819Y-67928570D01*
X182804819Y-67928570D02*
X182804819Y-67309523D01*
X89004819Y-36178880D02*
X88528628Y-36512213D01*
X89004819Y-36750308D02*
X88004819Y-36750308D01*
X88004819Y-36750308D02*
X88004819Y-36369356D01*
X88004819Y-36369356D02*
X88052438Y-36274118D01*
X88052438Y-36274118D02*
X88100057Y-36226499D01*
X88100057Y-36226499D02*
X88195295Y-36178880D01*
X88195295Y-36178880D02*
X88338152Y-36178880D01*
X88338152Y-36178880D02*
X88433390Y-36226499D01*
X88433390Y-36226499D02*
X88481009Y-36274118D01*
X88481009Y-36274118D02*
X88528628Y-36369356D01*
X88528628Y-36369356D02*
X88528628Y-36750308D01*
X88004819Y-35893165D02*
X89004819Y-35559832D01*
X89004819Y-35559832D02*
X88004819Y-35226499D01*
X89004819Y-34369356D02*
X89004819Y-34940784D01*
X89004819Y-34655070D02*
X88004819Y-34655070D01*
X88004819Y-34655070D02*
X88147676Y-34750308D01*
X88147676Y-34750308D02*
X88242914Y-34845546D01*
X88242914Y-34845546D02*
X88290533Y-34940784D01*
D10*
X228904523Y-78145200D02*
X228761666Y-78097580D01*
X228761666Y-78097580D02*
X228523571Y-78097580D01*
X228523571Y-78097580D02*
X228428333Y-78145200D01*
X228428333Y-78145200D02*
X228380714Y-78192819D01*
X228380714Y-78192819D02*
X228333095Y-78288057D01*
X228333095Y-78288057D02*
X228333095Y-78383295D01*
X228333095Y-78383295D02*
X228380714Y-78478533D01*
X228380714Y-78478533D02*
X228428333Y-78526152D01*
X228428333Y-78526152D02*
X228523571Y-78573771D01*
X228523571Y-78573771D02*
X228714047Y-78621390D01*
X228714047Y-78621390D02*
X228809285Y-78669009D01*
X228809285Y-78669009D02*
X228856904Y-78716628D01*
X228856904Y-78716628D02*
X228904523Y-78811866D01*
X228904523Y-78811866D02*
X228904523Y-78907104D01*
X228904523Y-78907104D02*
X228856904Y-79002342D01*
X228856904Y-79002342D02*
X228809285Y-79049961D01*
X228809285Y-79049961D02*
X228714047Y-79097580D01*
X228714047Y-79097580D02*
X228475952Y-79097580D01*
X228475952Y-79097580D02*
X228333095Y-79049961D01*
X227999761Y-79097580D02*
X227761666Y-78097580D01*
X227761666Y-78097580D02*
X227571190Y-78811866D01*
X227571190Y-78811866D02*
X227380714Y-78097580D01*
X227380714Y-78097580D02*
X227142619Y-79097580D01*
X226809285Y-79002342D02*
X226761666Y-79049961D01*
X226761666Y-79049961D02*
X226666428Y-79097580D01*
X226666428Y-79097580D02*
X226428333Y-79097580D01*
X226428333Y-79097580D02*
X226333095Y-79049961D01*
X226333095Y-79049961D02*
X226285476Y-79002342D01*
X226285476Y-79002342D02*
X226237857Y-78907104D01*
X226237857Y-78907104D02*
X226237857Y-78811866D01*
X226237857Y-78811866D02*
X226285476Y-78669009D01*
X226285476Y-78669009D02*
X226856904Y-78097580D01*
X226856904Y-78097580D02*
X226237857Y-78097580D01*
X225904523Y-79097580D02*
X225285476Y-79097580D01*
X225285476Y-79097580D02*
X225618809Y-78716628D01*
X225618809Y-78716628D02*
X225475952Y-78716628D01*
X225475952Y-78716628D02*
X225380714Y-78669009D01*
X225380714Y-78669009D02*
X225333095Y-78621390D01*
X225333095Y-78621390D02*
X225285476Y-78526152D01*
X225285476Y-78526152D02*
X225285476Y-78288057D01*
X225285476Y-78288057D02*
X225333095Y-78192819D01*
X225333095Y-78192819D02*
X225380714Y-78145200D01*
X225380714Y-78145200D02*
X225475952Y-78097580D01*
X225475952Y-78097580D02*
X225761666Y-78097580D01*
X225761666Y-78097580D02*
X225856904Y-78145200D01*
X225856904Y-78145200D02*
X225904523Y-78192819D01*
X226952580Y-83145074D02*
X226952580Y-82668884D01*
X226952580Y-82668884D02*
X226476390Y-82621265D01*
X226476390Y-82621265D02*
X226524009Y-82668884D01*
X226524009Y-82668884D02*
X226571628Y-82764122D01*
X226571628Y-82764122D02*
X226571628Y-83002217D01*
X226571628Y-83002217D02*
X226524009Y-83097455D01*
X226524009Y-83097455D02*
X226476390Y-83145074D01*
X226476390Y-83145074D02*
X226381152Y-83192693D01*
X226381152Y-83192693D02*
X226143057Y-83192693D01*
X226143057Y-83192693D02*
X226047819Y-83145074D01*
X226047819Y-83145074D02*
X226000200Y-83097455D01*
X226000200Y-83097455D02*
X225952580Y-83002217D01*
X225952580Y-83002217D02*
X225952580Y-82764122D01*
X225952580Y-82764122D02*
X226000200Y-82668884D01*
X226000200Y-82668884D02*
X226047819Y-82621265D01*
X226952580Y-83478408D02*
X225952580Y-83811741D01*
X225952580Y-83811741D02*
X226952580Y-84145074D01*
X228492580Y-82668884D02*
X229492580Y-82668884D01*
X228492580Y-83145074D02*
X229492580Y-83145074D01*
X229492580Y-83145074D02*
X228492580Y-83716502D01*
X228492580Y-83716502D02*
X229492580Y-83716502D01*
D11*
X168446957Y-143907200D02*
X168589814Y-143954819D01*
X168589814Y-143954819D02*
X168827909Y-143954819D01*
X168827909Y-143954819D02*
X168923147Y-143907200D01*
X168923147Y-143907200D02*
X168970766Y-143859580D01*
X168970766Y-143859580D02*
X169018385Y-143764342D01*
X169018385Y-143764342D02*
X169018385Y-143669104D01*
X169018385Y-143669104D02*
X168970766Y-143573866D01*
X168970766Y-143573866D02*
X168923147Y-143526247D01*
X168923147Y-143526247D02*
X168827909Y-143478628D01*
X168827909Y-143478628D02*
X168637433Y-143431009D01*
X168637433Y-143431009D02*
X168542195Y-143383390D01*
X168542195Y-143383390D02*
X168494576Y-143335771D01*
X168494576Y-143335771D02*
X168446957Y-143240533D01*
X168446957Y-143240533D02*
X168446957Y-143145295D01*
X168446957Y-143145295D02*
X168494576Y-143050057D01*
X168494576Y-143050057D02*
X168542195Y-143002438D01*
X168542195Y-143002438D02*
X168637433Y-142954819D01*
X168637433Y-142954819D02*
X168875528Y-142954819D01*
X168875528Y-142954819D02*
X169018385Y-143002438D01*
X169351719Y-142954819D02*
X169589814Y-143954819D01*
X169589814Y-143954819D02*
X169780290Y-143240533D01*
X169780290Y-143240533D02*
X169970766Y-143954819D01*
X169970766Y-143954819D02*
X170208862Y-142954819D01*
X171113623Y-143954819D02*
X170542195Y-143954819D01*
X170827909Y-143954819D02*
X170827909Y-142954819D01*
X170827909Y-142954819D02*
X170732671Y-143097676D01*
X170732671Y-143097676D02*
X170637433Y-143192914D01*
X170637433Y-143192914D02*
X170542195Y-143240533D01*
X171732671Y-142954819D02*
X171827909Y-142954819D01*
X171827909Y-142954819D02*
X171923147Y-143002438D01*
X171923147Y-143002438D02*
X171970766Y-143050057D01*
X171970766Y-143050057D02*
X172018385Y-143145295D01*
X172018385Y-143145295D02*
X172066004Y-143335771D01*
X172066004Y-143335771D02*
X172066004Y-143573866D01*
X172066004Y-143573866D02*
X172018385Y-143764342D01*
X172018385Y-143764342D02*
X171970766Y-143859580D01*
X171970766Y-143859580D02*
X171923147Y-143907200D01*
X171923147Y-143907200D02*
X171827909Y-143954819D01*
X171827909Y-143954819D02*
X171732671Y-143954819D01*
X171732671Y-143954819D02*
X171637433Y-143907200D01*
X171637433Y-143907200D02*
X171589814Y-143859580D01*
X171589814Y-143859580D02*
X171542195Y-143764342D01*
X171542195Y-143764342D02*
X171494576Y-143573866D01*
X171494576Y-143573866D02*
X171494576Y-143335771D01*
X171494576Y-143335771D02*
X171542195Y-143145295D01*
X171542195Y-143145295D02*
X171589814Y-143050057D01*
X171589814Y-143050057D02*
X171637433Y-143002438D01*
X171637433Y-143002438D02*
X171732671Y-142954819D01*
X89004819Y-79243337D02*
X88528628Y-79576670D01*
X89004819Y-79814765D02*
X88004819Y-79814765D01*
X88004819Y-79814765D02*
X88004819Y-79433813D01*
X88004819Y-79433813D02*
X88052438Y-79338575D01*
X88052438Y-79338575D02*
X88100057Y-79290956D01*
X88100057Y-79290956D02*
X88195295Y-79243337D01*
X88195295Y-79243337D02*
X88338152Y-79243337D01*
X88338152Y-79243337D02*
X88433390Y-79290956D01*
X88433390Y-79290956D02*
X88481009Y-79338575D01*
X88481009Y-79338575D02*
X88528628Y-79433813D01*
X88528628Y-79433813D02*
X88528628Y-79814765D01*
X88004819Y-78957622D02*
X89004819Y-78624289D01*
X89004819Y-78624289D02*
X88004819Y-78290956D01*
X88338152Y-77529051D02*
X89004819Y-77529051D01*
X87957200Y-77767146D02*
X88671485Y-78005241D01*
X88671485Y-78005241D02*
X88671485Y-77386194D01*
X104621885Y-86395238D02*
X104145694Y-86728571D01*
X104621885Y-86966666D02*
X103621885Y-86966666D01*
X103621885Y-86966666D02*
X103621885Y-86585714D01*
X103621885Y-86585714D02*
X103669504Y-86490476D01*
X103669504Y-86490476D02*
X103717123Y-86442857D01*
X103717123Y-86442857D02*
X103812361Y-86395238D01*
X103812361Y-86395238D02*
X103955218Y-86395238D01*
X103955218Y-86395238D02*
X104050456Y-86442857D01*
X104050456Y-86442857D02*
X104098075Y-86490476D01*
X104098075Y-86490476D02*
X104145694Y-86585714D01*
X104145694Y-86585714D02*
X104145694Y-86966666D01*
X103621885Y-86109523D02*
X104621885Y-85776190D01*
X104621885Y-85776190D02*
X103621885Y-85442857D01*
X103621885Y-84680952D02*
X103621885Y-84871428D01*
X103621885Y-84871428D02*
X103669504Y-84966666D01*
X103669504Y-84966666D02*
X103717123Y-85014285D01*
X103717123Y-85014285D02*
X103859980Y-85109523D01*
X103859980Y-85109523D02*
X104050456Y-85157142D01*
X104050456Y-85157142D02*
X104431408Y-85157142D01*
X104431408Y-85157142D02*
X104526646Y-85109523D01*
X104526646Y-85109523D02*
X104574266Y-85061904D01*
X104574266Y-85061904D02*
X104621885Y-84966666D01*
X104621885Y-84966666D02*
X104621885Y-84776190D01*
X104621885Y-84776190D02*
X104574266Y-84680952D01*
X104574266Y-84680952D02*
X104526646Y-84633333D01*
X104526646Y-84633333D02*
X104431408Y-84585714D01*
X104431408Y-84585714D02*
X104193313Y-84585714D01*
X104193313Y-84585714D02*
X104098075Y-84633333D01*
X104098075Y-84633333D02*
X104050456Y-84680952D01*
X104050456Y-84680952D02*
X104002837Y-84776190D01*
X104002837Y-84776190D02*
X104002837Y-84966666D01*
X104002837Y-84966666D02*
X104050456Y-85061904D01*
X104050456Y-85061904D02*
X104098075Y-85109523D01*
X104098075Y-85109523D02*
X104193313Y-85157142D01*
D10*
X147238095Y-59555518D02*
X147238095Y-60365041D01*
X147238095Y-60365041D02*
X147285714Y-60460279D01*
X147285714Y-60460279D02*
X147333333Y-60507899D01*
X147333333Y-60507899D02*
X147428571Y-60555518D01*
X147428571Y-60555518D02*
X147619047Y-60555518D01*
X147619047Y-60555518D02*
X147714285Y-60507899D01*
X147714285Y-60507899D02*
X147761904Y-60460279D01*
X147761904Y-60460279D02*
X147809523Y-60365041D01*
X147809523Y-60365041D02*
X147809523Y-59555518D01*
X148761904Y-59555518D02*
X148285714Y-59555518D01*
X148285714Y-59555518D02*
X148238095Y-60031708D01*
X148238095Y-60031708D02*
X148285714Y-59984089D01*
X148285714Y-59984089D02*
X148380952Y-59936470D01*
X148380952Y-59936470D02*
X148619047Y-59936470D01*
X148619047Y-59936470D02*
X148714285Y-59984089D01*
X148714285Y-59984089D02*
X148761904Y-60031708D01*
X148761904Y-60031708D02*
X148809523Y-60126946D01*
X148809523Y-60126946D02*
X148809523Y-60365041D01*
X148809523Y-60365041D02*
X148761904Y-60460279D01*
X148761904Y-60460279D02*
X148714285Y-60507899D01*
X148714285Y-60507899D02*
X148619047Y-60555518D01*
X148619047Y-60555518D02*
X148380952Y-60555518D01*
X148380952Y-60555518D02*
X148285714Y-60507899D01*
X148285714Y-60507899D02*
X148238095Y-60460279D01*
X131872038Y-36950405D02*
X131824419Y-37045643D01*
X131824419Y-37045643D02*
X131824419Y-37188500D01*
X131824419Y-37188500D02*
X131872038Y-37331357D01*
X131872038Y-37331357D02*
X131967276Y-37426595D01*
X131967276Y-37426595D02*
X132062514Y-37474214D01*
X132062514Y-37474214D02*
X132252990Y-37521833D01*
X132252990Y-37521833D02*
X132395847Y-37521833D01*
X132395847Y-37521833D02*
X132586323Y-37474214D01*
X132586323Y-37474214D02*
X132681561Y-37426595D01*
X132681561Y-37426595D02*
X132776800Y-37331357D01*
X132776800Y-37331357D02*
X132824419Y-37188500D01*
X132824419Y-37188500D02*
X132824419Y-37093262D01*
X132824419Y-37093262D02*
X132776800Y-36950405D01*
X132776800Y-36950405D02*
X132729180Y-36902786D01*
X132729180Y-36902786D02*
X132395847Y-36902786D01*
X132395847Y-36902786D02*
X132395847Y-37093262D01*
X132824419Y-36474214D02*
X131824419Y-36474214D01*
X131824419Y-36474214D02*
X132824419Y-35902786D01*
X132824419Y-35902786D02*
X131824419Y-35902786D01*
X132824419Y-35426595D02*
X131824419Y-35426595D01*
X131824419Y-35426595D02*
X131824419Y-35188500D01*
X131824419Y-35188500D02*
X131872038Y-35045643D01*
X131872038Y-35045643D02*
X131967276Y-34950405D01*
X131967276Y-34950405D02*
X132062514Y-34902786D01*
X132062514Y-34902786D02*
X132252990Y-34855167D01*
X132252990Y-34855167D02*
X132395847Y-34855167D01*
X132395847Y-34855167D02*
X132586323Y-34902786D01*
X132586323Y-34902786D02*
X132681561Y-34950405D01*
X132681561Y-34950405D02*
X132776800Y-35045643D01*
X132776800Y-35045643D02*
X132824419Y-35188500D01*
X132824419Y-35188500D02*
X132824419Y-35426595D01*
X134364419Y-37617071D02*
X135364419Y-37283738D01*
X135364419Y-37283738D02*
X134364419Y-36950405D01*
X135269180Y-36045643D02*
X135316800Y-36093262D01*
X135316800Y-36093262D02*
X135364419Y-36236119D01*
X135364419Y-36236119D02*
X135364419Y-36331357D01*
X135364419Y-36331357D02*
X135316800Y-36474214D01*
X135316800Y-36474214D02*
X135221561Y-36569452D01*
X135221561Y-36569452D02*
X135126323Y-36617071D01*
X135126323Y-36617071D02*
X134935847Y-36664690D01*
X134935847Y-36664690D02*
X134792990Y-36664690D01*
X134792990Y-36664690D02*
X134602514Y-36617071D01*
X134602514Y-36617071D02*
X134507276Y-36569452D01*
X134507276Y-36569452D02*
X134412038Y-36474214D01*
X134412038Y-36474214D02*
X134364419Y-36331357D01*
X134364419Y-36331357D02*
X134364419Y-36236119D01*
X134364419Y-36236119D02*
X134412038Y-36093262D01*
X134412038Y-36093262D02*
X134459657Y-36045643D01*
X135269180Y-35045643D02*
X135316800Y-35093262D01*
X135316800Y-35093262D02*
X135364419Y-35236119D01*
X135364419Y-35236119D02*
X135364419Y-35331357D01*
X135364419Y-35331357D02*
X135316800Y-35474214D01*
X135316800Y-35474214D02*
X135221561Y-35569452D01*
X135221561Y-35569452D02*
X135126323Y-35617071D01*
X135126323Y-35617071D02*
X134935847Y-35664690D01*
X134935847Y-35664690D02*
X134792990Y-35664690D01*
X134792990Y-35664690D02*
X134602514Y-35617071D01*
X134602514Y-35617071D02*
X134507276Y-35569452D01*
X134507276Y-35569452D02*
X134412038Y-35474214D01*
X134412038Y-35474214D02*
X134364419Y-35331357D01*
X134364419Y-35331357D02*
X134364419Y-35236119D01*
X134364419Y-35236119D02*
X134412038Y-35093262D01*
X134412038Y-35093262D02*
X134459657Y-35045643D01*
X137856800Y-37521833D02*
X137904419Y-37378976D01*
X137904419Y-37378976D02*
X137904419Y-37140881D01*
X137904419Y-37140881D02*
X137856800Y-37045643D01*
X137856800Y-37045643D02*
X137809180Y-36998024D01*
X137809180Y-36998024D02*
X137713942Y-36950405D01*
X137713942Y-36950405D02*
X137618704Y-36950405D01*
X137618704Y-36950405D02*
X137523466Y-36998024D01*
X137523466Y-36998024D02*
X137475847Y-37045643D01*
X137475847Y-37045643D02*
X137428228Y-37140881D01*
X137428228Y-37140881D02*
X137380609Y-37331357D01*
X137380609Y-37331357D02*
X137332990Y-37426595D01*
X137332990Y-37426595D02*
X137285371Y-37474214D01*
X137285371Y-37474214D02*
X137190133Y-37521833D01*
X137190133Y-37521833D02*
X137094895Y-37521833D01*
X137094895Y-37521833D02*
X136999657Y-37474214D01*
X136999657Y-37474214D02*
X136952038Y-37426595D01*
X136952038Y-37426595D02*
X136904419Y-37331357D01*
X136904419Y-37331357D02*
X136904419Y-37093262D01*
X136904419Y-37093262D02*
X136952038Y-36950405D01*
X137809180Y-35950405D02*
X137856800Y-35998024D01*
X137856800Y-35998024D02*
X137904419Y-36140881D01*
X137904419Y-36140881D02*
X137904419Y-36236119D01*
X137904419Y-36236119D02*
X137856800Y-36378976D01*
X137856800Y-36378976D02*
X137761561Y-36474214D01*
X137761561Y-36474214D02*
X137666323Y-36521833D01*
X137666323Y-36521833D02*
X137475847Y-36569452D01*
X137475847Y-36569452D02*
X137332990Y-36569452D01*
X137332990Y-36569452D02*
X137142514Y-36521833D01*
X137142514Y-36521833D02*
X137047276Y-36474214D01*
X137047276Y-36474214D02*
X136952038Y-36378976D01*
X136952038Y-36378976D02*
X136904419Y-36236119D01*
X136904419Y-36236119D02*
X136904419Y-36140881D01*
X136904419Y-36140881D02*
X136952038Y-35998024D01*
X136952038Y-35998024D02*
X136999657Y-35950405D01*
X137904419Y-35045643D02*
X137904419Y-35521833D01*
X137904419Y-35521833D02*
X136904419Y-35521833D01*
X140396800Y-37521833D02*
X140444419Y-37378976D01*
X140444419Y-37378976D02*
X140444419Y-37140881D01*
X140444419Y-37140881D02*
X140396800Y-37045643D01*
X140396800Y-37045643D02*
X140349180Y-36998024D01*
X140349180Y-36998024D02*
X140253942Y-36950405D01*
X140253942Y-36950405D02*
X140158704Y-36950405D01*
X140158704Y-36950405D02*
X140063466Y-36998024D01*
X140063466Y-36998024D02*
X140015847Y-37045643D01*
X140015847Y-37045643D02*
X139968228Y-37140881D01*
X139968228Y-37140881D02*
X139920609Y-37331357D01*
X139920609Y-37331357D02*
X139872990Y-37426595D01*
X139872990Y-37426595D02*
X139825371Y-37474214D01*
X139825371Y-37474214D02*
X139730133Y-37521833D01*
X139730133Y-37521833D02*
X139634895Y-37521833D01*
X139634895Y-37521833D02*
X139539657Y-37474214D01*
X139539657Y-37474214D02*
X139492038Y-37426595D01*
X139492038Y-37426595D02*
X139444419Y-37331357D01*
X139444419Y-37331357D02*
X139444419Y-37093262D01*
X139444419Y-37093262D02*
X139492038Y-36950405D01*
X140444419Y-36521833D02*
X139444419Y-36521833D01*
X139444419Y-36521833D02*
X139444419Y-36283738D01*
X139444419Y-36283738D02*
X139492038Y-36140881D01*
X139492038Y-36140881D02*
X139587276Y-36045643D01*
X139587276Y-36045643D02*
X139682514Y-35998024D01*
X139682514Y-35998024D02*
X139872990Y-35950405D01*
X139872990Y-35950405D02*
X140015847Y-35950405D01*
X140015847Y-35950405D02*
X140206323Y-35998024D01*
X140206323Y-35998024D02*
X140301561Y-36045643D01*
X140301561Y-36045643D02*
X140396800Y-36140881D01*
X140396800Y-36140881D02*
X140444419Y-36283738D01*
X140444419Y-36283738D02*
X140444419Y-36521833D01*
X140158704Y-35569452D02*
X140158704Y-35093262D01*
X140444419Y-35664690D02*
X139444419Y-35331357D01*
X139444419Y-35331357D02*
X140444419Y-34998024D01*
D11*
X142307871Y-127805299D02*
X142450728Y-127852918D01*
X142450728Y-127852918D02*
X142688823Y-127852918D01*
X142688823Y-127852918D02*
X142784061Y-127805299D01*
X142784061Y-127805299D02*
X142831680Y-127757679D01*
X142831680Y-127757679D02*
X142879299Y-127662441D01*
X142879299Y-127662441D02*
X142879299Y-127567203D01*
X142879299Y-127567203D02*
X142831680Y-127471965D01*
X142831680Y-127471965D02*
X142784061Y-127424346D01*
X142784061Y-127424346D02*
X142688823Y-127376727D01*
X142688823Y-127376727D02*
X142498347Y-127329108D01*
X142498347Y-127329108D02*
X142403109Y-127281489D01*
X142403109Y-127281489D02*
X142355490Y-127233870D01*
X142355490Y-127233870D02*
X142307871Y-127138632D01*
X142307871Y-127138632D02*
X142307871Y-127043394D01*
X142307871Y-127043394D02*
X142355490Y-126948156D01*
X142355490Y-126948156D02*
X142403109Y-126900537D01*
X142403109Y-126900537D02*
X142498347Y-126852918D01*
X142498347Y-126852918D02*
X142736442Y-126852918D01*
X142736442Y-126852918D02*
X142879299Y-126900537D01*
X143212633Y-126852918D02*
X143450728Y-127852918D01*
X143450728Y-127852918D02*
X143641204Y-127138632D01*
X143641204Y-127138632D02*
X143831680Y-127852918D01*
X143831680Y-127852918D02*
X144069776Y-126852918D01*
X144355490Y-126852918D02*
X145022156Y-126852918D01*
X145022156Y-126852918D02*
X144593585Y-127852918D01*
D10*
X195189991Y-60855518D02*
X195189991Y-61665041D01*
X195189991Y-61665041D02*
X195237610Y-61760279D01*
X195237610Y-61760279D02*
X195285229Y-61807899D01*
X195285229Y-61807899D02*
X195380467Y-61855518D01*
X195380467Y-61855518D02*
X195570943Y-61855518D01*
X195570943Y-61855518D02*
X195666181Y-61807899D01*
X195666181Y-61807899D02*
X195713800Y-61760279D01*
X195713800Y-61760279D02*
X195761419Y-61665041D01*
X195761419Y-61665041D02*
X195761419Y-60855518D01*
X196666181Y-60855518D02*
X196475705Y-60855518D01*
X196475705Y-60855518D02*
X196380467Y-60903137D01*
X196380467Y-60903137D02*
X196332848Y-60950756D01*
X196332848Y-60950756D02*
X196237610Y-61093613D01*
X196237610Y-61093613D02*
X196189991Y-61284089D01*
X196189991Y-61284089D02*
X196189991Y-61665041D01*
X196189991Y-61665041D02*
X196237610Y-61760279D01*
X196237610Y-61760279D02*
X196285229Y-61807899D01*
X196285229Y-61807899D02*
X196380467Y-61855518D01*
X196380467Y-61855518D02*
X196570943Y-61855518D01*
X196570943Y-61855518D02*
X196666181Y-61807899D01*
X196666181Y-61807899D02*
X196713800Y-61760279D01*
X196713800Y-61760279D02*
X196761419Y-61665041D01*
X196761419Y-61665041D02*
X196761419Y-61426946D01*
X196761419Y-61426946D02*
X196713800Y-61331708D01*
X196713800Y-61331708D02*
X196666181Y-61284089D01*
X196666181Y-61284089D02*
X196570943Y-61236470D01*
X196570943Y-61236470D02*
X196380467Y-61236470D01*
X196380467Y-61236470D02*
X196285229Y-61284089D01*
X196285229Y-61284089D02*
X196237610Y-61331708D01*
X196237610Y-61331708D02*
X196189991Y-61426946D01*
X168777923Y-38825518D02*
X169111256Y-39825518D01*
X169111256Y-39825518D02*
X169444589Y-38825518D01*
X170349351Y-39730279D02*
X170301732Y-39777899D01*
X170301732Y-39777899D02*
X170158875Y-39825518D01*
X170158875Y-39825518D02*
X170063637Y-39825518D01*
X170063637Y-39825518D02*
X169920780Y-39777899D01*
X169920780Y-39777899D02*
X169825542Y-39682660D01*
X169825542Y-39682660D02*
X169777923Y-39587422D01*
X169777923Y-39587422D02*
X169730304Y-39396946D01*
X169730304Y-39396946D02*
X169730304Y-39254089D01*
X169730304Y-39254089D02*
X169777923Y-39063613D01*
X169777923Y-39063613D02*
X169825542Y-38968375D01*
X169825542Y-38968375D02*
X169920780Y-38873137D01*
X169920780Y-38873137D02*
X170063637Y-38825518D01*
X170063637Y-38825518D02*
X170158875Y-38825518D01*
X170158875Y-38825518D02*
X170301732Y-38873137D01*
X170301732Y-38873137D02*
X170349351Y-38920756D01*
X171349351Y-39730279D02*
X171301732Y-39777899D01*
X171301732Y-39777899D02*
X171158875Y-39825518D01*
X171158875Y-39825518D02*
X171063637Y-39825518D01*
X171063637Y-39825518D02*
X170920780Y-39777899D01*
X170920780Y-39777899D02*
X170825542Y-39682660D01*
X170825542Y-39682660D02*
X170777923Y-39587422D01*
X170777923Y-39587422D02*
X170730304Y-39396946D01*
X170730304Y-39396946D02*
X170730304Y-39254089D01*
X170730304Y-39254089D02*
X170777923Y-39063613D01*
X170777923Y-39063613D02*
X170825542Y-38968375D01*
X170825542Y-38968375D02*
X170920780Y-38873137D01*
X170920780Y-38873137D02*
X171063637Y-38825518D01*
X171063637Y-38825518D02*
X171158875Y-38825518D01*
X171158875Y-38825518D02*
X171301732Y-38873137D01*
X171301732Y-38873137D02*
X171349351Y-38920756D01*
X169444589Y-41413137D02*
X169349351Y-41365518D01*
X169349351Y-41365518D02*
X169206494Y-41365518D01*
X169206494Y-41365518D02*
X169063637Y-41413137D01*
X169063637Y-41413137D02*
X168968399Y-41508375D01*
X168968399Y-41508375D02*
X168920780Y-41603613D01*
X168920780Y-41603613D02*
X168873161Y-41794089D01*
X168873161Y-41794089D02*
X168873161Y-41936946D01*
X168873161Y-41936946D02*
X168920780Y-42127422D01*
X168920780Y-42127422D02*
X168968399Y-42222660D01*
X168968399Y-42222660D02*
X169063637Y-42317899D01*
X169063637Y-42317899D02*
X169206494Y-42365518D01*
X169206494Y-42365518D02*
X169301732Y-42365518D01*
X169301732Y-42365518D02*
X169444589Y-42317899D01*
X169444589Y-42317899D02*
X169492208Y-42270279D01*
X169492208Y-42270279D02*
X169492208Y-41936946D01*
X169492208Y-41936946D02*
X169301732Y-41936946D01*
X169920780Y-42365518D02*
X169920780Y-41365518D01*
X169920780Y-41365518D02*
X170492208Y-42365518D01*
X170492208Y-42365518D02*
X170492208Y-41365518D01*
X170968399Y-42365518D02*
X170968399Y-41365518D01*
X170968399Y-41365518D02*
X171206494Y-41365518D01*
X171206494Y-41365518D02*
X171349351Y-41413137D01*
X171349351Y-41413137D02*
X171444589Y-41508375D01*
X171444589Y-41508375D02*
X171492208Y-41603613D01*
X171492208Y-41603613D02*
X171539827Y-41794089D01*
X171539827Y-41794089D02*
X171539827Y-41936946D01*
X171539827Y-41936946D02*
X171492208Y-42127422D01*
X171492208Y-42127422D02*
X171444589Y-42222660D01*
X171444589Y-42222660D02*
X171349351Y-42317899D01*
X171349351Y-42317899D02*
X171206494Y-42365518D01*
X171206494Y-42365518D02*
X170968399Y-42365518D01*
X168920780Y-44905518D02*
X168920780Y-43905518D01*
X168920780Y-43905518D02*
X169158875Y-43905518D01*
X169158875Y-43905518D02*
X169301732Y-43953137D01*
X169301732Y-43953137D02*
X169396970Y-44048375D01*
X169396970Y-44048375D02*
X169444589Y-44143613D01*
X169444589Y-44143613D02*
X169492208Y-44334089D01*
X169492208Y-44334089D02*
X169492208Y-44476946D01*
X169492208Y-44476946D02*
X169444589Y-44667422D01*
X169444589Y-44667422D02*
X169396970Y-44762660D01*
X169396970Y-44762660D02*
X169301732Y-44857899D01*
X169301732Y-44857899D02*
X169158875Y-44905518D01*
X169158875Y-44905518D02*
X168920780Y-44905518D01*
X169920780Y-44905518D02*
X169920780Y-43905518D01*
X170396970Y-44905518D02*
X170396970Y-43905518D01*
X170396970Y-43905518D02*
X170968398Y-44905518D01*
X170968398Y-44905518D02*
X170968398Y-43905518D01*
X169492208Y-47350279D02*
X169444589Y-47397899D01*
X169444589Y-47397899D02*
X169301732Y-47445518D01*
X169301732Y-47445518D02*
X169206494Y-47445518D01*
X169206494Y-47445518D02*
X169063637Y-47397899D01*
X169063637Y-47397899D02*
X168968399Y-47302660D01*
X168968399Y-47302660D02*
X168920780Y-47207422D01*
X168920780Y-47207422D02*
X168873161Y-47016946D01*
X168873161Y-47016946D02*
X168873161Y-46874089D01*
X168873161Y-46874089D02*
X168920780Y-46683613D01*
X168920780Y-46683613D02*
X168968399Y-46588375D01*
X168968399Y-46588375D02*
X169063637Y-46493137D01*
X169063637Y-46493137D02*
X169206494Y-46445518D01*
X169206494Y-46445518D02*
X169301732Y-46445518D01*
X169301732Y-46445518D02*
X169444589Y-46493137D01*
X169444589Y-46493137D02*
X169492208Y-46540756D01*
X169873161Y-47397899D02*
X170016018Y-47445518D01*
X170016018Y-47445518D02*
X170254113Y-47445518D01*
X170254113Y-47445518D02*
X170349351Y-47397899D01*
X170349351Y-47397899D02*
X170396970Y-47350279D01*
X170396970Y-47350279D02*
X170444589Y-47255041D01*
X170444589Y-47255041D02*
X170444589Y-47159803D01*
X170444589Y-47159803D02*
X170396970Y-47064565D01*
X170396970Y-47064565D02*
X170349351Y-47016946D01*
X170349351Y-47016946D02*
X170254113Y-46969327D01*
X170254113Y-46969327D02*
X170063637Y-46921708D01*
X170063637Y-46921708D02*
X169968399Y-46874089D01*
X169968399Y-46874089D02*
X169920780Y-46826470D01*
X169920780Y-46826470D02*
X169873161Y-46731232D01*
X169873161Y-46731232D02*
X169873161Y-46635994D01*
X169873161Y-46635994D02*
X169920780Y-46540756D01*
X169920780Y-46540756D02*
X169968399Y-46493137D01*
X169968399Y-46493137D02*
X170063637Y-46445518D01*
X170063637Y-46445518D02*
X170301732Y-46445518D01*
X170301732Y-46445518D02*
X170444589Y-46493137D01*
X169492208Y-49890279D02*
X169444589Y-49937899D01*
X169444589Y-49937899D02*
X169301732Y-49985518D01*
X169301732Y-49985518D02*
X169206494Y-49985518D01*
X169206494Y-49985518D02*
X169063637Y-49937899D01*
X169063637Y-49937899D02*
X168968399Y-49842660D01*
X168968399Y-49842660D02*
X168920780Y-49747422D01*
X168920780Y-49747422D02*
X168873161Y-49556946D01*
X168873161Y-49556946D02*
X168873161Y-49414089D01*
X168873161Y-49414089D02*
X168920780Y-49223613D01*
X168920780Y-49223613D02*
X168968399Y-49128375D01*
X168968399Y-49128375D02*
X169063637Y-49033137D01*
X169063637Y-49033137D02*
X169206494Y-48985518D01*
X169206494Y-48985518D02*
X169301732Y-48985518D01*
X169301732Y-48985518D02*
X169444589Y-49033137D01*
X169444589Y-49033137D02*
X169492208Y-49080756D01*
X170396970Y-49985518D02*
X169920780Y-49985518D01*
X169920780Y-49985518D02*
X169920780Y-48985518D01*
X170730304Y-49985518D02*
X170730304Y-48985518D01*
X171301732Y-49985518D02*
X170873161Y-49414089D01*
X171301732Y-48985518D02*
X170730304Y-49556946D01*
D11*
X230666666Y-86304819D02*
X230333333Y-85828628D01*
X230095238Y-86304819D02*
X230095238Y-85304819D01*
X230095238Y-85304819D02*
X230476190Y-85304819D01*
X230476190Y-85304819D02*
X230571428Y-85352438D01*
X230571428Y-85352438D02*
X230619047Y-85400057D01*
X230619047Y-85400057D02*
X230666666Y-85495295D01*
X230666666Y-85495295D02*
X230666666Y-85638152D01*
X230666666Y-85638152D02*
X230619047Y-85733390D01*
X230619047Y-85733390D02*
X230571428Y-85781009D01*
X230571428Y-85781009D02*
X230476190Y-85828628D01*
X230476190Y-85828628D02*
X230095238Y-85828628D01*
X231095238Y-85781009D02*
X231428571Y-85781009D01*
X231571428Y-86304819D02*
X231095238Y-86304819D01*
X231095238Y-86304819D02*
X231095238Y-85304819D01*
X231095238Y-85304819D02*
X231571428Y-85304819D01*
X232333333Y-85781009D02*
X232000000Y-85781009D01*
X232000000Y-86304819D02*
X232000000Y-85304819D01*
X232000000Y-85304819D02*
X232476190Y-85304819D01*
X233000000Y-85304819D02*
X233000000Y-85542914D01*
X232761905Y-85447676D02*
X233000000Y-85542914D01*
X233000000Y-85542914D02*
X233238095Y-85447676D01*
X232857143Y-85733390D02*
X233000000Y-85542914D01*
X233000000Y-85542914D02*
X233142857Y-85733390D01*
X233761905Y-85304819D02*
X233761905Y-85542914D01*
X233523810Y-85447676D02*
X233761905Y-85542914D01*
X233761905Y-85542914D02*
X234000000Y-85447676D01*
X233619048Y-85733390D02*
X233761905Y-85542914D01*
X233761905Y-85542914D02*
X233904762Y-85733390D01*
X89077315Y-127805299D02*
X89220172Y-127852918D01*
X89220172Y-127852918D02*
X89458267Y-127852918D01*
X89458267Y-127852918D02*
X89553505Y-127805299D01*
X89553505Y-127805299D02*
X89601124Y-127757679D01*
X89601124Y-127757679D02*
X89648743Y-127662441D01*
X89648743Y-127662441D02*
X89648743Y-127567203D01*
X89648743Y-127567203D02*
X89601124Y-127471965D01*
X89601124Y-127471965D02*
X89553505Y-127424346D01*
X89553505Y-127424346D02*
X89458267Y-127376727D01*
X89458267Y-127376727D02*
X89267791Y-127329108D01*
X89267791Y-127329108D02*
X89172553Y-127281489D01*
X89172553Y-127281489D02*
X89124934Y-127233870D01*
X89124934Y-127233870D02*
X89077315Y-127138632D01*
X89077315Y-127138632D02*
X89077315Y-127043394D01*
X89077315Y-127043394D02*
X89124934Y-126948156D01*
X89124934Y-126948156D02*
X89172553Y-126900537D01*
X89172553Y-126900537D02*
X89267791Y-126852918D01*
X89267791Y-126852918D02*
X89505886Y-126852918D01*
X89505886Y-126852918D02*
X89648743Y-126900537D01*
X89982077Y-126852918D02*
X90220172Y-127852918D01*
X90220172Y-127852918D02*
X90410648Y-127138632D01*
X90410648Y-127138632D02*
X90601124Y-127852918D01*
X90601124Y-127852918D02*
X90839220Y-126852918D01*
X91172553Y-126948156D02*
X91220172Y-126900537D01*
X91220172Y-126900537D02*
X91315410Y-126852918D01*
X91315410Y-126852918D02*
X91553505Y-126852918D01*
X91553505Y-126852918D02*
X91648743Y-126900537D01*
X91648743Y-126900537D02*
X91696362Y-126948156D01*
X91696362Y-126948156D02*
X91743981Y-127043394D01*
X91743981Y-127043394D02*
X91743981Y-127138632D01*
X91743981Y-127138632D02*
X91696362Y-127281489D01*
X91696362Y-127281489D02*
X91124934Y-127852918D01*
X91124934Y-127852918D02*
X91743981Y-127852918D01*
X133436111Y-143907200D02*
X133578968Y-143954819D01*
X133578968Y-143954819D02*
X133817063Y-143954819D01*
X133817063Y-143954819D02*
X133912301Y-143907200D01*
X133912301Y-143907200D02*
X133959920Y-143859580D01*
X133959920Y-143859580D02*
X134007539Y-143764342D01*
X134007539Y-143764342D02*
X134007539Y-143669104D01*
X134007539Y-143669104D02*
X133959920Y-143573866D01*
X133959920Y-143573866D02*
X133912301Y-143526247D01*
X133912301Y-143526247D02*
X133817063Y-143478628D01*
X133817063Y-143478628D02*
X133626587Y-143431009D01*
X133626587Y-143431009D02*
X133531349Y-143383390D01*
X133531349Y-143383390D02*
X133483730Y-143335771D01*
X133483730Y-143335771D02*
X133436111Y-143240533D01*
X133436111Y-143240533D02*
X133436111Y-143145295D01*
X133436111Y-143145295D02*
X133483730Y-143050057D01*
X133483730Y-143050057D02*
X133531349Y-143002438D01*
X133531349Y-143002438D02*
X133626587Y-142954819D01*
X133626587Y-142954819D02*
X133864682Y-142954819D01*
X133864682Y-142954819D02*
X134007539Y-143002438D01*
X134340873Y-142954819D02*
X134578968Y-143954819D01*
X134578968Y-143954819D02*
X134769444Y-143240533D01*
X134769444Y-143240533D02*
X134959920Y-143954819D01*
X134959920Y-143954819D02*
X135198016Y-142954819D01*
X136007539Y-142954819D02*
X135817063Y-142954819D01*
X135817063Y-142954819D02*
X135721825Y-143002438D01*
X135721825Y-143002438D02*
X135674206Y-143050057D01*
X135674206Y-143050057D02*
X135578968Y-143192914D01*
X135578968Y-143192914D02*
X135531349Y-143383390D01*
X135531349Y-143383390D02*
X135531349Y-143764342D01*
X135531349Y-143764342D02*
X135578968Y-143859580D01*
X135578968Y-143859580D02*
X135626587Y-143907200D01*
X135626587Y-143907200D02*
X135721825Y-143954819D01*
X135721825Y-143954819D02*
X135912301Y-143954819D01*
X135912301Y-143954819D02*
X136007539Y-143907200D01*
X136007539Y-143907200D02*
X136055158Y-143859580D01*
X136055158Y-143859580D02*
X136102777Y-143764342D01*
X136102777Y-143764342D02*
X136102777Y-143526247D01*
X136102777Y-143526247D02*
X136055158Y-143431009D01*
X136055158Y-143431009D02*
X136007539Y-143383390D01*
X136007539Y-143383390D02*
X135912301Y-143335771D01*
X135912301Y-143335771D02*
X135721825Y-143335771D01*
X135721825Y-143335771D02*
X135626587Y-143383390D01*
X135626587Y-143383390D02*
X135578968Y-143431009D01*
X135578968Y-143431009D02*
X135531349Y-143526247D01*
X144169651Y-69969527D02*
X143693460Y-70302860D01*
X144169651Y-70540955D02*
X143169651Y-70540955D01*
X143169651Y-70540955D02*
X143169651Y-70160003D01*
X143169651Y-70160003D02*
X143217270Y-70064765D01*
X143217270Y-70064765D02*
X143264889Y-70017146D01*
X143264889Y-70017146D02*
X143360127Y-69969527D01*
X143360127Y-69969527D02*
X143502984Y-69969527D01*
X143502984Y-69969527D02*
X143598222Y-70017146D01*
X143598222Y-70017146D02*
X143645841Y-70064765D01*
X143645841Y-70064765D02*
X143693460Y-70160003D01*
X143693460Y-70160003D02*
X143693460Y-70540955D01*
X143169651Y-69683812D02*
X144169651Y-69350479D01*
X144169651Y-69350479D02*
X143169651Y-69017146D01*
X144169651Y-68160003D02*
X144169651Y-68731431D01*
X144169651Y-68445717D02*
X143169651Y-68445717D01*
X143169651Y-68445717D02*
X143312508Y-68540955D01*
X143312508Y-68540955D02*
X143407746Y-68636193D01*
X143407746Y-68636193D02*
X143455365Y-68731431D01*
X143169651Y-67540955D02*
X143169651Y-67445717D01*
X143169651Y-67445717D02*
X143217270Y-67350479D01*
X143217270Y-67350479D02*
X143264889Y-67302860D01*
X143264889Y-67302860D02*
X143360127Y-67255241D01*
X143360127Y-67255241D02*
X143550603Y-67207622D01*
X143550603Y-67207622D02*
X143788698Y-67207622D01*
X143788698Y-67207622D02*
X143979174Y-67255241D01*
X143979174Y-67255241D02*
X144074412Y-67302860D01*
X144074412Y-67302860D02*
X144122032Y-67350479D01*
X144122032Y-67350479D02*
X144169651Y-67445717D01*
X144169651Y-67445717D02*
X144169651Y-67540955D01*
X144169651Y-67540955D02*
X144122032Y-67636193D01*
X144122032Y-67636193D02*
X144074412Y-67683812D01*
X144074412Y-67683812D02*
X143979174Y-67731431D01*
X143979174Y-67731431D02*
X143788698Y-67779050D01*
X143788698Y-67779050D02*
X143550603Y-67779050D01*
X143550603Y-67779050D02*
X143360127Y-67731431D01*
X143360127Y-67731431D02*
X143264889Y-67683812D01*
X143264889Y-67683812D02*
X143217270Y-67636193D01*
X143217270Y-67636193D02*
X143169651Y-67540955D01*
X151471885Y-86395238D02*
X150995694Y-86728571D01*
X151471885Y-86966666D02*
X150471885Y-86966666D01*
X150471885Y-86966666D02*
X150471885Y-86585714D01*
X150471885Y-86585714D02*
X150519504Y-86490476D01*
X150519504Y-86490476D02*
X150567123Y-86442857D01*
X150567123Y-86442857D02*
X150662361Y-86395238D01*
X150662361Y-86395238D02*
X150805218Y-86395238D01*
X150805218Y-86395238D02*
X150900456Y-86442857D01*
X150900456Y-86442857D02*
X150948075Y-86490476D01*
X150948075Y-86490476D02*
X150995694Y-86585714D01*
X150995694Y-86585714D02*
X150995694Y-86966666D01*
X150471885Y-86109523D02*
X151471885Y-85776190D01*
X151471885Y-85776190D02*
X150471885Y-85442857D01*
X151471885Y-85061904D02*
X151471885Y-84871428D01*
X151471885Y-84871428D02*
X151424266Y-84776190D01*
X151424266Y-84776190D02*
X151376646Y-84728571D01*
X151376646Y-84728571D02*
X151233789Y-84633333D01*
X151233789Y-84633333D02*
X151043313Y-84585714D01*
X151043313Y-84585714D02*
X150662361Y-84585714D01*
X150662361Y-84585714D02*
X150567123Y-84633333D01*
X150567123Y-84633333D02*
X150519504Y-84680952D01*
X150519504Y-84680952D02*
X150471885Y-84776190D01*
X150471885Y-84776190D02*
X150471885Y-84966666D01*
X150471885Y-84966666D02*
X150519504Y-85061904D01*
X150519504Y-85061904D02*
X150567123Y-85109523D01*
X150567123Y-85109523D02*
X150662361Y-85157142D01*
X150662361Y-85157142D02*
X150900456Y-85157142D01*
X150900456Y-85157142D02*
X150995694Y-85109523D01*
X150995694Y-85109523D02*
X151043313Y-85061904D01*
X151043313Y-85061904D02*
X151090932Y-84966666D01*
X151090932Y-84966666D02*
X151090932Y-84776190D01*
X151090932Y-84776190D02*
X151043313Y-84680952D01*
X151043313Y-84680952D02*
X150995694Y-84633333D01*
X150995694Y-84633333D02*
X150900456Y-84585714D01*
X58940476Y-143907200D02*
X59083333Y-143954819D01*
X59083333Y-143954819D02*
X59321428Y-143954819D01*
X59321428Y-143954819D02*
X59416666Y-143907200D01*
X59416666Y-143907200D02*
X59464285Y-143859580D01*
X59464285Y-143859580D02*
X59511904Y-143764342D01*
X59511904Y-143764342D02*
X59511904Y-143669104D01*
X59511904Y-143669104D02*
X59464285Y-143573866D01*
X59464285Y-143573866D02*
X59416666Y-143526247D01*
X59416666Y-143526247D02*
X59321428Y-143478628D01*
X59321428Y-143478628D02*
X59130952Y-143431009D01*
X59130952Y-143431009D02*
X59035714Y-143383390D01*
X59035714Y-143383390D02*
X58988095Y-143335771D01*
X58988095Y-143335771D02*
X58940476Y-143240533D01*
X58940476Y-143240533D02*
X58940476Y-143145295D01*
X58940476Y-143145295D02*
X58988095Y-143050057D01*
X58988095Y-143050057D02*
X59035714Y-143002438D01*
X59035714Y-143002438D02*
X59130952Y-142954819D01*
X59130952Y-142954819D02*
X59369047Y-142954819D01*
X59369047Y-142954819D02*
X59511904Y-143002438D01*
X59845238Y-142954819D02*
X60083333Y-143954819D01*
X60083333Y-143954819D02*
X60273809Y-143240533D01*
X60273809Y-143240533D02*
X60464285Y-143954819D01*
X60464285Y-143954819D02*
X60702381Y-142954819D01*
X61607142Y-143954819D02*
X61035714Y-143954819D01*
X61321428Y-143954819D02*
X61321428Y-142954819D01*
X61321428Y-142954819D02*
X61226190Y-143097676D01*
X61226190Y-143097676D02*
X61130952Y-143192914D01*
X61130952Y-143192914D02*
X61035714Y-143240533D01*
X62178571Y-143383390D02*
X62083333Y-143335771D01*
X62083333Y-143335771D02*
X62035714Y-143288152D01*
X62035714Y-143288152D02*
X61988095Y-143192914D01*
X61988095Y-143192914D02*
X61988095Y-143145295D01*
X61988095Y-143145295D02*
X62035714Y-143050057D01*
X62035714Y-143050057D02*
X62083333Y-143002438D01*
X62083333Y-143002438D02*
X62178571Y-142954819D01*
X62178571Y-142954819D02*
X62369047Y-142954819D01*
X62369047Y-142954819D02*
X62464285Y-143002438D01*
X62464285Y-143002438D02*
X62511904Y-143050057D01*
X62511904Y-143050057D02*
X62559523Y-143145295D01*
X62559523Y-143145295D02*
X62559523Y-143192914D01*
X62559523Y-143192914D02*
X62511904Y-143288152D01*
X62511904Y-143288152D02*
X62464285Y-143335771D01*
X62464285Y-143335771D02*
X62369047Y-143383390D01*
X62369047Y-143383390D02*
X62178571Y-143383390D01*
X62178571Y-143383390D02*
X62083333Y-143431009D01*
X62083333Y-143431009D02*
X62035714Y-143478628D01*
X62035714Y-143478628D02*
X61988095Y-143573866D01*
X61988095Y-143573866D02*
X61988095Y-143764342D01*
X61988095Y-143764342D02*
X62035714Y-143859580D01*
X62035714Y-143859580D02*
X62083333Y-143907200D01*
X62083333Y-143907200D02*
X62178571Y-143954819D01*
X62178571Y-143954819D02*
X62369047Y-143954819D01*
X62369047Y-143954819D02*
X62464285Y-143907200D01*
X62464285Y-143907200D02*
X62511904Y-143859580D01*
X62511904Y-143859580D02*
X62559523Y-143764342D01*
X62559523Y-143764342D02*
X62559523Y-143573866D01*
X62559523Y-143573866D02*
X62511904Y-143478628D01*
X62511904Y-143478628D02*
X62464285Y-143431009D01*
X62464285Y-143431009D02*
X62369047Y-143383390D01*
X97949074Y-143907200D02*
X98091931Y-143954819D01*
X98091931Y-143954819D02*
X98330026Y-143954819D01*
X98330026Y-143954819D02*
X98425264Y-143907200D01*
X98425264Y-143907200D02*
X98472883Y-143859580D01*
X98472883Y-143859580D02*
X98520502Y-143764342D01*
X98520502Y-143764342D02*
X98520502Y-143669104D01*
X98520502Y-143669104D02*
X98472883Y-143573866D01*
X98472883Y-143573866D02*
X98425264Y-143526247D01*
X98425264Y-143526247D02*
X98330026Y-143478628D01*
X98330026Y-143478628D02*
X98139550Y-143431009D01*
X98139550Y-143431009D02*
X98044312Y-143383390D01*
X98044312Y-143383390D02*
X97996693Y-143335771D01*
X97996693Y-143335771D02*
X97949074Y-143240533D01*
X97949074Y-143240533D02*
X97949074Y-143145295D01*
X97949074Y-143145295D02*
X97996693Y-143050057D01*
X97996693Y-143050057D02*
X98044312Y-143002438D01*
X98044312Y-143002438D02*
X98139550Y-142954819D01*
X98139550Y-142954819D02*
X98377645Y-142954819D01*
X98377645Y-142954819D02*
X98520502Y-143002438D01*
X98853836Y-142954819D02*
X99091931Y-143954819D01*
X99091931Y-143954819D02*
X99282407Y-143240533D01*
X99282407Y-143240533D02*
X99472883Y-143954819D01*
X99472883Y-143954819D02*
X99710979Y-142954819D01*
X99996693Y-142954819D02*
X100615740Y-142954819D01*
X100615740Y-142954819D02*
X100282407Y-143335771D01*
X100282407Y-143335771D02*
X100425264Y-143335771D01*
X100425264Y-143335771D02*
X100520502Y-143383390D01*
X100520502Y-143383390D02*
X100568121Y-143431009D01*
X100568121Y-143431009D02*
X100615740Y-143526247D01*
X100615740Y-143526247D02*
X100615740Y-143764342D01*
X100615740Y-143764342D02*
X100568121Y-143859580D01*
X100568121Y-143859580D02*
X100520502Y-143907200D01*
X100520502Y-143907200D02*
X100425264Y-143954819D01*
X100425264Y-143954819D02*
X100139550Y-143954819D01*
X100139550Y-143954819D02*
X100044312Y-143907200D01*
X100044312Y-143907200D02*
X99996693Y-143859580D01*
X120744651Y-86395238D02*
X120268460Y-86728571D01*
X120744651Y-86966666D02*
X119744651Y-86966666D01*
X119744651Y-86966666D02*
X119744651Y-86585714D01*
X119744651Y-86585714D02*
X119792270Y-86490476D01*
X119792270Y-86490476D02*
X119839889Y-86442857D01*
X119839889Y-86442857D02*
X119935127Y-86395238D01*
X119935127Y-86395238D02*
X120077984Y-86395238D01*
X120077984Y-86395238D02*
X120173222Y-86442857D01*
X120173222Y-86442857D02*
X120220841Y-86490476D01*
X120220841Y-86490476D02*
X120268460Y-86585714D01*
X120268460Y-86585714D02*
X120268460Y-86966666D01*
X119744651Y-86109523D02*
X120744651Y-85776190D01*
X120744651Y-85776190D02*
X119744651Y-85442857D01*
X119744651Y-85204761D02*
X119744651Y-84538095D01*
X119744651Y-84538095D02*
X120744651Y-84966666D01*
X71279819Y-54595238D02*
X70803628Y-54928571D01*
X71279819Y-55166666D02*
X70279819Y-55166666D01*
X70279819Y-55166666D02*
X70279819Y-54785714D01*
X70279819Y-54785714D02*
X70327438Y-54690476D01*
X70327438Y-54690476D02*
X70375057Y-54642857D01*
X70375057Y-54642857D02*
X70470295Y-54595238D01*
X70470295Y-54595238D02*
X70613152Y-54595238D01*
X70613152Y-54595238D02*
X70708390Y-54642857D01*
X70708390Y-54642857D02*
X70756009Y-54690476D01*
X70756009Y-54690476D02*
X70803628Y-54785714D01*
X70803628Y-54785714D02*
X70803628Y-55166666D01*
X70279819Y-54309523D02*
X71279819Y-53976190D01*
X71279819Y-53976190D02*
X70279819Y-53642857D01*
X70279819Y-53404761D02*
X70279819Y-52785714D01*
X70279819Y-52785714D02*
X70660771Y-53119047D01*
X70660771Y-53119047D02*
X70660771Y-52976190D01*
X70660771Y-52976190D02*
X70708390Y-52880952D01*
X70708390Y-52880952D02*
X70756009Y-52833333D01*
X70756009Y-52833333D02*
X70851247Y-52785714D01*
X70851247Y-52785714D02*
X71089342Y-52785714D01*
X71089342Y-52785714D02*
X71184580Y-52833333D01*
X71184580Y-52833333D02*
X71232200Y-52880952D01*
X71232200Y-52880952D02*
X71279819Y-52976190D01*
X71279819Y-52976190D02*
X71279819Y-53261904D01*
X71279819Y-53261904D02*
X71232200Y-53357142D01*
X71232200Y-53357142D02*
X71184580Y-53404761D01*
X153666666Y-31304819D02*
X153333333Y-30828628D01*
X153095238Y-31304819D02*
X153095238Y-30304819D01*
X153095238Y-30304819D02*
X153476190Y-30304819D01*
X153476190Y-30304819D02*
X153571428Y-30352438D01*
X153571428Y-30352438D02*
X153619047Y-30400057D01*
X153619047Y-30400057D02*
X153666666Y-30495295D01*
X153666666Y-30495295D02*
X153666666Y-30638152D01*
X153666666Y-30638152D02*
X153619047Y-30733390D01*
X153619047Y-30733390D02*
X153571428Y-30781009D01*
X153571428Y-30781009D02*
X153476190Y-30828628D01*
X153476190Y-30828628D02*
X153095238Y-30828628D01*
X154095238Y-30781009D02*
X154428571Y-30781009D01*
X154571428Y-31304819D02*
X154095238Y-31304819D01*
X154095238Y-31304819D02*
X154095238Y-30304819D01*
X154095238Y-30304819D02*
X154571428Y-30304819D01*
X155333333Y-30781009D02*
X155000000Y-30781009D01*
X155000000Y-31304819D02*
X155000000Y-30304819D01*
X155000000Y-30304819D02*
X155476190Y-30304819D01*
X156000000Y-30304819D02*
X156000000Y-30542914D01*
X155761905Y-30447676D02*
X156000000Y-30542914D01*
X156000000Y-30542914D02*
X156238095Y-30447676D01*
X155857143Y-30733390D02*
X156000000Y-30542914D01*
X156000000Y-30542914D02*
X156142857Y-30733390D01*
X156761905Y-30304819D02*
X156761905Y-30542914D01*
X156523810Y-30447676D02*
X156761905Y-30542914D01*
X156761905Y-30542914D02*
X157000000Y-30447676D01*
X156619048Y-30733390D02*
X156761905Y-30542914D01*
X156761905Y-30542914D02*
X156904762Y-30733390D01*
X180804819Y-90921428D02*
X180328628Y-91254761D01*
X180804819Y-91492856D02*
X179804819Y-91492856D01*
X179804819Y-91492856D02*
X179804819Y-91111904D01*
X179804819Y-91111904D02*
X179852438Y-91016666D01*
X179852438Y-91016666D02*
X179900057Y-90969047D01*
X179900057Y-90969047D02*
X179995295Y-90921428D01*
X179995295Y-90921428D02*
X180138152Y-90921428D01*
X180138152Y-90921428D02*
X180233390Y-90969047D01*
X180233390Y-90969047D02*
X180281009Y-91016666D01*
X180281009Y-91016666D02*
X180328628Y-91111904D01*
X180328628Y-91111904D02*
X180328628Y-91492856D01*
X179804819Y-90635713D02*
X180804819Y-90302380D01*
X180804819Y-90302380D02*
X179804819Y-89969047D01*
X180804819Y-89111904D02*
X180804819Y-89683332D01*
X180804819Y-89397618D02*
X179804819Y-89397618D01*
X179804819Y-89397618D02*
X179947676Y-89492856D01*
X179947676Y-89492856D02*
X180042914Y-89588094D01*
X180042914Y-89588094D02*
X180090533Y-89683332D01*
X179804819Y-88778570D02*
X179804819Y-88159523D01*
X179804819Y-88159523D02*
X180185771Y-88492856D01*
X180185771Y-88492856D02*
X180185771Y-88349999D01*
X180185771Y-88349999D02*
X180233390Y-88254761D01*
X180233390Y-88254761D02*
X180281009Y-88207142D01*
X180281009Y-88207142D02*
X180376247Y-88159523D01*
X180376247Y-88159523D02*
X180614342Y-88159523D01*
X180614342Y-88159523D02*
X180709580Y-88207142D01*
X180709580Y-88207142D02*
X180757200Y-88254761D01*
X180757200Y-88254761D02*
X180804819Y-88349999D01*
X180804819Y-88349999D02*
X180804819Y-88635713D01*
X180804819Y-88635713D02*
X180757200Y-88730951D01*
X180757200Y-88730951D02*
X180709580Y-88778570D01*
X160051389Y-127805299D02*
X160194246Y-127852918D01*
X160194246Y-127852918D02*
X160432341Y-127852918D01*
X160432341Y-127852918D02*
X160527579Y-127805299D01*
X160527579Y-127805299D02*
X160575198Y-127757679D01*
X160575198Y-127757679D02*
X160622817Y-127662441D01*
X160622817Y-127662441D02*
X160622817Y-127567203D01*
X160622817Y-127567203D02*
X160575198Y-127471965D01*
X160575198Y-127471965D02*
X160527579Y-127424346D01*
X160527579Y-127424346D02*
X160432341Y-127376727D01*
X160432341Y-127376727D02*
X160241865Y-127329108D01*
X160241865Y-127329108D02*
X160146627Y-127281489D01*
X160146627Y-127281489D02*
X160099008Y-127233870D01*
X160099008Y-127233870D02*
X160051389Y-127138632D01*
X160051389Y-127138632D02*
X160051389Y-127043394D01*
X160051389Y-127043394D02*
X160099008Y-126948156D01*
X160099008Y-126948156D02*
X160146627Y-126900537D01*
X160146627Y-126900537D02*
X160241865Y-126852918D01*
X160241865Y-126852918D02*
X160479960Y-126852918D01*
X160479960Y-126852918D02*
X160622817Y-126900537D01*
X160956151Y-126852918D02*
X161194246Y-127852918D01*
X161194246Y-127852918D02*
X161384722Y-127138632D01*
X161384722Y-127138632D02*
X161575198Y-127852918D01*
X161575198Y-127852918D02*
X161813294Y-126852918D01*
X162241865Y-127852918D02*
X162432341Y-127852918D01*
X162432341Y-127852918D02*
X162527579Y-127805299D01*
X162527579Y-127805299D02*
X162575198Y-127757679D01*
X162575198Y-127757679D02*
X162670436Y-127614822D01*
X162670436Y-127614822D02*
X162718055Y-127424346D01*
X162718055Y-127424346D02*
X162718055Y-127043394D01*
X162718055Y-127043394D02*
X162670436Y-126948156D01*
X162670436Y-126948156D02*
X162622817Y-126900537D01*
X162622817Y-126900537D02*
X162527579Y-126852918D01*
X162527579Y-126852918D02*
X162337103Y-126852918D01*
X162337103Y-126852918D02*
X162241865Y-126900537D01*
X162241865Y-126900537D02*
X162194246Y-126948156D01*
X162194246Y-126948156D02*
X162146627Y-127043394D01*
X162146627Y-127043394D02*
X162146627Y-127281489D01*
X162146627Y-127281489D02*
X162194246Y-127376727D01*
X162194246Y-127376727D02*
X162241865Y-127424346D01*
X162241865Y-127424346D02*
X162337103Y-127471965D01*
X162337103Y-127471965D02*
X162527579Y-127471965D01*
X162527579Y-127471965D02*
X162622817Y-127424346D01*
X162622817Y-127424346D02*
X162670436Y-127376727D01*
X162670436Y-127376727D02*
X162718055Y-127281489D01*
X186190476Y-143907200D02*
X186333333Y-143954819D01*
X186333333Y-143954819D02*
X186571428Y-143954819D01*
X186571428Y-143954819D02*
X186666666Y-143907200D01*
X186666666Y-143907200D02*
X186714285Y-143859580D01*
X186714285Y-143859580D02*
X186761904Y-143764342D01*
X186761904Y-143764342D02*
X186761904Y-143669104D01*
X186761904Y-143669104D02*
X186714285Y-143573866D01*
X186714285Y-143573866D02*
X186666666Y-143526247D01*
X186666666Y-143526247D02*
X186571428Y-143478628D01*
X186571428Y-143478628D02*
X186380952Y-143431009D01*
X186380952Y-143431009D02*
X186285714Y-143383390D01*
X186285714Y-143383390D02*
X186238095Y-143335771D01*
X186238095Y-143335771D02*
X186190476Y-143240533D01*
X186190476Y-143240533D02*
X186190476Y-143145295D01*
X186190476Y-143145295D02*
X186238095Y-143050057D01*
X186238095Y-143050057D02*
X186285714Y-143002438D01*
X186285714Y-143002438D02*
X186380952Y-142954819D01*
X186380952Y-142954819D02*
X186619047Y-142954819D01*
X186619047Y-142954819D02*
X186761904Y-143002438D01*
X187095238Y-142954819D02*
X187333333Y-143954819D01*
X187333333Y-143954819D02*
X187523809Y-143240533D01*
X187523809Y-143240533D02*
X187714285Y-143954819D01*
X187714285Y-143954819D02*
X187952381Y-142954819D01*
X188857142Y-143954819D02*
X188285714Y-143954819D01*
X188571428Y-143954819D02*
X188571428Y-142954819D01*
X188571428Y-142954819D02*
X188476190Y-143097676D01*
X188476190Y-143097676D02*
X188380952Y-143192914D01*
X188380952Y-143192914D02*
X188285714Y-143240533D01*
X189238095Y-143050057D02*
X189285714Y-143002438D01*
X189285714Y-143002438D02*
X189380952Y-142954819D01*
X189380952Y-142954819D02*
X189619047Y-142954819D01*
X189619047Y-142954819D02*
X189714285Y-143002438D01*
X189714285Y-143002438D02*
X189761904Y-143050057D01*
X189761904Y-143050057D02*
X189809523Y-143145295D01*
X189809523Y-143145295D02*
X189809523Y-143240533D01*
X189809523Y-143240533D02*
X189761904Y-143383390D01*
X189761904Y-143383390D02*
X189190476Y-143954819D01*
X189190476Y-143954819D02*
X189809523Y-143954819D01*
D12*
X110898928Y-137373002D02*
X110898928Y-139819704D01*
X110898928Y-142180296D02*
X110898928Y-144819704D01*
X110898928Y-147180296D02*
X110898928Y-149626998D01*
X110898928Y-149626998D02*
X123152924Y-149626998D01*
X123152924Y-137373002D02*
X110898928Y-137373002D01*
X123152924Y-139819704D02*
X123152924Y-137373002D01*
X123152924Y-144819704D02*
X123152924Y-142180296D01*
X123152924Y-149626998D02*
X123152924Y-147180296D01*
D13*
X110902926Y-135920000D02*
G75*
G02*
X110648926Y-135920000I-127000J0D01*
G01*
X110648926Y-135920000D02*
G75*
G02*
X110902926Y-135920000I127000J0D01*
G01*
D12*
X54623002Y-48624903D02*
X54623002Y-51071605D01*
X54623002Y-53432197D02*
X54623002Y-56071605D01*
X54623002Y-58432197D02*
X54623002Y-60878899D01*
X54623002Y-60878899D02*
X66876998Y-60878899D01*
X66876998Y-48624903D02*
X54623002Y-48624903D01*
X66876998Y-51071605D02*
X66876998Y-48624903D01*
X66876998Y-56071605D02*
X66876998Y-53432197D01*
X66876998Y-60878899D02*
X66876998Y-58432197D01*
D13*
X54627000Y-47171901D02*
G75*
G02*
X54373000Y-47171901I-127000J0D01*
G01*
X54373000Y-47171901D02*
G75*
G02*
X54627000Y-47171901I127000J0D01*
G01*
D14*
X73454000Y-71578099D02*
X83495000Y-71578099D01*
X73454000Y-75514099D02*
X73454000Y-71578099D01*
X73454000Y-83818099D02*
X73454000Y-79881099D01*
X73454000Y-83818099D02*
X74775000Y-83818099D01*
X77225000Y-83818099D02*
X77605000Y-83818099D01*
X79346000Y-83818099D02*
X80105000Y-83818099D01*
X81845000Y-83818099D02*
X83495000Y-83818099D01*
X83495000Y-75514099D02*
X83495000Y-71578099D01*
X83495000Y-83818099D02*
X83495000Y-79881099D01*
D12*
X102027169Y-121271101D02*
X102027169Y-123717803D01*
X102027169Y-126078395D02*
X102027169Y-128717803D01*
X102027169Y-131078395D02*
X102027169Y-133525097D01*
X102027169Y-133525097D02*
X114281165Y-133525097D01*
X114281165Y-121271101D02*
X102027169Y-121271101D01*
X114281165Y-123717803D02*
X114281165Y-121271101D01*
X114281165Y-128717803D02*
X114281165Y-126078395D01*
X114281165Y-133525097D02*
X114281165Y-131078395D01*
D13*
X102031167Y-119818099D02*
G75*
G02*
X101777167Y-119818099I-127000J0D01*
G01*
X101777167Y-119818099D02*
G75*
G02*
X102031167Y-119818099I127000J0D01*
G01*
D12*
X54623002Y-30065644D02*
X54623002Y-32512346D01*
X54623002Y-34872938D02*
X54623002Y-37512346D01*
X54623002Y-39872938D02*
X54623002Y-42319640D01*
X54623002Y-42319640D02*
X66876998Y-42319640D01*
X66876998Y-30065644D02*
X54623002Y-30065644D01*
X66876998Y-32512346D02*
X66876998Y-30065644D01*
X66876998Y-37512346D02*
X66876998Y-34872938D01*
X66876998Y-42319640D02*
X66876998Y-39872938D01*
D13*
X54627000Y-28612642D02*
G75*
G02*
X54373000Y-28612642I-127000J0D01*
G01*
X54373000Y-28612642D02*
G75*
G02*
X54627000Y-28612642I127000J0D01*
G01*
D14*
X91179000Y-46930000D02*
X101220000Y-46930000D01*
X91179000Y-50866000D02*
X91179000Y-46930000D01*
X91179000Y-59170000D02*
X91179000Y-55233000D01*
X91179000Y-59170000D02*
X92500000Y-59170000D01*
X94950000Y-59170000D02*
X95330000Y-59170000D01*
X97071000Y-59170000D02*
X97830000Y-59170000D01*
X99570000Y-59170000D02*
X101220000Y-59170000D01*
X101220000Y-50866000D02*
X101220000Y-46930000D01*
X101220000Y-59170000D02*
X101220000Y-55233000D01*
X139041597Y-78730000D02*
X149082597Y-78730000D01*
X139041597Y-82666000D02*
X139041597Y-78730000D01*
X139041597Y-90970000D02*
X139041597Y-87033000D01*
X139041597Y-90970000D02*
X140362597Y-90970000D01*
X142812597Y-90970000D02*
X143192597Y-90970000D01*
X144933597Y-90970000D02*
X145692597Y-90970000D01*
X147432597Y-90970000D02*
X149082597Y-90970000D01*
X149082597Y-82666000D02*
X149082597Y-78730000D01*
X149082597Y-90970000D02*
X149082597Y-87033000D01*
D12*
X75411891Y-137373002D02*
X75411891Y-139819704D01*
X75411891Y-142180296D02*
X75411891Y-144819704D01*
X75411891Y-147180296D02*
X75411891Y-149626998D01*
X75411891Y-149626998D02*
X87665887Y-149626998D01*
X87665887Y-137373002D02*
X75411891Y-137373002D01*
X87665887Y-139819704D02*
X87665887Y-137373002D01*
X87665887Y-144819704D02*
X87665887Y-142180296D01*
X87665887Y-149626998D02*
X87665887Y-147180296D01*
D13*
X75415889Y-135920000D02*
G75*
G02*
X75161889Y-135920000I-127000J0D01*
G01*
X75161889Y-135920000D02*
G75*
G02*
X75415889Y-135920000I127000J0D01*
G01*
D12*
X197873002Y-92624903D02*
X197873002Y-95071605D01*
X197873002Y-97432197D02*
X197873002Y-100071605D01*
X197873002Y-102432197D02*
X197873002Y-104878899D01*
X197873002Y-104878899D02*
X210126998Y-104878899D01*
X210126998Y-92624903D02*
X197873002Y-92624903D01*
X210126998Y-95071605D02*
X210126998Y-92624903D01*
X210126998Y-100071605D02*
X210126998Y-97432197D01*
X210126998Y-104878899D02*
X210126998Y-102432197D01*
D13*
X197877000Y-91171901D02*
G75*
G02*
X197623000Y-91171901I-127000J0D01*
G01*
X197623000Y-91171901D02*
G75*
G02*
X197877000Y-91171901I127000J0D01*
G01*
D14*
X182979000Y-99080000D02*
X193020000Y-99080000D01*
X182979000Y-103016000D02*
X182979000Y-99080000D01*
X182979000Y-111320000D02*
X182979000Y-107383000D01*
X182979000Y-111320000D02*
X184300000Y-111320000D01*
X186750000Y-111320000D02*
X187130000Y-111320000D01*
X188871000Y-111320000D02*
X189630000Y-111320000D01*
X191370000Y-111320000D02*
X193020000Y-111320000D01*
X193020000Y-103016000D02*
X193020000Y-99080000D01*
X193020000Y-111320000D02*
X193020000Y-107383000D01*
D12*
X129874216Y-63523002D02*
X129874216Y-65969704D01*
X129874216Y-68330296D02*
X129874216Y-70969704D01*
X129874216Y-73330296D02*
X129874216Y-75776998D01*
X129874216Y-75776998D02*
X142128212Y-75776998D01*
X142128212Y-63523002D02*
X129874216Y-63523002D01*
X142128212Y-65969704D02*
X142128212Y-63523002D01*
X142128212Y-70969704D02*
X142128212Y-68330296D01*
X142128212Y-75776998D02*
X142128212Y-73330296D01*
D13*
X129878214Y-62070000D02*
G75*
G02*
X129624214Y-62070000I-127000J0D01*
G01*
X129624214Y-62070000D02*
G75*
G02*
X129878214Y-62070000I127000J0D01*
G01*
D14*
X168879000Y-61930000D02*
X178920000Y-61930000D01*
X168879000Y-65866000D02*
X168879000Y-61930000D01*
X168879000Y-74170000D02*
X168879000Y-70233000D01*
X168879000Y-74170000D02*
X170200000Y-74170000D01*
X172650000Y-74170000D02*
X173030000Y-74170000D01*
X174771000Y-74170000D02*
X175530000Y-74170000D01*
X177270000Y-74170000D02*
X178920000Y-74170000D01*
X178920000Y-65866000D02*
X178920000Y-61930000D01*
X178920000Y-74170000D02*
X178920000Y-70233000D01*
D12*
X146385965Y-137373002D02*
X146385965Y-139819704D01*
X146385965Y-142180296D02*
X146385965Y-144819704D01*
X146385965Y-147180296D02*
X146385965Y-149626998D01*
X146385965Y-149626998D02*
X158639961Y-149626998D01*
X158639961Y-137373002D02*
X146385965Y-137373002D01*
X158639961Y-139819704D02*
X158639961Y-137373002D01*
X158639961Y-144819704D02*
X158639961Y-142180296D01*
X158639961Y-149626998D02*
X158639961Y-147180296D01*
D13*
X146389963Y-135920000D02*
G75*
G02*
X146135963Y-135920000I-127000J0D01*
G01*
X146135963Y-135920000D02*
G75*
G02*
X146389963Y-135920000I127000J0D01*
G01*
D12*
X54623002Y-73273002D02*
X54623002Y-75719704D01*
X54623002Y-78080296D02*
X54623002Y-80719704D01*
X54623002Y-83080296D02*
X54623002Y-85526998D01*
X54623002Y-85526998D02*
X66876998Y-85526998D01*
X66876998Y-73273002D02*
X54623002Y-73273002D01*
X66876998Y-75719704D02*
X66876998Y-73273002D01*
X66876998Y-80719704D02*
X66876998Y-78080296D01*
X66876998Y-85526998D02*
X66876998Y-83080296D01*
D13*
X54627000Y-71820000D02*
G75*
G02*
X54373000Y-71820000I-127000J0D01*
G01*
X54373000Y-71820000D02*
G75*
G02*
X54627000Y-71820000I127000J0D01*
G01*
D12*
X113751450Y-63523002D02*
X113751450Y-65969704D01*
X113751450Y-68330296D02*
X113751450Y-70969704D01*
X113751450Y-73330296D02*
X113751450Y-75776998D01*
X113751450Y-75776998D02*
X126005446Y-75776998D01*
X126005446Y-63523002D02*
X113751450Y-63523002D01*
X126005446Y-65969704D02*
X126005446Y-63523002D01*
X126005446Y-70969704D02*
X126005446Y-68330296D01*
X126005446Y-75776998D02*
X126005446Y-73330296D01*
D13*
X113755448Y-62070000D02*
G75*
G02*
X113501448Y-62070000I-127000J0D01*
G01*
X113501448Y-62070000D02*
G75*
G02*
X113755448Y-62070000I127000J0D01*
G01*
D12*
X119770687Y-121271101D02*
X119770687Y-123717803D01*
X119770687Y-126078395D02*
X119770687Y-128717803D01*
X119770687Y-131078395D02*
X119770687Y-133525097D01*
X119770687Y-133525097D02*
X132024683Y-133525097D01*
X132024683Y-121271101D02*
X119770687Y-121271101D01*
X132024683Y-123717803D02*
X132024683Y-121271101D01*
X132024683Y-128717803D02*
X132024683Y-126078395D01*
X132024683Y-133525097D02*
X132024683Y-131078395D01*
D13*
X119774685Y-119818099D02*
G75*
G02*
X119520685Y-119818099I-127000J0D01*
G01*
X119520685Y-119818099D02*
G75*
G02*
X119774685Y-119818099I127000J0D01*
G01*
D12*
X54623002Y-121271101D02*
X54623002Y-123717803D01*
X54623002Y-126078395D02*
X54623002Y-128717803D01*
X54623002Y-131078395D02*
X54623002Y-133525097D01*
X54623002Y-133525097D02*
X66876998Y-133525097D01*
X66876998Y-121271101D02*
X54623002Y-121271101D01*
X66876998Y-123717803D02*
X66876998Y-121271101D01*
X66876998Y-128717803D02*
X66876998Y-126078395D01*
X66876998Y-133525097D02*
X66876998Y-131078395D01*
D13*
X54627000Y-119818099D02*
G75*
G02*
X54373000Y-119818099I-127000J0D01*
G01*
X54373000Y-119818099D02*
G75*
G02*
X54627000Y-119818099I127000J0D01*
G01*
D12*
X72348002Y-30065644D02*
X72348002Y-32512346D01*
X72348002Y-34872938D02*
X72348002Y-37512346D01*
X72348002Y-39872938D02*
X72348002Y-42319640D01*
X72348002Y-42319640D02*
X84601998Y-42319640D01*
X84601998Y-30065644D02*
X72348002Y-30065644D01*
X84601998Y-32512346D02*
X84601998Y-30065644D01*
X84601998Y-37512346D02*
X84601998Y-34872938D01*
X84601998Y-42319640D02*
X84601998Y-39872938D01*
D13*
X72352000Y-28612642D02*
G75*
G02*
X72098000Y-28612642I-127000J0D01*
G01*
X72098000Y-28612642D02*
G75*
G02*
X72352000Y-28612642I127000J0D01*
G01*
D14*
X222979000Y-61930000D02*
X233020000Y-61930000D01*
X222979000Y-65866000D02*
X222979000Y-61930000D01*
X222979000Y-74170000D02*
X222979000Y-70233000D01*
X222979000Y-74170000D02*
X224300000Y-74170000D01*
X226750000Y-74170000D02*
X227130000Y-74170000D01*
X228871000Y-74170000D02*
X229630000Y-74170000D01*
X231370000Y-74170000D02*
X233020000Y-74170000D01*
X233020000Y-65866000D02*
X233020000Y-61930000D01*
X233020000Y-74170000D02*
X233020000Y-70233000D01*
D12*
X173001243Y-121271101D02*
X173001243Y-123717803D01*
X173001243Y-126078395D02*
X173001243Y-128717803D01*
X173001243Y-131078395D02*
X173001243Y-133525097D01*
X173001243Y-133525097D02*
X185255239Y-133525097D01*
X185255239Y-121271101D02*
X173001243Y-121271101D01*
X185255239Y-123717803D02*
X185255239Y-121271101D01*
X185255239Y-128717803D02*
X185255239Y-126078395D01*
X185255239Y-133525097D02*
X185255239Y-131078395D01*
D13*
X173005241Y-119818099D02*
G75*
G02*
X172751241Y-119818099I-127000J0D01*
G01*
X172751241Y-119818099D02*
G75*
G02*
X173005241Y-119818099I127000J0D01*
G01*
D14*
X184979000Y-61930000D02*
X195020000Y-61930000D01*
X184979000Y-65866000D02*
X184979000Y-61930000D01*
X184979000Y-74170000D02*
X184979000Y-70233000D01*
X184979000Y-74170000D02*
X186300000Y-74170000D01*
X188750000Y-74170000D02*
X189130000Y-74170000D01*
X190871000Y-74170000D02*
X191630000Y-74170000D01*
X193370000Y-74170000D02*
X195020000Y-74170000D01*
X195020000Y-65866000D02*
X195020000Y-61930000D01*
X195020000Y-74170000D02*
X195020000Y-70233000D01*
X91179000Y-28513642D02*
X101220000Y-28513642D01*
X91179000Y-32449642D02*
X91179000Y-28513642D01*
X91179000Y-40753642D02*
X91179000Y-36816642D01*
X91179000Y-40753642D02*
X92500000Y-40753642D01*
X94950000Y-40753642D02*
X95330000Y-40753642D01*
X97071000Y-40753642D02*
X97830000Y-40753642D01*
X99570000Y-40753642D02*
X101220000Y-40753642D01*
X101220000Y-32449642D02*
X101220000Y-28513642D01*
X101220000Y-40753642D02*
X101220000Y-36816642D01*
D10*
X225190000Y-79825000D02*
X230270000Y-79825000D01*
X225190000Y-84905000D02*
X225190000Y-79825000D01*
X230270000Y-79825000D02*
X230270000Y-84905000D01*
X230270000Y-84905000D02*
X225190000Y-84905000D01*
D12*
X164129483Y-137373002D02*
X164129483Y-139819704D01*
X164129483Y-142180296D02*
X164129483Y-144819704D01*
X164129483Y-147180296D02*
X164129483Y-149626998D01*
X164129483Y-149626998D02*
X176383479Y-149626998D01*
X176383479Y-137373002D02*
X164129483Y-137373002D01*
X176383479Y-139819704D02*
X176383479Y-137373002D01*
X176383479Y-144819704D02*
X176383479Y-142180296D01*
X176383479Y-149626998D02*
X176383479Y-147180296D01*
D13*
X164133481Y-135920000D02*
G75*
G02*
X163879481Y-135920000I-127000J0D01*
G01*
X163879481Y-135920000D02*
G75*
G02*
X164133481Y-135920000I127000J0D01*
G01*
D14*
X91179000Y-71578099D02*
X101220000Y-71578099D01*
X91179000Y-75514099D02*
X91179000Y-71578099D01*
X91179000Y-83818099D02*
X91179000Y-79881099D01*
X91179000Y-83818099D02*
X92500000Y-83818099D01*
X94950000Y-83818099D02*
X95330000Y-83818099D01*
X97071000Y-83818099D02*
X97830000Y-83818099D01*
X99570000Y-83818099D02*
X101220000Y-83818099D01*
X101220000Y-75514099D02*
X101220000Y-71578099D01*
X101220000Y-83818099D02*
X101220000Y-79881099D01*
X106796066Y-78730000D02*
X116837066Y-78730000D01*
X106796066Y-82666000D02*
X106796066Y-78730000D01*
X106796066Y-90970000D02*
X106796066Y-87033000D01*
X106796066Y-90970000D02*
X108117066Y-90970000D01*
X110567066Y-90970000D02*
X110947066Y-90970000D01*
X112688066Y-90970000D02*
X113447066Y-90970000D01*
X115187066Y-90970000D02*
X116837066Y-90970000D01*
X116837066Y-82666000D02*
X116837066Y-78730000D01*
X116837066Y-90970000D02*
X116837066Y-87033000D01*
D10*
X122101214Y-31750014D02*
X149901214Y-31750014D01*
X122101214Y-59050014D02*
X122101214Y-31750014D01*
X149901214Y-31750014D02*
X149901214Y-59050014D01*
X149901214Y-59050014D02*
X122101214Y-59050014D01*
D12*
X137514206Y-121271101D02*
X137514206Y-123717803D01*
X137514206Y-126078395D02*
X137514206Y-128717803D01*
X137514206Y-131078395D02*
X137514206Y-133525097D01*
X137514206Y-133525097D02*
X149768202Y-133525097D01*
X149768202Y-121271101D02*
X137514206Y-121271101D01*
X149768202Y-123717803D02*
X149768202Y-121271101D01*
X149768202Y-128717803D02*
X149768202Y-126078395D01*
X149768202Y-133525097D02*
X149768202Y-131078395D01*
D13*
X137518204Y-119818099D02*
G75*
G02*
X137264204Y-119818099I-127000J0D01*
G01*
X137264204Y-119818099D02*
G75*
G02*
X137518204Y-119818099I127000J0D01*
G01*
D10*
X165950000Y-28408642D02*
X197950000Y-28408642D01*
X165950000Y-60408642D02*
X165950000Y-28408642D01*
X197950000Y-28408642D02*
X197950000Y-60408642D01*
X197950000Y-60408642D02*
X165950000Y-60408642D01*
D12*
X84283650Y-121271101D02*
X84283650Y-123717803D01*
X84283650Y-126078395D02*
X84283650Y-128717803D01*
X84283650Y-131078395D02*
X84283650Y-133525097D01*
X84283650Y-133525097D02*
X96537646Y-133525097D01*
X96537646Y-121271101D02*
X84283650Y-121271101D01*
X96537646Y-123717803D02*
X96537646Y-121271101D01*
X96537646Y-128717803D02*
X96537646Y-126078395D01*
X96537646Y-133525097D02*
X96537646Y-131078395D01*
D13*
X84287648Y-119818099D02*
G75*
G02*
X84033648Y-119818099I-127000J0D01*
G01*
X84033648Y-119818099D02*
G75*
G02*
X84287648Y-119818099I127000J0D01*
G01*
D12*
X128642446Y-137373002D02*
X128642446Y-139819704D01*
X128642446Y-142180296D02*
X128642446Y-144819704D01*
X128642446Y-147180296D02*
X128642446Y-149626998D01*
X128642446Y-149626998D02*
X140896442Y-149626998D01*
X140896442Y-137373002D02*
X128642446Y-137373002D01*
X140896442Y-139819704D02*
X140896442Y-137373002D01*
X140896442Y-144819704D02*
X140896442Y-142180296D01*
X140896442Y-149626998D02*
X140896442Y-147180296D01*
D13*
X128646444Y-135920000D02*
G75*
G02*
X128392444Y-135920000I-127000J0D01*
G01*
X128392444Y-135920000D02*
G75*
G02*
X128646444Y-135920000I127000J0D01*
G01*
D14*
X146343832Y-61828099D02*
X156384832Y-61828099D01*
X146343832Y-65764099D02*
X146343832Y-61828099D01*
X146343832Y-74068099D02*
X146343832Y-70131099D01*
X146343832Y-74068099D02*
X147664832Y-74068099D01*
X150114832Y-74068099D02*
X150494832Y-74068099D01*
X152235832Y-74068099D02*
X152994832Y-74068099D01*
X154734832Y-74068099D02*
X156384832Y-74068099D01*
X156384832Y-65764099D02*
X156384832Y-61828099D01*
X156384832Y-74068099D02*
X156384832Y-70131099D01*
X153646066Y-78730000D02*
X163687066Y-78730000D01*
X153646066Y-82666000D02*
X153646066Y-78730000D01*
X153646066Y-90970000D02*
X153646066Y-87033000D01*
X153646066Y-90970000D02*
X154967066Y-90970000D01*
X157417066Y-90970000D02*
X157797066Y-90970000D01*
X159538066Y-90970000D02*
X160297066Y-90970000D01*
X162037066Y-90970000D02*
X163687066Y-90970000D01*
X163687066Y-82666000D02*
X163687066Y-78730000D01*
X163687066Y-90970000D02*
X163687066Y-87033000D01*
D12*
X54623002Y-137373002D02*
X54623002Y-139819704D01*
X54623002Y-142180296D02*
X54623002Y-144819704D01*
X54623002Y-147180296D02*
X54623002Y-149626998D01*
X54623002Y-149626998D02*
X66876998Y-149626998D01*
X66876998Y-137373002D02*
X54623002Y-137373002D01*
X66876998Y-139819704D02*
X66876998Y-137373002D01*
X66876998Y-144819704D02*
X66876998Y-142180296D01*
X66876998Y-149626998D02*
X66876998Y-147180296D01*
D13*
X54627000Y-135920000D02*
G75*
G02*
X54373000Y-135920000I-127000J0D01*
G01*
X54373000Y-135920000D02*
G75*
G02*
X54627000Y-135920000I127000J0D01*
G01*
D12*
X93155409Y-137373002D02*
X93155409Y-139819704D01*
X93155409Y-142180296D02*
X93155409Y-144819704D01*
X93155409Y-147180296D02*
X93155409Y-149626998D01*
X93155409Y-149626998D02*
X105409405Y-149626998D01*
X105409405Y-137373002D02*
X93155409Y-137373002D01*
X105409405Y-139819704D02*
X105409405Y-137373002D01*
X105409405Y-144819704D02*
X105409405Y-142180296D01*
X105409405Y-149626998D02*
X105409405Y-147180296D01*
D13*
X93159407Y-135920000D02*
G75*
G02*
X92905407Y-135920000I-127000J0D01*
G01*
X92905407Y-135920000D02*
G75*
G02*
X93159407Y-135920000I127000J0D01*
G01*
D14*
X122918832Y-78730000D02*
X132959832Y-78730000D01*
X122918832Y-82666000D02*
X122918832Y-78730000D01*
X122918832Y-90970000D02*
X122918832Y-87033000D01*
X122918832Y-90970000D02*
X124239832Y-90970000D01*
X126689832Y-90970000D02*
X127069832Y-90970000D01*
X128810832Y-90970000D02*
X129569832Y-90970000D01*
X131309832Y-90970000D02*
X132959832Y-90970000D01*
X132959832Y-82666000D02*
X132959832Y-78730000D01*
X132959832Y-90970000D02*
X132959832Y-87033000D01*
X73454000Y-46930000D02*
X83495000Y-46930000D01*
X73454000Y-50866000D02*
X73454000Y-46930000D01*
X73454000Y-59170000D02*
X73454000Y-55233000D01*
X73454000Y-59170000D02*
X74775000Y-59170000D01*
X77225000Y-59170000D02*
X77605000Y-59170000D01*
X79346000Y-59170000D02*
X80105000Y-59170000D01*
X81845000Y-59170000D02*
X83495000Y-59170000D01*
X83495000Y-50866000D02*
X83495000Y-46930000D01*
X83495000Y-59170000D02*
X83495000Y-55233000D01*
X182979000Y-82780000D02*
X193020000Y-82780000D01*
X182979000Y-86716000D02*
X182979000Y-82780000D01*
X182979000Y-95020000D02*
X182979000Y-91083000D01*
X182979000Y-95020000D02*
X184300000Y-95020000D01*
X186750000Y-95020000D02*
X187130000Y-95020000D01*
X188871000Y-95020000D02*
X189630000Y-95020000D01*
X191370000Y-95020000D02*
X193020000Y-95020000D01*
X193020000Y-86716000D02*
X193020000Y-82780000D01*
X193020000Y-95020000D02*
X193020000Y-91083000D01*
D12*
X155257724Y-121271101D02*
X155257724Y-123717803D01*
X155257724Y-126078395D02*
X155257724Y-128717803D01*
X155257724Y-131078395D02*
X155257724Y-133525097D01*
X155257724Y-133525097D02*
X167511720Y-133525097D01*
X167511720Y-121271101D02*
X155257724Y-121271101D01*
X167511720Y-123717803D02*
X167511720Y-121271101D01*
X167511720Y-128717803D02*
X167511720Y-126078395D01*
X167511720Y-133525097D02*
X167511720Y-131078395D01*
D13*
X155261722Y-119818099D02*
G75*
G02*
X155007722Y-119818099I-127000J0D01*
G01*
X155007722Y-119818099D02*
G75*
G02*
X155261722Y-119818099I127000J0D01*
G01*
D12*
X181873002Y-137373002D02*
X181873002Y-139819704D01*
X181873002Y-142180296D02*
X181873002Y-144819704D01*
X181873002Y-147180296D02*
X181873002Y-149626998D01*
X181873002Y-149626998D02*
X194126998Y-149626998D01*
X194126998Y-137373002D02*
X181873002Y-137373002D01*
X194126998Y-139819704D02*
X194126998Y-137373002D01*
X194126998Y-144819704D02*
X194126998Y-142180296D01*
X194126998Y-149626998D02*
X194126998Y-147180296D01*
D13*
X181877000Y-135920000D02*
G75*
G02*
X181623000Y-135920000I-127000J0D01*
G01*
X181623000Y-135920000D02*
G75*
G02*
X181877000Y-135920000I127000J0D01*
G01*
%LPC*%
D15*
X117025926Y-139000000D03*
X117025926Y-148000000D03*
D16*
X110775926Y-141000000D03*
X110775926Y-146000000D03*
X123275926Y-141000000D03*
X123275926Y-146000000D03*
D15*
X60750000Y-50251901D03*
X60750000Y-59251901D03*
D16*
X54500000Y-52251901D03*
X54500000Y-57251901D03*
X67000000Y-52251901D03*
X67000000Y-57251901D03*
D17*
X75975000Y-84698099D03*
D18*
X78475000Y-84698099D03*
X80975000Y-84698099D03*
D19*
X74075000Y-77698099D03*
X82875000Y-77698099D03*
D15*
X108154167Y-122898099D03*
X108154167Y-131898099D03*
D16*
X101904167Y-124898099D03*
X101904167Y-129898099D03*
X114404167Y-124898099D03*
X114404167Y-129898099D03*
D15*
X60750000Y-31692642D03*
X60750000Y-40692642D03*
D16*
X54500000Y-33692642D03*
X54500000Y-38692642D03*
X67000000Y-33692642D03*
X67000000Y-38692642D03*
D17*
X93700000Y-60050000D03*
D18*
X96200000Y-60050000D03*
X98700000Y-60050000D03*
D19*
X91800000Y-53050000D03*
X100600000Y-53050000D03*
D17*
X141562597Y-91850000D03*
D18*
X144062597Y-91850000D03*
X146562597Y-91850000D03*
D19*
X139662597Y-84850000D03*
X148462597Y-84850000D03*
D15*
X81538889Y-139000000D03*
X81538889Y-148000000D03*
D16*
X75288889Y-141000000D03*
X75288889Y-146000000D03*
X87788889Y-141000000D03*
X87788889Y-146000000D03*
D15*
X204000000Y-94251901D03*
X204000000Y-103251901D03*
D16*
X197750000Y-96251901D03*
X197750000Y-101251901D03*
X210250000Y-96251901D03*
X210250000Y-101251901D03*
D20*
X190000000Y-119000000D03*
X76000000Y-127000000D03*
D17*
X185500000Y-112200000D03*
D18*
X188000000Y-112200000D03*
X190500000Y-112200000D03*
D19*
X183600000Y-105200000D03*
X192400000Y-105200000D03*
D15*
X136001214Y-65150000D03*
X136001214Y-74150000D03*
D16*
X129751214Y-67150000D03*
X129751214Y-72150000D03*
X142251214Y-67150000D03*
X142251214Y-72150000D03*
D17*
X171400000Y-75050000D03*
D18*
X173900000Y-75050000D03*
X176400000Y-75050000D03*
D19*
X169500000Y-68050000D03*
X178300000Y-68050000D03*
D15*
X152512963Y-139000000D03*
X152512963Y-148000000D03*
D16*
X146262963Y-141000000D03*
X146262963Y-146000000D03*
X158762963Y-141000000D03*
X158762963Y-146000000D03*
D15*
X60750000Y-74900000D03*
X60750000Y-83900000D03*
D16*
X54500000Y-76900000D03*
X54500000Y-81900000D03*
X67000000Y-76900000D03*
X67000000Y-81900000D03*
D15*
X119878448Y-65150000D03*
X119878448Y-74150000D03*
D16*
X113628448Y-67150000D03*
X113628448Y-72150000D03*
X126128448Y-67150000D03*
X126128448Y-72150000D03*
D15*
X125897685Y-122898099D03*
X125897685Y-131898099D03*
D16*
X119647685Y-124898099D03*
X119647685Y-129898099D03*
X132147685Y-124898099D03*
X132147685Y-129898099D03*
D15*
X60750000Y-122898099D03*
X60750000Y-131898099D03*
D16*
X54500000Y-124898099D03*
X54500000Y-129898099D03*
X67000000Y-124898099D03*
X67000000Y-129898099D03*
D20*
X58000000Y-92000000D03*
D15*
X78475000Y-31692642D03*
X78475000Y-40692642D03*
D16*
X72225000Y-33692642D03*
X72225000Y-38692642D03*
X84725000Y-33692642D03*
X84725000Y-38692642D03*
D17*
X225500000Y-75050000D03*
D18*
X228000000Y-75050000D03*
X230500000Y-75050000D03*
D19*
X223600000Y-68050000D03*
X232400000Y-68050000D03*
D15*
X179128241Y-122898099D03*
X179128241Y-131898099D03*
D16*
X172878241Y-124898099D03*
X172878241Y-129898099D03*
X185378241Y-124898099D03*
X185378241Y-129898099D03*
D17*
X187500000Y-75050000D03*
D18*
X190000000Y-75050000D03*
X192500000Y-75050000D03*
D19*
X185600000Y-68050000D03*
X194400000Y-68050000D03*
D17*
X93700000Y-41633642D03*
D18*
X96200000Y-41633642D03*
X98700000Y-41633642D03*
D19*
X91800000Y-34633642D03*
X100600000Y-34633642D03*
D21*
X229000000Y-81095000D03*
X226460000Y-81095000D03*
D15*
X170256481Y-139000000D03*
X170256481Y-148000000D03*
D16*
X164006481Y-141000000D03*
X164006481Y-146000000D03*
X176506481Y-141000000D03*
X176506481Y-146000000D03*
D17*
X93700000Y-84698099D03*
D18*
X96200000Y-84698099D03*
X98700000Y-84698099D03*
D19*
X91800000Y-77698099D03*
X100600000Y-77698099D03*
D17*
X109317066Y-91850000D03*
D18*
X111817066Y-91850000D03*
X114317066Y-91850000D03*
D19*
X107417066Y-84850000D03*
X116217066Y-84850000D03*
D22*
X132190000Y-33333099D03*
D21*
X134730000Y-33333099D03*
X137270000Y-33333099D03*
X139810000Y-33333099D03*
D15*
X143641204Y-122898099D03*
X143641204Y-131898099D03*
D16*
X137391204Y-124898099D03*
X137391204Y-129898099D03*
X149891204Y-124898099D03*
X149891204Y-129898099D03*
D22*
X167346896Y-39318099D03*
D21*
X167346896Y-41858099D03*
X167346896Y-44398099D03*
X167346896Y-46938099D03*
X167346896Y-49478099D03*
D20*
X232000000Y-90000000D03*
D15*
X90410648Y-122898099D03*
X90410648Y-131898099D03*
D16*
X84160648Y-124898099D03*
X84160648Y-129898099D03*
X96660648Y-124898099D03*
X96660648Y-129898099D03*
D15*
X134769444Y-139000000D03*
X134769444Y-148000000D03*
D16*
X128519444Y-141000000D03*
X128519444Y-146000000D03*
X141019444Y-141000000D03*
X141019444Y-146000000D03*
D17*
X148864832Y-74948099D03*
D18*
X151364832Y-74948099D03*
X153864832Y-74948099D03*
D19*
X146964832Y-67948099D03*
X155764832Y-67948099D03*
D17*
X156167066Y-91850000D03*
D18*
X158667066Y-91850000D03*
X161167066Y-91850000D03*
D19*
X154267066Y-84850000D03*
X163067066Y-84850000D03*
D15*
X60750000Y-139000000D03*
X60750000Y-148000000D03*
D16*
X54500000Y-141000000D03*
X54500000Y-146000000D03*
X67000000Y-141000000D03*
X67000000Y-146000000D03*
D15*
X99282407Y-139000000D03*
X99282407Y-148000000D03*
D16*
X93032407Y-141000000D03*
X93032407Y-146000000D03*
X105532407Y-141000000D03*
X105532407Y-146000000D03*
D17*
X125439832Y-91850000D03*
D18*
X127939832Y-91850000D03*
X130439832Y-91850000D03*
D19*
X123539832Y-84850000D03*
X132339832Y-84850000D03*
D17*
X75975000Y-60050000D03*
D18*
X78475000Y-60050000D03*
X80975000Y-60050000D03*
D19*
X74075000Y-53050000D03*
X82875000Y-53050000D03*
D20*
X155000000Y-35000000D03*
D17*
X185500000Y-95900000D03*
D18*
X188000000Y-95900000D03*
X190500000Y-95900000D03*
D19*
X183600000Y-88900000D03*
X192400000Y-88900000D03*
D15*
X161384722Y-122898099D03*
X161384722Y-131898099D03*
D16*
X155134722Y-124898099D03*
X155134722Y-129898099D03*
X167634722Y-124898099D03*
X167634722Y-129898099D03*
D15*
X188000000Y-139000000D03*
X188000000Y-148000000D03*
D16*
X181750000Y-141000000D03*
X181750000Y-146000000D03*
X194250000Y-141000000D03*
X194250000Y-146000000D03*
D22*
X222000000Y-114490000D03*
D21*
X222000000Y-117030000D03*
X222000000Y-119570000D03*
X222000000Y-122110000D03*
X222000000Y-124650000D03*
X222000000Y-127190000D03*
X222000000Y-129730000D03*
X222000000Y-132270000D03*
X222000000Y-134810000D03*
X222000000Y-137350000D03*
X222000000Y-139890000D03*
X222000000Y-142430000D03*
X222000000Y-144970000D03*
X222000000Y-147510000D03*
X206760000Y-147510000D03*
X206760000Y-144970000D03*
X206760000Y-142430000D03*
X206760000Y-139890000D03*
X206760000Y-137350000D03*
X206760000Y-134810000D03*
X206760000Y-132270000D03*
X206760000Y-129730000D03*
X206760000Y-127190000D03*
X206760000Y-124650000D03*
X206760000Y-122110000D03*
X206760000Y-119570000D03*
X206760000Y-117030000D03*
X206760000Y-114490000D03*
X200410000Y-128460000D03*
X202950000Y-128460000D03*
X200410000Y-125920000D03*
X202950000Y-125920000D03*
X200410000Y-131000000D03*
X202950000Y-133540000D03*
X202950000Y-136080000D03*
X200410000Y-136080000D03*
D23*
X228508000Y-36060000D03*
X228508000Y-30060000D03*
D24*
X233208000Y-33060000D03*
D22*
X202660000Y-82460000D03*
D21*
X202660000Y-79920000D03*
X202660000Y-77380000D03*
X202660000Y-74840000D03*
X202660000Y-72300000D03*
X202660000Y-69760000D03*
X202660000Y-67220000D03*
X202660000Y-64680000D03*
X202660000Y-62140000D03*
X202660000Y-59600000D03*
X202660000Y-57060000D03*
X202660000Y-54520000D03*
X202660000Y-51980000D03*
X202660000Y-49440000D03*
X202660000Y-46900000D03*
X202660000Y-44360000D03*
X202660000Y-41820000D03*
X202660000Y-39280000D03*
X202660000Y-36740000D03*
X202660000Y-34200000D03*
X202660000Y-31660000D03*
X202660000Y-29120000D03*
X202660000Y-26580000D03*
X202660000Y-24040000D03*
X217900000Y-24000000D03*
X217900000Y-26540000D03*
X217900000Y-29080000D03*
X217900000Y-31620000D03*
X217900000Y-34160000D03*
X217900000Y-36700000D03*
X217900000Y-39240000D03*
X217900000Y-41780000D03*
X217900000Y-44320000D03*
X217900000Y-46860000D03*
X217900000Y-49400000D03*
X217900000Y-51940000D03*
X217900000Y-54480000D03*
X217900000Y-57020000D03*
X217900000Y-59560000D03*
X217900000Y-62100000D03*
X217900000Y-64640000D03*
X217900000Y-67180000D03*
X217900000Y-69720000D03*
X217900000Y-72260000D03*
X217900000Y-74800000D03*
X217900000Y-77340000D03*
X217900000Y-79880000D03*
X217900000Y-82420000D03*
X193270000Y-125825000D03*
X190730000Y-125825000D03*
X164510000Y-114238917D03*
X167050000Y-114238917D03*
X164510000Y-111698917D03*
X167050000Y-111698917D03*
X164510000Y-109158917D03*
X167050000Y-109158917D03*
X164510000Y-106618917D03*
X167050000Y-106618917D03*
X164510000Y-104078917D03*
X167050000Y-104078917D03*
X164510000Y-101538917D03*
X167050000Y-101538917D03*
X164510000Y-98998917D03*
D22*
X167050000Y-98998917D03*
D21*
X155620000Y-98998917D03*
X153080000Y-98998917D03*
X150540000Y-98998917D03*
X148000000Y-98998917D03*
X145460000Y-98998917D03*
X142920000Y-98998917D03*
X140380000Y-98998917D03*
X137840000Y-98998917D03*
X135300000Y-98998917D03*
D22*
X132760000Y-98998917D03*
X130220000Y-98998917D03*
D21*
X127680000Y-98998917D03*
X125140000Y-98998917D03*
X122600000Y-98998917D03*
X120060000Y-98998917D03*
X117520000Y-98998917D03*
X114980000Y-98998917D03*
X112440000Y-98998917D03*
X109900000Y-98998917D03*
X107360000Y-98998917D03*
X58060000Y-99000000D03*
X60600000Y-99000000D03*
X63140000Y-99000000D03*
X65680000Y-99000000D03*
X68220000Y-99000000D03*
X70760000Y-99000000D03*
X73300000Y-99000000D03*
X75840000Y-99000000D03*
X78380000Y-99000000D03*
X80920000Y-99000000D03*
X83460000Y-99000000D03*
X86000000Y-99000000D03*
X88540000Y-99000000D03*
X91080000Y-99000000D03*
X93620000Y-99000000D03*
X96160000Y-99000000D03*
D22*
X86000000Y-114240000D03*
D21*
X83460000Y-114240000D03*
X80920000Y-114240000D03*
X78380000Y-114240000D03*
X75840000Y-114240000D03*
X73300000Y-114240000D03*
X70760000Y-114240000D03*
X68220000Y-114240000D03*
%LPD*%
M02*
